<svg width="38" height="41" viewBox="0 0 38 41" fill="none" xmlns="http://www.w3.org/2000/svg">
<path d="M34.4648 12.2823C31.599 3.7705 21.9726 1.00599 17.5177 0.687706C-0.944881 -0.949152 0.846191 12.2823 0.157291 19.3754C-0.531612 26.4685 4.29079 43.9286 22.4778 39.9728C40.6649 36.017 38.0471 22.922 34.4648 12.2823Z" fill="#F79C80"/>
<path d="M28.1793 10.938H8.95715C7.63563 10.938 6.5664 12.0192 6.5664 13.3408L6.55438 27.7573C6.55438 29.0789 7.63563 30.1601 8.95715 30.1601H28.1793C29.5008 30.1601 30.582 29.0789 30.582 27.7573V13.3408C30.582 12.0192 29.5008 10.938 28.1793 10.938ZM28.1793 27.7573H8.95715V15.7435L18.5682 21.7504L28.1793 15.7435V27.7573ZM18.5682 19.3477L8.95715 13.3408H28.1793L18.5682 19.3477Z" fill="#FFF8EF"/>
</svg>
