<svg width="38" height="41" viewBox="0 0 38 41" fill="none" xmlns="http://www.w3.org/2000/svg">
<path d="M34.4648 12.2823C31.599 3.7705 21.9726 1.00599 17.5177 0.687706C-0.944881 -0.949152 0.846191 12.2823 0.157291 19.3754C-0.531612 26.4685 4.29079 43.9286 22.4778 39.9728C40.6649 36.017 38.0471 22.922 34.4648 12.2823Z" fill="#F79C80"/>
<path d="M12.0086 12.1391C12.0807 13.2083 12.2609 14.2535 12.5493 15.2507L11.1076 16.6923C10.615 15.2507 10.3027 13.7249 10.1945 12.1391H12.0086ZM23.8543 26.5797C24.8754 26.868 25.9206 27.0482 26.9779 27.1203V28.9104C25.392 28.8023 23.8663 28.4899 22.4126 28.0093L23.8543 26.5797ZM13.162 9.73633H8.95712C8.29636 9.73633 7.75574 10.277 7.75574 10.9377C7.75574 22.2187 16.8983 31.3612 28.1792 31.3612C28.84 31.3612 29.3806 30.8206 29.3806 30.1598V25.967C29.3806 25.3062 28.84 24.7656 28.1792 24.7656C26.6895 24.7656 25.2358 24.5253 23.8903 24.0808C23.7702 24.0328 23.638 24.0208 23.5179 24.0208C23.2055 24.0208 22.9052 24.1409 22.6649 24.3692L20.0218 27.0122C16.6219 25.2702 13.8347 22.495 12.1047 19.0951L14.7478 16.4521C15.0842 16.1157 15.1803 15.6471 15.0481 15.2266C14.6036 13.8811 14.3633 12.4394 14.3633 10.9377C14.3633 10.277 13.8227 9.73633 13.162 9.73633Z" fill="#FFF8EF"/>
</svg>
