<svg width="16" height="16" viewBox="0 0 16 16" fill="none" xmlns="http://www.w3.org/2000/svg">
<path d="M7.1857 12.4201V1.24512C7.1857 0.961784 7.28154 0.724284 7.4732 0.532617C7.66487 0.340951 7.90237 0.245117 8.1857 0.245117C8.46904 0.245117 8.70654 0.340951 8.8982 0.532617C9.08987 0.724284 9.1857 0.961784 9.1857 1.24512V12.4201L14.0857 7.52012C14.2857 7.32012 14.519 7.22428 14.7857 7.23262C15.0524 7.24095 15.2857 7.34512 15.4857 7.54512C15.669 7.74512 15.7649 7.97845 15.7732 8.24512C15.7815 8.51178 15.6857 8.74512 15.4857 8.94512L8.8857 15.5451C8.7857 15.6451 8.67737 15.716 8.5607 15.7576C8.44404 15.7993 8.31904 15.8201 8.1857 15.8201C8.05237 15.8201 7.92737 15.7993 7.8107 15.7576C7.69404 15.716 7.5857 15.6451 7.4857 15.5451L0.885703 8.94512C0.702369 8.76178 0.610703 8.53262 0.610703 8.25762C0.610703 7.98262 0.702369 7.74512 0.885703 7.54512C1.0857 7.34512 1.3232 7.24512 1.5982 7.24512C1.8732 7.24512 2.1107 7.34512 2.3107 7.54512L7.1857 12.4201Z" fill="#FFF8EF"/>
</svg>
