<svg width="40" height="40" viewBox="0 0 40 40" fill="none" xmlns="http://www.w3.org/2000/svg">
<mask id="mask0_108_524" style="mask-type:alpha" maskUnits="userSpaceOnUse" x="4" y="4" width="32" height="32">
<rect x="4" y="4" width="32" height="32" fill="#D9D9D9"/>
</mask>
<g mask="url(#mask0_108_524)">
<path d="M20 21.8667L13.4667 28.4C13.2222 28.6444 12.9111 28.7667 12.5333 28.7667C12.1556 28.7667 11.8444 28.6444 11.6 28.4C11.3556 28.1556 11.2333 27.8444 11.2333 27.4667C11.2333 27.0889 11.3556 26.7778 11.6 26.5333L18.1333 20L11.6 13.4667C11.3556 13.2222 11.2333 12.9111 11.2333 12.5333C11.2333 12.1556 11.3556 11.8444 11.6 11.6C11.8444 11.3556 12.1556 11.2333 12.5333 11.2333C12.9111 11.2333 13.2222 11.3556 13.4667 11.6L20 18.1333L26.5333 11.6C26.7778 11.3556 27.0889 11.2333 27.4667 11.2333C27.8444 11.2333 28.1556 11.3556 28.4 11.6C28.6444 11.8444 28.7667 12.1556 28.7667 12.5333C28.7667 12.9111 28.6444 13.2222 28.4 13.4667L21.8667 20L28.4 26.5333C28.6444 26.7778 28.7667 27.0889 28.7667 27.4667C28.7667 27.8444 28.6444 28.1556 28.4 28.4C28.1556 28.6444 27.8444 28.7667 27.4667 28.7667C27.0889 28.7667 26.7778 28.6444 26.5333 28.4L20 21.8667Z" fill="#FFF8EF"/>
</g>
</svg>
