<svg width="37" height="40" viewBox="0 0 37 40" fill="none" xmlns="http://www.w3.org/2000/svg">
<path d="M34.4227 11.7334C31.5568 3.22167 21.9305 0.457162 17.4756 0.138878C-0.986996 -1.49798 0.804077 11.7334 0.115177 18.8266C-0.573727 25.9197 4.24867 43.3797 22.4357 39.424C40.6228 35.4682 38.0049 22.3731 34.4227 11.7334Z" fill="#FFF8EF"/>
<g clip-path="url(#clip0_108_643)">
<path d="M24.1932 19.2124L24.037 20.9524H20.4658V32.0043H15.6406V20.9524H12.5728V16.5308H15.6146V12.951C15.6146 11.1242 16.5432 8 20.6871 8H24.4145V12.426H21.7068C21.2599 12.426 20.6481 12.6299 20.6481 13.4804V16.5265H24.4796L24.1932 19.2124Z" fill="#B96645"/>
</g>
<defs>
<clipPath id="clip0_108_643">
<rect width="11.9067" height="24" fill="white" transform="translate(12.5728 8)"/>
</clipPath>
</defs>
</svg>
