<svg width="81" height="76" viewBox="0 0 81 76" fill="none" xmlns="http://www.w3.org/2000/svg">
<path d="M74.9195 22.1854C68.7143 6.09149 47.8711 0.864396 38.2252 0.262588C-1.75052 -2.83236 2.12757 22.1854 0.635933 35.597C-0.855698 49.0086 9.5859 82.0218 48.965 74.5422C88.3441 67.0627 82.6759 42.3028 74.9195 22.1854Z" fill="#F79C80"/>
<mask id="mask0_10_697" style="mask-type:alpha" maskUnits="userSpaceOnUse" x="18" y="15" width="44" height="45">
<rect x="18" y="15.8157" width="44" height="44" fill="#D9D9D9"/>
</mask>
<g mask="url(#mask0_10_697)">
<path d="M32.6667 39.6491H47.3333C47.8528 39.6491 48.2882 39.4734 48.6396 39.122C48.991 38.7706 49.1667 38.3352 49.1667 37.8158C49.1667 37.2963 48.991 36.8609 48.6396 36.5095C48.2882 36.1581 47.8528 35.9824 47.3333 35.9824H32.6667C32.1472 35.9824 31.7118 36.1581 31.3604 36.5095C31.009 36.8609 30.8333 37.2963 30.8333 37.8158C30.8333 38.3352 31.009 38.7706 31.3604 39.122C31.7118 39.4734 32.1472 39.6491 32.6667 39.6491ZM40 56.1491C37.4639 56.1491 35.0806 55.6678 32.85 54.7053C30.6194 53.7428 28.6792 52.4366 27.0292 50.7866C25.3792 49.1366 24.0729 47.1963 23.1104 44.9658C22.1479 42.7352 21.6667 40.3519 21.6667 37.8158C21.6667 35.2796 22.1479 32.8963 23.1104 30.6658C24.0729 28.4352 25.3792 26.4949 27.0292 24.8449C28.6792 23.1949 30.6194 21.8887 32.85 20.9262C35.0806 19.9637 37.4639 19.4824 40 19.4824C42.5361 19.4824 44.9194 19.9637 47.15 20.9262C49.3806 21.8887 51.3208 23.1949 52.9708 24.8449C54.6208 26.4949 55.9271 28.4352 56.8896 30.6658C57.8521 32.8963 58.3333 35.2796 58.3333 37.8158C58.3333 40.3519 57.8521 42.7352 56.8896 44.9658C55.9271 47.1963 54.6208 49.1366 52.9708 50.7866C51.3208 52.4366 49.3806 53.7428 47.15 54.7053C44.9194 55.6678 42.5361 56.1491 40 56.1491ZM40 52.4824C44.0944 52.4824 47.5625 51.0616 50.4042 48.2199C53.2458 45.3783 54.6667 41.9102 54.6667 37.8158C54.6667 33.7213 53.2458 30.2533 50.4042 27.4116C47.5625 24.5699 44.0944 23.1491 40 23.1491C35.9056 23.1491 32.4375 24.5699 29.5958 27.4116C26.7542 30.2533 25.3333 33.7213 25.3333 37.8158C25.3333 41.9102 26.7542 45.3783 29.5958 48.2199C32.4375 51.0616 35.9056 52.4824 40 52.4824Z" fill="#FFF8EF"/>
</g>
</svg>
