<svg width="81" height="76" viewBox="0 0 81 76" fill="none" xmlns="http://www.w3.org/2000/svg">
<path d="M74.9195 22.1854C68.7143 6.09149 47.8711 0.864396 38.2252 0.262588C-1.75052 -2.83236 2.12757 22.1854 0.635933 35.597C-0.855698 49.0086 9.5859 82.0218 48.965 74.5422C88.3441 67.0627 82.6759 42.3028 74.9195 22.1854Z" fill="#F79C80"/>
<path d="M15.4599 59.8157L23.3527 46.7534C6.49839 36.0864 18.9926 18.9266 36.2721 16.5315C53.5515 14.1363 63.3033 17.0447 65.5274 36.206C67.3067 51.5351 45.1684 52.2879 33.8769 50.7481L15.4599 59.8157Z" stroke="#FFF8EF" stroke-width="3" stroke-linejoin="round"/>
<path d="M56.901 31.8289L56.6535 35.793C56.6278 36.2048 56.7509 36.7164 56.9303 37.154C57.1194 37.6438 56.9867 37.9069 56.5234 37.878L54.5156 37.7526C54.1037 37.7269 53.8632 37.4406 53.8881 37.0416L53.9114 36.6684C53.2679 37.4551 52.474 37.7544 51.6503 37.703C50.2989 37.6186 49.5177 36.6783 49.6013 35.3398L49.7347 33.2033C49.7604 32.7915 49.6501 32.2807 49.4578 31.8423C49.2816 31.3532 49.4007 31.1023 49.8648 31.1183L51.9104 30.8455C52.3142 30.7931 52.5628 31.1575 52.5379 31.5565L52.333 34.8385C52.2888 35.5463 52.5672 36.0547 53.0563 36.0852C53.3008 36.1005 53.7207 35.9975 53.9869 35.4585L54.1106 33.4765C54.1363 33.0646 54.0132 32.553 53.8209 32.1147C53.6447 31.6256 53.7638 31.3746 54.2408 31.3915L56.2735 31.1178C56.6773 31.0655 56.9259 31.4299 56.901 31.8289Z" fill="#FFF8EF"/>
<path d="M44.1889 31.5125C43.9193 31.5384 43.2563 31.7836 43.3652 32.5116C43.471 33.0714 43.1728 33.8774 42.3005 33.8318C41.5448 33.788 41.0301 33.1509 41.1418 32.4276C41.352 31.1119 43.4319 30.7821 44.4588 30.6832C45.8195 30.5523 47.4719 30.6264 47.6486 32.462L47.9266 35.3501C47.9687 35.7865 48.046 36.0511 48.3027 36.0264C48.5722 36.0005 48.5927 35.6746 48.7694 35.7613C48.9205 35.8504 48.8914 36.0863 48.7994 36.3414C48.561 36.9602 48.0424 37.3599 47.2209 37.439C46.5021 37.5082 45.9101 37.2802 45.5708 36.7169C45.1399 37.3543 44.5124 37.6998 43.5626 37.7912C42.1634 37.9259 41.2172 37.3822 41.1171 36.3425C40.9441 34.5454 43.4599 33.6295 45.0269 33.2196L44.9725 32.6548C44.9033 31.936 44.651 31.468 44.1889 31.5125ZM45.106 34.0411C44.2425 34.3574 43.7449 34.9753 43.8166 35.7198C43.8648 36.2205 44.1652 36.5154 44.5247 36.4808C44.9611 36.4388 45.2851 35.9023 45.2617 35.6585L45.106 34.0411Z" fill="#FFF8EF"/>
<path d="M36.3643 29.6618C36.2852 28.8403 36.8769 28.1227 37.6984 28.0436C38.5199 27.9645 39.2376 28.5561 39.3166 29.3776C39.3945 30.1863 38.8041 30.9168 37.9826 30.9959C37.1611 31.075 36.4422 30.4705 36.3643 29.6618ZM39.7191 31.9429L40.0996 35.8964C40.1392 36.3072 40.3414 36.793 40.5876 37.1968C40.8515 37.6507 40.7735 37.9173 40.2998 37.9759L37.6171 38.2341C37.1537 38.2658 37.0263 38.0189 37.186 37.5242C37.3634 37.0796 37.4564 36.5654 37.4169 36.1547L37.2105 34.011C37.171 33.6003 36.9816 33.1133 36.7226 32.7107C36.4715 32.2555 36.571 32.0775 37.0103 31.9316L38.9873 31.3396C39.3778 31.2243 39.6807 31.5449 39.7191 31.9429Z" fill="#FFF8EF"/>
<path d="M27.2754 33.3097L27.3252 33.6282C27.7387 32.7674 28.3749 32.3285 29.203 32.1989C30.2223 32.0395 30.9223 32.426 31.2919 33.2035C31.709 32.1985 32.3627 31.7047 33.2545 31.5652C34.6178 31.3519 35.4031 32.1166 35.6123 33.4544L36.005 35.9643C36.0687 36.372 36.2866 36.8469 36.569 37.2335C36.8593 37.671 36.7845 37.9438 36.3278 38.0282L33.665 38.4448C33.1916 38.5058 33.0499 38.2669 33.1927 37.7616C33.3435 37.3073 33.406 36.7885 33.3422 36.3808L33.0532 34.5334C32.9436 33.8327 32.5621 33.3964 32.1798 33.4562C31.8868 33.502 31.6739 33.8094 31.57 34.2303L31.9407 36.6C32.0045 37.0077 32.2351 37.4807 32.5175 37.8673C32.7951 38.3068 32.733 38.5775 32.2636 38.664L29.6135 39.0786C29.1401 39.1396 28.9984 38.9007 29.1412 38.3954C29.2793 37.9431 29.3544 37.4223 29.2907 37.0146L29.0017 35.1672C28.8921 34.4665 28.5106 34.0302 28.1156 34.0919C27.8353 34.1358 27.6224 34.4432 27.5185 34.8641L27.8892 37.2338C27.953 37.6415 28.1836 38.1145 28.4532 38.503C28.7435 38.9406 28.6815 39.2113 28.2121 39.2978L25.5493 39.7143C25.0886 39.7733 24.9469 39.5345 25.077 39.0312C25.2278 38.5769 25.2902 38.0581 25.2264 37.6504L24.8936 35.5227C24.8298 35.115 24.6119 34.64 24.3296 34.2535C24.052 33.814 24.1408 33.6304 24.5707 33.4587L26.5092 32.7509C26.8922 32.6126 27.2136 32.9148 27.2754 33.3097Z" fill="#FFF8EF"/>
</svg>
