<svg width="80" height="76" viewBox="0 0 80 76" fill="none" xmlns="http://www.w3.org/2000/svg">
<path d="M74.4195 22.1854C68.2143 6.09149 47.3711 0.864396 37.7252 0.262588C-2.25052 -2.83236 1.62757 22.1854 0.135933 35.597C-1.3557 49.0086 9.0859 82.0218 48.465 74.5422C87.8441 67.0627 82.1759 42.3028 74.4195 22.1854Z" fill="#F79C80"/>
<mask id="mask0_10_711" style="mask-type:alpha" maskUnits="userSpaceOnUse" x="20" y="18" width="40" height="40">
<rect x="20.7993" y="18.6155" width="38.4013" height="38.4013" fill="#D9D9D9"/>
</mask>
<g mask="url(#mask0_10_711)">
<path d="M27.9996 38.0164C26.8795 38.0164 25.9328 37.6298 25.1595 36.8564C24.3861 36.083 23.9995 35.1364 23.9995 34.0163C23.9995 32.8963 24.3861 31.9496 25.1595 31.1762C25.9328 30.4029 26.8795 30.0162 27.9996 30.0162C29.1196 30.0162 30.0663 30.4029 30.8397 31.1762C31.613 31.9496 31.9997 32.8963 31.9997 34.0163C31.9997 35.1364 31.613 36.083 30.8397 36.8564C30.0663 37.6298 29.1196 38.0164 27.9996 38.0164ZM35.1998 31.6162C34.0798 31.6162 33.1331 31.2296 32.3597 30.4562C31.5864 29.6828 31.1997 28.7361 31.1997 27.6161C31.1997 26.4961 31.5864 25.5494 32.3597 24.776C33.1331 24.0026 34.0798 23.616 35.1998 23.616C36.3199 23.616 37.2666 24.0026 38.0399 24.776C38.8133 25.5494 39.2 26.4961 39.2 27.6161C39.2 28.7361 38.8133 29.6828 38.0399 30.4562C37.2666 31.2296 36.3199 31.6162 35.1998 31.6162ZM44.8001 31.6162C43.6801 31.6162 42.7334 31.2296 41.96 30.4562C41.1867 29.6828 40.8 28.7361 40.8 27.6161C40.8 26.4961 41.1867 25.5494 41.96 24.776C42.7334 24.0026 43.6801 23.616 44.8001 23.616C45.9202 23.616 46.8669 24.0026 47.6402 24.776C48.4136 25.5494 48.8003 26.4961 48.8003 27.6161C48.8003 28.7361 48.4136 29.6828 47.6402 30.4562C46.8669 31.2296 45.9202 31.6162 44.8001 31.6162ZM52.0004 38.0164C50.8803 38.0164 49.9336 37.6298 49.1603 36.8564C48.3869 36.083 48.0002 35.1364 48.0002 34.0163C48.0002 32.8963 48.3869 31.9496 49.1603 31.1762C49.9336 30.4029 50.8803 30.0162 52.0004 30.0162C53.1204 30.0162 54.0671 30.4029 54.8405 31.1762C55.6138 31.9496 56.0005 32.8963 56.0005 34.0163C56.0005 35.1364 55.6138 36.083 54.8405 36.8564C54.0671 37.6298 53.1204 38.0164 52.0004 38.0164ZM31.4397 54.017C30.2397 54.017 29.233 53.557 28.4196 52.6369C27.6062 51.7169 27.1996 50.6302 27.1996 49.3768C27.1996 47.9901 27.6729 46.7767 28.6196 45.7367C29.5663 44.6967 30.5063 43.67 31.4397 42.6566C32.2131 41.8299 32.8797 40.9299 33.4398 39.9565C33.9998 38.9831 34.6665 38.0698 35.4398 37.2164C36.0265 36.5231 36.7065 35.9497 37.4799 35.4964C38.2533 35.043 39.0933 34.8163 40 34.8163C40.9067 34.8163 41.7467 35.0297 42.5201 35.4564C43.2934 35.883 43.9734 36.4431 44.5601 37.1364C45.3068 37.9898 45.9668 38.9098 46.5402 39.8965C47.1136 40.8832 47.7869 41.8032 48.5603 42.6566C49.4936 43.67 50.4337 44.6967 51.3804 45.7367C52.3271 46.7767 52.8004 47.9901 52.8004 49.3768C52.8004 50.6302 52.3937 51.7169 51.5804 52.6369C50.767 53.557 49.7603 54.017 48.5603 54.017C47.1202 54.017 45.6935 53.897 44.2801 53.657C42.8667 53.417 41.44 53.297 40 53.297C38.5599 53.297 37.1332 53.417 35.7198 53.657C34.3065 53.897 32.8797 54.017 31.4397 54.017Z" fill="#FFF8EF"/>
</g>
</svg>
