<svg width="80" height="76" viewBox="0 0 80 76" fill="none" xmlns="http://www.w3.org/2000/svg">
<path d="M74.4195 22.1854C68.2143 6.09149 47.3711 0.864396 37.7252 0.262588C-2.25052 -2.83236 1.62757 22.1854 0.135933 35.597C-1.3557 49.0086 9.0859 82.0218 48.465 74.5422C87.8441 67.0627 82.1759 42.3028 74.4195 22.1854Z" fill="#F79C80"/>
<path d="M39.9043 49.9634C38.6959 50.033 29.9321 50.3633 24.8026 45.2337C19.2991 39.7303 20.0903 30.0015 20.0903 30.0015C20.0903 30.0015 27.3934 29.393 32.9316 32.8185C32.6883 33.8183 32.5491 34.8529 32.5491 35.9222C32.5491 43.2254 39.0871 49.2331 39.9043 49.9634Z" stroke="#FFF8EF" stroke-width="3" stroke-miterlimit="10" stroke-linecap="round" stroke-linejoin="round"/>
<path d="M55.1887 45.2337C50.0416 50.3894 41.1911 50.033 40.0782 49.9633C40.8954 49.233 47.4421 43.2254 47.4421 35.9223C47.4421 34.8616 47.3031 33.827 47.0596 32.8272C52.5978 29.3931 59.9096 30.0016 59.9096 30.0016C59.9096 30.0016 60.7007 39.7303 55.1887 45.2337Z" stroke="#FFF8EF" stroke-width="3" stroke-miterlimit="10" stroke-linecap="round" stroke-linejoin="round"/>
<path d="M40.0435 49.9544V49.963C41.0259 50.0239 49.9896 50.4412 55.1887 45.2334C57.0319 43.399 58.1709 41.095 58.8663 38.8345C63.4047 39.7648 66.9519 42.0599 66.9519 42.0599C66.9519 42.0599 63.0483 51.0149 55.5886 53.258C48.5377 55.3883 40.8172 50.7629 40 50.2587C39.1828 50.7629 31.4623 55.3882 24.4114 53.2581C16.9517 51.0152 13.0481 42.0602 13.0481 42.0602C13.0481 42.0602 16.5953 39.765 21.1337 38.8347C21.8291 41.0952 22.9681 43.3991 24.8026 45.2336C30.0104 50.4414 38.974 50.0241 39.9565 49.9632V49.9546" stroke="#FFF8EF" stroke-width="3" stroke-miterlimit="10" stroke-linecap="round" stroke-linejoin="round"/>
<path d="M47.4453 35.9254C47.4453 43.7163 39.995 50.0352 39.995 50.0352C39.995 50.0352 32.5525 43.7163 32.5525 35.9254C32.5525 28.1344 39.995 21.8157 39.995 21.8157C39.995 21.8157 47.4453 28.1344 47.4453 35.9254Z" stroke="#FFF8EF" stroke-width="3" stroke-miterlimit="10" stroke-linecap="round" stroke-linejoin="round"/>
<path d="M40.0782 49.9634C40.0174 50.0068 39.9913 50.033 39.9913 50.033C39.9913 50.033 39.9652 50.007 39.913 49.9634H40.0782Z" stroke="#FFF8EF" stroke-width="3" stroke-miterlimit="10" stroke-linecap="round" stroke-linejoin="round"/>
</svg>
