<svg width="296" height="96" viewBox="0 0 296 96" fill="none" xmlns="http://www.w3.org/2000/svg">
<g clip-path="url(#clip0_126_1444)">
<path d="M89.5363 18.693C91.3207 16.1513 93.4874 15.0942 96.0365 15.0942C101.262 15.0942 104.576 19.6692 104.576 26.6993C104.576 33.7293 101.262 38.0501 96.1234 38.0501C93.5338 38.0501 91.3207 36.993 89.5363 34.4514V40.9326C89.5363 42.2901 90.0462 43.9422 90.724 45.3401C91.4481 46.9055 91.1063 47.7547 89.5363 47.7951H80.6551C79.1257 47.7547 78.7839 46.9055 79.4675 45.3401C80.1916 43.9422 80.6551 42.2901 80.6551 40.9326V23.6897C80.6551 22.3322 80.1859 20.6801 79.4675 19.2822C78.7897 17.7168 79.172 17.1622 80.6551 16.8272L87.3233 15.5159C88.6384 15.2618 89.5305 16.4055 89.5305 17.7168V18.693H89.5363ZM89.5363 30.3443C90.3011 32.0368 91.6161 32.4642 92.4272 32.4642C94.2985 32.4642 95.4861 30.0901 95.4861 26.2776C95.4861 24.7526 95.3181 20.6859 92.5141 20.6859C91.6219 20.6859 90.3069 21.0672 89.5421 22.8059V30.3443H89.5363Z" fill="#B96645"/>
<path d="M131.086 30.7656C131.086 32.1231 131.596 33.7752 132.274 35.1731C132.998 36.7386 132.616 37.6281 131.086 37.6281H124.459C123.097 37.6281 122.251 36.7386 122.251 35.4273V34.1969C120.299 36.9061 117.75 38.0498 115.027 38.0498C110.566 38.0498 107.803 35.1269 107.803 30.7194V23.6894C107.803 22.3319 107.334 20.6798 106.615 19.2819C105.937 17.7165 106.273 16.8673 107.803 16.8269L114.471 15.5156C115.786 15.2615 116.678 16.4052 116.678 17.7165V28.5186C116.678 30.8465 117.698 32.4582 119.314 32.4582C120.119 32.4582 121.481 32.0365 122.246 30.2111V23.6894C122.246 22.3319 121.736 20.6798 121.012 19.2819C120.334 17.7165 120.67 16.8673 122.246 16.8269L128.873 15.5156C130.188 15.2615 131.08 16.4052 131.08 17.7165V30.7656H131.086Z" fill="#B96645"/>
<path d="M144.851 18.9067C146.804 16.238 149.353 15.0942 152.076 15.0942C156.537 15.0942 159.254 17.9767 159.254 22.4246V30.7717C159.254 32.1292 159.763 33.7813 160.441 35.1792C161.165 36.7446 160.824 37.5938 159.254 37.6342H150.419C148.849 37.5938 148.507 36.7446 149.185 35.1792C149.909 33.7813 150.419 32.1292 150.419 30.7717V24.6313C150.419 22.3033 149.399 20.6917 147.783 20.6917C146.977 20.6917 145.616 21.0729 144.851 22.8925V30.7717C144.851 32.1292 145.361 33.7813 146.039 35.1792C146.763 36.7446 146.421 37.5938 144.851 37.6342H135.97C134.441 37.5938 134.099 36.7446 134.782 35.1792C135.507 33.7813 135.97 32.1292 135.97 30.7717V23.6955C135.97 22.338 135.501 20.6859 134.782 19.288C134.105 17.7226 134.487 17.168 135.97 16.833L142.638 15.5217C143.953 15.2675 144.846 16.4113 144.846 17.7226V18.9067H144.851Z" fill="#B96645"/>
<path d="M172.723 25.8095L176.037 22.4187C177.398 21.0207 177.607 19.3687 178.244 17.9303C179.05 16.4053 180.243 15.5562 181.813 15.5157H187.716C189.205 15.5562 188.991 16.5728 186.697 18.1845C184.698 19.5419 183.51 19.7095 180.619 22.4187L179.258 23.6895C180.915 23.6028 182.404 24.6195 183.296 26.5258L185.248 30.76C185.886 32.1174 187.12 33.7695 188.522 35.1674C189.964 36.7329 190.011 37.582 188.481 37.6225H178.667C177.097 37.582 176.373 36.7329 176.332 35.1674C176.373 33.7695 176.078 32.1174 175.481 30.76L174.334 28.3454L172.717 29.8299V30.76C172.717 32.1174 173.227 33.7695 173.905 35.1674C174.629 36.7329 174.287 37.582 172.717 37.6225H163.836C162.307 37.582 161.965 36.7329 162.649 35.1674C163.373 33.7695 163.836 32.1174 163.836 30.76V13.517C163.836 12.1596 163.367 10.5075 162.649 9.10955C161.971 7.54412 162.353 6.98957 163.836 6.65453L170.504 5.34326C171.819 5.08909 172.712 6.23285 172.712 7.54412V25.8037L172.723 25.8095Z" fill="#B96645"/>
<path d="M202.206 15.5156H206.029C206.707 15.5156 207.136 15.9373 207.136 16.8269C207.136 17.7165 206.713 18.1844 206.029 18.1844H202.206V31.4415C202.206 32.8798 202.802 33.7694 204.204 33.7694C204.882 33.7694 205.606 33.6019 206.116 32.9665C206.33 32.7123 206.585 32.5852 206.84 32.5852C206.968 32.5852 207.095 32.6257 207.263 32.7123C207.773 33.0531 207.941 33.6885 207.391 34.7861C206.244 37.114 203.694 38.0498 200.636 38.0498C196.088 38.0498 193.33 36.0165 193.33 31.609V18.1786H190.949C190.271 18.1786 189.843 17.7107 189.843 16.8211C189.843 15.9315 190.265 15.5098 190.949 15.5098H191.673C195.792 15.5098 196.516 12.7544 197.577 10.6807C198.509 8.86106 199.234 8.43359 200.421 8.43359C201.736 8.43359 202.206 8.90149 202.206 9.70443V15.5098V15.5156Z" fill="#B96645"/>
<path d="M77.8511 54.08C79.6355 51.4978 81.9297 50.3945 84.6931 50.3945C88.0938 50.3945 90.1736 52.0062 90.9789 54.7154C92.8501 51.6654 95.2254 50.3945 98.2032 50.3945C102.751 50.3945 104.918 53.277 104.918 57.7249V66.072C104.918 67.4295 105.387 69.0816 106.105 70.4795C106.83 72.0449 106.447 72.8941 104.918 72.9345H96.0365C94.4665 72.8941 94.1247 72.0449 94.8489 70.4795C95.573 69.0816 96.0365 67.4295 96.0365 66.072V59.9316C96.0365 57.6036 95.0169 55.992 93.7423 55.992C92.7632 55.992 91.9174 56.8816 91.3612 58.1928V66.072C91.3612 67.4295 91.8711 69.0816 92.5952 70.4795C93.2731 72.0449 92.937 72.8941 91.3612 72.9345H82.5264C80.9564 72.8941 80.6146 72.0449 81.3387 70.4795C82.0166 69.0816 82.5264 67.4295 82.5264 66.072V59.9316C82.5264 57.6036 81.5068 55.992 80.1917 55.992C79.2589 55.992 78.4073 56.8816 77.8569 58.1928V66.072C77.8569 67.4295 78.3668 69.0816 79.0446 70.4795C79.7687 72.0449 79.4269 72.8941 77.8569 72.9345H68.9757C67.4463 72.8941 67.1045 72.0449 67.7881 70.4795C68.5123 69.0816 68.9757 67.4295 68.9757 66.072V58.9958C68.9757 57.6383 68.5065 55.9862 67.7881 54.5883C67.1103 53.0228 67.4926 52.4683 68.9757 52.1333L75.6439 50.822C76.959 50.5678 77.8511 51.7116 77.8511 53.0229V54.08Z" fill="#B96645"/>
<path d="M118.086 54.1666C119.998 51.4978 122.419 50.3945 124.841 50.3945C128.027 50.3945 130.067 52.3008 130.576 54.3341C131.214 56.6621 129.899 59.2037 127.431 59.8391C127.048 59.9258 126.666 59.9662 126.243 59.9662C124.586 59.9662 122.842 59.2904 122.761 57.6787C122.721 56.6621 121.997 55.9862 120.977 55.9862C119.83 55.9862 118.642 56.8758 118.086 58.1871V66.0662C118.086 67.4237 118.596 69.0758 119.274 70.4737C119.998 72.0392 119.656 72.8883 118.086 72.9287H109.205C107.675 72.8883 107.334 72.0392 108.017 70.4737C108.741 69.0758 109.205 67.4237 109.205 66.0662V58.99C109.205 57.6325 108.736 55.9804 108.017 54.5825C107.339 53.0171 107.722 52.4625 109.205 52.1275L115.873 50.8162C117.188 50.5621 118.08 51.7058 118.08 53.0171V54.1608L118.086 54.1666Z" fill="#B96645"/>
<path d="M156.067 66.0659C156.067 67.4234 156.577 69.0755 157.255 70.4734C157.979 72.0389 157.597 72.9284 156.067 72.9284H149.44C148.078 72.9284 147.232 72.0389 147.232 70.7276V69.4972C145.28 72.2064 142.731 73.3501 140.008 73.3501C135.547 73.3501 132.784 70.4272 132.784 66.0197V58.9897C132.784 57.6322 132.314 55.9801 131.596 54.5822C130.918 53.0168 131.254 52.1676 132.784 52.1272L139.452 50.8159C140.767 50.5618 141.659 51.7055 141.659 53.0168V63.8189C141.659 66.1468 142.679 67.7585 144.295 67.7585C145.1 67.7585 146.462 67.3368 147.227 65.5114V58.9897C147.227 57.6322 146.717 55.9801 145.993 54.5822C145.315 53.0168 145.651 52.1676 147.227 52.1272L153.854 50.8159C155.169 50.5618 156.061 51.7055 156.061 53.0168V66.0659H156.067Z" fill="#B96645"/>
<path d="M180.243 63.7787C180.84 63.9058 181.135 64.3737 180.753 65.9392C179.646 70.1329 175.614 73.3504 170.429 73.3504C164.311 73.3504 158.703 68.8621 158.703 61.8725C158.703 54.8829 164.311 50.3945 171.536 50.3945C175.573 50.3945 179.652 51.7925 180.585 54.8829C181.349 57.5112 179.606 60.0529 177.016 60.4341C174.253 60.902 172.769 58.5279 173.106 55.5645C173.36 53.2366 172.341 53.0229 171.704 53.0229C169.282 53.0229 167.793 55.8591 167.793 60.307C167.793 64.755 169.409 67.6374 173.187 67.6374C175.185 67.6374 177.433 66.8749 178.667 64.8416C179.177 63.9116 179.727 63.6574 180.237 63.7845L180.243 63.7787Z" fill="#B96645"/>
<path d="M193.156 53.4847H191.331C186.146 53.4847 186.106 58.2272 184.026 59.2439C183.812 59.3305 183.603 59.4114 183.389 59.4114C182.751 59.4114 182.242 58.8626 182.242 57.7189V52.0001C182.242 51.278 182.751 50.8159 183.429 50.8159H201.823C203.648 50.8159 204.332 51.873 203.648 53.0168L193.707 70.2597H195.491C200.676 70.2597 200.717 65.471 202.796 64.4543C203.011 64.3676 203.219 64.3272 203.434 64.3272C204.071 64.3272 204.581 64.8355 204.581 66.0197V71.7385C204.581 72.4143 204.112 72.9227 203.393 72.9227H185.04C183.255 72.9227 182.618 71.7385 183.296 70.5485L193.151 53.4789L193.156 53.4847Z" fill="#B96645"/>
<path d="M227.314 63.7787C227.911 63.9058 228.206 64.3737 227.824 65.9392C226.717 70.1329 222.685 73.3504 217.5 73.3504C211.382 73.3504 205.774 68.8621 205.774 61.8725C205.774 54.8829 211.382 50.3945 217.969 50.3945C222.645 50.3945 228.42 52.5954 228.42 57.0895C228.42 61.1158 223.919 64.8416 215.548 64.3737C216.312 66.4937 217.842 67.6374 220.263 67.6374C222.262 67.6374 224.51 66.8749 225.744 64.8416C226.254 63.9116 226.804 63.6574 227.314 63.7845V63.7787ZM220.431 57.2166C220.431 54.2533 219.197 53.0229 217.923 53.0229C215.924 53.0229 214.864 55.8591 214.864 59.9258C214.864 60.8154 214.951 61.6183 215.032 62.3404C218.896 62.4675 220.426 60.6016 220.426 57.2166H220.431Z" fill="#B96645"/>
<path d="M240.227 54.207C242.18 51.5383 244.729 50.3945 247.452 50.3945C251.913 50.3945 254.63 53.277 254.63 57.7249V66.072C254.63 67.4295 255.139 69.0816 255.817 70.4795C256.541 72.0449 256.2 72.8941 254.63 72.9345H245.795C244.225 72.8941 243.883 72.0449 244.561 70.4795C245.285 69.0816 245.795 67.4295 245.795 66.072V59.9316C245.795 57.6036 244.775 55.992 243.159 55.992C242.354 55.992 240.992 56.3732 240.227 58.1928V66.072C240.227 67.4295 240.737 69.0816 241.415 70.4795C242.139 72.0449 241.797 72.8941 240.227 72.9345H231.346C229.817 72.8941 229.475 72.0449 230.158 70.4795C230.883 69.0816 231.346 67.4295 231.346 66.072V58.9958C231.346 57.6383 230.877 55.9862 230.158 54.5883C229.481 53.0228 229.863 52.4683 231.346 52.1333L238.014 50.822C239.329 50.5678 240.222 51.7116 240.222 53.0229V54.207H240.227Z" fill="#B96645"/>
<path d="M267.757 66.0659C267.757 67.4234 268.267 69.0755 268.945 70.4734C269.669 72.0389 269.327 72.888 267.757 72.9284H258.876C257.347 72.888 257.005 72.0389 257.689 70.4734C258.413 69.0755 258.876 67.4234 258.876 66.0659V58.9897C258.876 57.6322 258.407 55.9801 257.689 54.5822C257.011 53.0168 257.393 52.4622 258.876 52.1272L265.544 50.8159C266.859 50.5618 267.752 51.7055 267.752 53.0168V66.0659H267.757Z" fill="#B96645"/>
<path d="M279.02 56.0266C279.188 57.8924 277.959 60.434 275.109 60.0066C272.647 59.6253 271.158 57.3783 271.755 55.0503C272.861 50.8161 279.784 50.3887 283.185 50.3887C287.687 50.3887 293.086 51.1512 293.086 57.2107V66.742C293.086 68.1804 293.254 69.0699 294.106 69.0699C294.998 69.0699 295.166 68.0128 295.722 68.3479C296.191 68.6887 296.017 69.4512 295.635 70.2541C294.656 72.2008 292.831 73.3446 290.114 73.3446C287.733 73.3446 285.867 72.4145 284.929 70.4621C283.313 72.4088 281.146 73.3446 278.006 73.3446C273.377 73.3446 270.446 71.2708 270.446 67.8395C270.446 61.9071 278.985 59.7062 284.251 58.857V56.9912C284.251 54.6171 283.573 53.0112 282.044 53.0112C281.152 53.0112 278.898 53.6062 279.025 56.0208L279.02 56.0266ZM279.483 66.6611C279.483 68.3132 280.375 69.3703 281.563 69.3703C283.006 69.3703 284.239 67.7182 284.239 66.9153V61.5778C281.308 62.3403 279.483 64.2061 279.483 66.6611Z" fill="#B96645"/>
<path d="M266.089 45.0801C265.869 46.1892 264.328 47.8817 263.175 49.0254C262.439 49.7533 261.28 49.8168 260.469 49.1814C259.114 48.1243 257.202 46.5877 256.825 46.0563C256.234 45.2187 256.426 43.4164 258.268 42.7232C260.11 42.0301 261.083 43.3413 261.083 43.3413C261.083 43.3413 262.167 42.0012 263.928 42.0589C265.689 42.1167 266.46 43.2662 266.095 45.0801H266.089Z" fill="#F79C80"/>
<path d="M39.7539 1.0109C19.8247 -2.85937 10.7813 5.00825 5.08643 14.1756C0.596581 21.4078 -0.110208 29.7318 0.0114521 34.7978C0.167873 41.3079 2.27086 46.8534 5.57887 52.497C9.14758 58.5913 16.482 66.4415 23.3239 72.2123C25.7166 74.2283 31.9502 76.0826 36.5444 73.3387C45.2634 68.1283 49.3245 64.4949 54.6776 59.1285C58.4664 55.3275 63.3328 47.9913 65.4822 40.9209C70.9859 18.9759 62.8636 5.49348 39.7539 1.0109ZM52.1459 48.0491C47.6502 54.8769 37.3728 61.312 28.5437 60.1567C22.2522 59.3306 8.61459 46.1775 9.25765 35.4332C9.26344 27.0226 13.6838 19.4611 16.8412 11.9805C17.1366 11.2873 17.6117 10.6519 18.0867 10.0627C19.5467 8.23732 21.0993 7.9716 22.565 9.79121C24.4247 12.0903 24.4478 14.5106 25.8904 17.1101C25.9657 17.2429 26.0468 17.3642 26.1337 17.4798C25.6065 17.5549 25.0851 17.6415 24.5637 17.7513C24.0886 17.8495 23.7353 18.1556 23.5846 18.6004C23.4166 19.0972 23.5499 19.6864 23.9148 20.0965C24.2509 20.472 24.7317 20.6337 25.2357 20.5298C31.4346 19.2531 37.9464 20.5298 45.1591 24.4347C45.3734 24.5502 45.5994 24.608 45.8195 24.608C46.312 24.608 46.787 24.3307 47.0593 23.8397C47.4417 23.135 47.2157 22.3263 46.5321 21.9508C46.0223 21.6735 45.5183 21.4136 45.02 21.1652C45.4719 20.9052 45.9238 20.5067 46.5495 19.981C48.4439 18.404 49.8807 16.7115 51.0336 15.9316C53.3393 14.3662 55.6856 15.6948 55.9174 18.3924C56.7864 28.5707 58.0203 39.1475 52.1401 48.0664L52.1459 48.0491Z" fill="#B96645"/>
<path d="M46.1325 35.6699C45.2983 35.4273 44.4177 35.9126 44.1801 36.7444C43.7109 38.3618 41.1097 39.546 38.4969 39.3265C35.8319 39.1012 33.1844 37.5069 32.1995 35.5255C31.9735 35.0692 31.5332 34.7457 31.0292 34.6706C30.5194 34.5897 30.0096 34.763 29.6504 35.1327C28.7351 36.0801 27.0492 36.5595 25.5487 36.2996C24.0424 36.0396 22.9707 34.971 23.0112 34.4049C23.0749 33.5384 22.4203 32.7817 21.5513 32.7181C20.6881 32.6546 19.9234 33.3073 19.8596 34.1738C19.6858 36.5364 21.9916 38.8817 25.0041 39.4016C26.8696 39.7251 28.822 39.3727 30.3804 38.4889C32.1647 40.6666 35.1077 42.1974 38.2188 42.4574C38.52 42.4805 38.8155 42.492 39.111 42.492C42.9172 42.492 46.3758 40.4529 47.1985 37.6109C47.4418 36.7733 46.9552 35.9068 46.1209 35.6642L46.1325 35.6699Z" fill="#B96645"/>
<path d="M35.6581 32.1288C35.2642 32.7642 33.9896 33.4516 32.9179 33.9484C32.0025 34.3701 30.9134 34.064 30.3572 33.2264C29.6678 32.1808 28.8335 30.858 28.7061 30.4421C28.4917 29.7085 29.0769 28.5185 30.5889 28.5127C32.0952 28.5069 32.4718 29.6565 32.4718 29.6565C32.4718 29.6565 33.5899 29.0095 34.847 29.5005C36.1042 29.9915 36.3707 30.9793 35.6523 32.1404L35.6581 32.1288Z" fill="#F79C80"/>
<path d="M84.6641 89.2993C84.5946 90.108 84.5193 90.9398 84.4266 91.7832C84.3339 92.6265 84.2122 93.4179 84.0616 94.1631C84.0211 94.3422 83.9689 94.475 83.9052 94.5501C83.8357 94.6252 83.743 94.6772 83.6155 94.7061C83.5112 94.7234 83.3664 94.6945 83.181 94.6079C82.9956 94.5212 82.8392 94.3999 82.7176 94.2382C82.5553 94.0187 82.3815 93.7761 82.1962 93.5161C82.0108 93.2562 81.808 92.9847 81.5936 92.7132C81.3793 92.4417 81.1533 92.1702 80.9216 91.9045C80.6899 91.6388 80.4408 91.3904 80.1801 91.1593C80.1511 91.7889 80.1279 92.4128 80.1105 93.0251C80.0932 93.6374 80.0932 94.2555 80.1105 94.8794C80.1105 94.966 80.0352 95.0065 79.8788 95.0065C79.6992 95.0065 79.5486 94.914 79.4327 94.7292C79.3169 94.5443 79.2531 94.3537 79.2299 94.1631C79.201 93.9725 79.1894 93.701 79.1894 93.3428C79.1894 92.9847 79.1952 92.6092 79.2126 92.2222C79.2299 91.8294 79.2415 91.4539 79.2647 91.09C79.2821 90.7261 79.3053 90.443 79.3226 90.2293C79.34 89.9982 79.398 89.8365 79.4849 89.7267C79.5776 89.6227 79.6645 89.5765 79.7514 89.5823C79.9425 89.5996 80.07 89.6574 80.1337 89.7441C80.1974 89.8365 80.2322 89.9462 80.2438 90.0791C80.5856 90.3275 80.9042 90.5932 81.1997 90.882C81.4952 91.1709 81.7617 91.4597 82.005 91.7543C82.2483 92.0489 82.4742 92.3435 82.677 92.6323C82.8798 92.9211 83.0767 93.1869 83.2563 93.4237C83.3722 92.8518 83.4649 92.2106 83.5344 91.5059C83.6039 90.8012 83.6793 90.0618 83.7546 89.2877C83.743 89.1953 83.8009 89.1029 83.9284 89.0104C84.05 88.918 84.1659 88.8776 84.2702 88.8891C84.5367 88.9065 84.6699 89.0393 84.6699 89.2877L84.6641 89.2993Z" fill="#F79C80" stroke="#F79C80" stroke-width="0.54" stroke-miterlimit="10"/>
<path d="M88.4124 95.1623C88.3661 95.324 88.3023 95.4685 88.227 95.5955C88.1517 95.7226 88.0706 95.7977 87.9837 95.815C87.8041 95.8612 87.6651 95.8324 87.5666 95.7284C87.4681 95.6244 87.4333 95.4916 87.4507 95.3298C87.526 94.7579 87.6535 94.1572 87.8215 93.5218C87.9953 92.8863 88.1923 92.2509 88.424 91.6213C88.6557 90.9859 88.9049 90.3736 89.1771 89.7786C89.4494 89.1836 89.7275 88.6406 90.0172 88.1554C90.0635 88.0803 90.1215 88.0341 90.1794 88.0225C90.2431 88.0052 90.2953 88.011 90.3416 88.0283C90.388 87.9879 90.4459 87.959 90.5154 87.9301C90.5849 87.9012 90.6487 87.8896 90.7182 87.8896C90.7471 87.8896 90.7761 87.8897 90.8109 87.9012C90.8456 87.9128 90.8804 87.9416 90.9209 87.9879C90.9615 88.0341 91.0021 88.1034 91.0542 88.1958C91.1063 88.2882 91.1701 88.4153 91.2454 88.5886C91.3786 89.0738 91.535 89.5764 91.7146 90.0905C91.8884 90.6046 92.0738 91.1187 92.265 91.6328C92.294 91.6213 92.3229 91.6155 92.3461 91.6097C92.3693 91.604 92.3982 91.5982 92.4272 91.5866C92.5315 91.5751 92.6532 91.5866 92.7864 91.5982C92.9197 91.6155 93.0124 91.6848 93.0587 91.8004C93.1166 91.9448 93.105 92.0661 93.0297 92.1701C92.9544 92.274 92.8154 92.378 92.6126 92.4878C92.7343 92.7939 92.8617 93.0885 92.9834 93.3831C93.105 93.6777 93.2383 93.955 93.3715 94.2323C93.3831 94.2785 93.3947 94.3536 93.4121 94.4518C93.4295 94.55 93.4411 94.654 93.4469 94.7522C93.4469 94.8504 93.4468 94.9428 93.4237 95.0294C93.4063 95.1161 93.3657 95.1738 93.3078 95.2027C93.2383 95.2316 93.1688 95.2258 93.0992 95.1912C93.0297 95.1565 92.9602 95.1045 92.8907 95.041C92.8212 94.9774 92.7632 94.9139 92.7111 94.8388C92.659 94.7637 92.6184 94.7002 92.5894 94.6482C92.4272 94.3363 92.2708 94.0185 92.126 93.6951C91.9753 93.3773 91.8363 93.0539 91.703 92.7304C91.3033 92.8055 90.863 92.8748 90.388 92.9326C89.9129 92.9903 89.4494 93.0308 88.9918 93.0481C88.8875 93.412 88.7832 93.7644 88.6847 94.1167C88.5862 94.4691 88.4935 94.8157 88.4066 95.1681L88.4124 95.1623ZM90.4459 89.1547C90.0056 90.1367 89.6232 91.1187 89.2988 92.1007C89.9419 92.0834 90.6255 92.0025 91.3496 91.8581C91.0078 90.9916 90.7066 90.0905 90.4459 89.1547Z" fill="#F79C80" stroke="#F79C80" stroke-width="0.54" stroke-miterlimit="10"/>
<path d="M102.282 89.4552C101.297 89.409 100.353 89.4841 99.443 89.6863C98.5334 89.8885 97.6355 90.16 96.7433 90.5008C96.5115 90.5874 96.3377 90.5759 96.2219 90.4719C96.1002 90.3679 96.0423 90.264 96.0423 90.16C96.1118 89.9809 96.2277 89.8307 96.4015 89.7152C98.3596 88.7621 100.324 88.4097 102.282 88.6581C102.374 88.687 102.456 88.7563 102.519 88.866C102.583 88.9758 102.6 89.0682 102.583 89.1433C102.566 89.2415 102.537 89.3166 102.496 89.3801C102.456 89.4437 102.386 89.4668 102.282 89.461V89.4552ZM100.242 94.4462C100.242 94.5501 100.208 94.6426 100.132 94.7234C100.063 94.8043 99.9702 94.8563 99.8659 94.8736C99.6747 94.9025 99.5531 94.8736 99.4951 94.7754C99.4372 94.6772 99.4024 94.5675 99.3966 94.4462C99.385 93.7761 99.3735 93.1118 99.3619 92.4533C99.3445 91.789 99.3155 91.1247 99.2692 90.4604C99.2692 90.4199 99.2692 90.3795 99.2518 90.3217C99.2402 90.2697 99.2402 90.2177 99.2518 90.1658C99.2634 90.1138 99.2808 90.0676 99.3155 90.0329C99.3503 89.9982 99.4024 89.9636 99.4777 89.9462C99.6979 89.9058 99.8543 89.9462 99.9528 90.056C100.051 90.1658 100.098 90.2755 100.098 90.3795C100.173 91.0669 100.219 91.7485 100.242 92.4244C100.26 93.1002 100.26 93.7761 100.242 94.4577V94.4462Z" fill="#F79C80" stroke="#F79C80" stroke-width="0.54" stroke-miterlimit="10"/>
<path d="M106.1 95.1623C106.053 95.324 105.989 95.4685 105.914 95.5955C105.839 95.7226 105.758 95.7977 105.671 95.815C105.491 95.8612 105.352 95.8324 105.254 95.7284C105.155 95.6244 105.12 95.4916 105.138 95.3298C105.213 94.7579 105.341 94.1572 105.509 93.5218C105.682 92.8863 105.879 92.2509 106.111 91.6213C106.343 90.9859 106.592 90.3736 106.864 89.7786C107.137 89.1836 107.415 88.6406 107.704 88.1554C107.751 88.0803 107.809 88.0341 107.867 88.0225C107.93 88.0052 107.982 88.011 108.029 88.0283C108.075 87.9879 108.133 87.959 108.203 87.9301C108.272 87.9012 108.336 87.8896 108.405 87.8896C108.434 87.8896 108.463 87.8897 108.498 87.9012C108.533 87.9128 108.568 87.9416 108.608 87.9879C108.649 88.0341 108.689 88.1034 108.741 88.1958C108.793 88.2882 108.857 88.4153 108.932 88.5886C109.066 89.0738 109.222 89.5764 109.402 90.0905C109.576 90.6046 109.761 91.1187 109.952 91.6328C109.981 91.6213 110.01 91.6155 110.033 91.6097C110.056 91.604 110.085 91.5982 110.114 91.5866C110.219 91.5751 110.34 91.5866 110.474 91.5982C110.607 91.6155 110.699 91.6848 110.746 91.8004C110.804 91.9448 110.792 92.0661 110.717 92.1701C110.642 92.274 110.502 92.378 110.3 92.4878C110.421 92.7939 110.549 93.0885 110.671 93.3831C110.792 93.6777 110.925 93.955 111.059 94.2323C111.07 94.2785 111.082 94.3536 111.099 94.4518C111.117 94.55 111.128 94.654 111.134 94.7522C111.134 94.8504 111.134 94.9428 111.111 95.0294C111.093 95.1161 111.053 95.1738 110.995 95.2027C110.925 95.2316 110.856 95.2258 110.786 95.1912C110.717 95.1565 110.647 95.1045 110.578 95.041C110.508 94.9774 110.45 94.9139 110.398 94.8388C110.346 94.7637 110.306 94.7002 110.277 94.6482C110.114 94.3363 109.958 94.0185 109.813 93.6951C109.662 93.3773 109.523 93.0539 109.39 92.7304C108.99 92.8055 108.55 92.8748 108.075 92.9326C107.6 92.9903 107.137 93.0308 106.679 93.0481C106.575 93.412 106.47 93.7644 106.372 94.1167C106.273 94.4691 106.181 94.8157 106.094 95.1681L106.1 95.1623ZM108.133 89.1547C107.693 90.1367 107.31 91.1187 106.986 92.1007C107.629 92.0834 108.313 92.0025 109.037 91.8581C108.695 90.9916 108.394 90.0905 108.133 89.1547Z" fill="#F79C80" stroke="#F79C80" stroke-width="0.54" stroke-miterlimit="10"/>
<path d="M115.433 89.3971C115.386 89.7321 115.34 90.1018 115.305 90.5062C115.265 90.9105 115.23 91.3207 115.189 91.7366C115.149 92.1525 115.114 92.5568 115.079 92.9439C115.044 93.3367 115.021 93.6775 114.998 93.9721C115.323 93.9143 115.682 93.8508 116.081 93.7699C116.475 93.6948 116.881 93.614 117.292 93.5331C117.704 93.4522 118.109 93.3829 118.503 93.3194C118.897 93.2558 119.262 93.2096 119.586 93.1865C119.615 93.1865 119.65 93.198 119.685 93.2154C119.76 93.2558 119.801 93.3136 119.801 93.4002C119.801 93.5215 119.778 93.6197 119.731 93.6775C119.685 93.741 119.627 93.7873 119.558 93.8219C119.488 93.8566 119.418 93.8855 119.349 93.9143C119.279 93.9432 119.21 93.9837 119.158 94.0414C118.862 94.1165 118.538 94.1974 118.184 94.284C117.831 94.3707 117.466 94.4573 117.095 94.544C116.725 94.6306 116.348 94.7173 115.977 94.8039C115.606 94.8906 115.253 94.9772 114.929 95.0639C114.633 95.139 114.407 95.087 114.257 94.9079C114.106 94.7288 114.042 94.4284 114.071 94.0241C114.118 93.25 114.175 92.476 114.245 91.7019C114.315 90.9279 114.396 90.148 114.488 89.3798C114.506 89.218 114.564 89.0852 114.651 88.9812C114.743 88.8772 114.853 88.8137 114.987 88.7963C115.207 88.7675 115.34 88.8252 115.381 88.9581C115.421 89.0967 115.438 89.2469 115.433 89.4086V89.3971Z" fill="#F79C80" stroke="#F79C80" stroke-width="0.54" stroke-miterlimit="10"/>
<path d="M124.013 93.9319C124.024 93.9723 124.03 94.0243 124.03 94.0936C124.03 94.1629 124.013 94.238 123.989 94.3073C123.96 94.3767 123.92 94.4402 123.868 94.4922C123.816 94.5442 123.74 94.5731 123.648 94.5731C123.439 94.4402 123.259 94.2611 123.115 94.0416C123.039 93.7528 122.97 93.4293 122.906 93.0538C122.842 92.6841 122.796 92.2914 122.755 91.887C122.715 91.4826 122.692 91.0667 122.674 90.6508C122.657 90.2349 122.657 89.8248 122.669 89.4377C122.669 89.3684 122.674 89.2876 122.692 89.1778C122.703 89.0738 122.732 88.9699 122.773 88.8717C122.813 88.7734 122.86 88.6868 122.918 88.6117C122.976 88.5424 123.057 88.502 123.161 88.502C123.283 88.502 123.387 88.5424 123.462 88.6175C123.538 88.6926 123.578 88.8197 123.578 88.9872C123.567 89.3684 123.572 89.7786 123.584 90.2118C123.595 90.645 123.624 91.0841 123.665 91.5231C123.706 91.9621 123.752 92.3895 123.816 92.8055C123.879 93.2214 123.949 93.5968 124.024 93.9261L124.013 93.9319Z" fill="#F79C80" stroke="#F79C80" stroke-width="0.54" stroke-miterlimit="10"/>
<path d="M128.016 95.1623C127.969 95.324 127.906 95.4685 127.83 95.5955C127.755 95.7226 127.674 95.7977 127.587 95.815C127.408 95.8612 127.268 95.8324 127.17 95.7284C127.071 95.6244 127.037 95.4916 127.054 95.3298C127.129 94.7579 127.257 94.1572 127.425 93.5218C127.599 92.8863 127.796 92.2509 128.027 91.6213C128.259 90.9859 128.508 90.3736 128.781 89.7786C129.053 89.1836 129.331 88.6406 129.621 88.1554C129.667 88.0803 129.725 88.0341 129.783 88.0225C129.847 88.0052 129.899 88.011 129.945 88.0283C129.991 87.9879 130.049 87.959 130.119 87.9301C130.188 87.9012 130.252 87.8896 130.322 87.8896C130.351 87.8896 130.38 87.8897 130.414 87.9012C130.449 87.9128 130.484 87.9416 130.524 87.9879C130.565 88.0341 130.605 88.1034 130.658 88.1958C130.71 88.2882 130.773 88.4153 130.849 88.5886C130.982 89.0738 131.138 89.5764 131.318 90.0905C131.492 90.6046 131.677 91.1187 131.868 91.6328C131.897 91.6213 131.926 91.6155 131.949 91.6097C131.973 91.604 132.002 91.5982 132.031 91.5866C132.135 91.5751 132.257 91.5866 132.39 91.5982C132.523 91.6155 132.616 91.6848 132.662 91.8004C132.72 91.9448 132.708 92.0661 132.633 92.1701C132.558 92.274 132.419 92.378 132.216 92.4878C132.338 92.7939 132.465 93.0885 132.587 93.3831C132.708 93.6777 132.842 93.955 132.975 94.2323C132.987 94.2785 132.998 94.3536 133.015 94.4518C133.033 94.55 133.044 94.654 133.05 94.7522C133.05 94.8504 133.05 94.9428 133.027 95.0294C133.01 95.1161 132.969 95.1738 132.911 95.2027C132.842 95.2316 132.772 95.2258 132.703 95.1912C132.633 95.1565 132.564 95.1045 132.494 95.041C132.425 94.9774 132.367 94.9139 132.314 94.8388C132.262 94.7637 132.222 94.7002 132.193 94.6482C132.031 94.3363 131.874 94.0185 131.729 93.6951C131.579 93.3773 131.44 93.0539 131.306 92.7304C130.907 92.8055 130.466 92.8748 129.991 92.9326C129.516 92.9903 129.053 93.0308 128.595 93.0481C128.491 93.412 128.387 93.7644 128.288 94.1167C128.19 94.4691 128.097 94.8157 128.01 95.1681L128.016 95.1623ZM130.049 89.1547C129.609 90.1367 129.227 91.1187 128.902 92.1007C129.545 92.0834 130.229 92.0025 130.953 91.8581C130.611 90.9916 130.31 90.0905 130.049 89.1547Z" fill="#F79C80" stroke="#F79C80" stroke-width="0.54" stroke-miterlimit="10"/>
<path d="M145.772 89.0564C145.732 89.1027 145.662 89.1431 145.564 89.1662C145.465 89.1893 145.361 89.1662 145.257 89.0853C145.182 89.0276 145.089 88.9698 144.985 88.9063C144.88 88.8427 144.764 88.785 144.643 88.7272C144.515 88.6694 144.394 88.6232 144.272 88.5828C144.15 88.5423 144.029 88.525 143.913 88.525C143.768 88.525 143.617 88.5597 143.461 88.6232C143.304 88.6867 143.165 88.7849 143.05 88.912C142.829 89.1489 142.748 89.3799 142.812 89.6052C142.876 89.8305 143.038 90.0385 143.304 90.2291C143.478 90.3562 143.664 90.4775 143.866 90.6103C144.069 90.7374 144.266 90.8645 144.463 90.9916C144.66 91.1187 144.846 91.2342 145.025 91.3497C145.199 91.4653 145.355 91.5635 145.489 91.6501C145.662 91.7656 145.825 91.8869 145.975 92.0198C146.126 92.1527 146.265 92.3029 146.375 92.4704C146.491 92.6379 146.584 92.8285 146.647 93.0365C146.717 93.2444 146.746 93.487 146.746 93.7528C146.676 94.2784 146.468 94.6943 146.12 95.0063C145.772 95.3182 145.367 95.5146 144.909 95.6012C144.51 95.6763 144.116 95.6648 143.727 95.5608C143.339 95.4568 143.015 95.2547 142.743 94.96C142.673 94.885 142.621 94.781 142.569 94.6423C142.522 94.5095 142.517 94.4113 142.557 94.3535C142.615 94.2669 142.714 94.2091 142.858 94.1744C143.003 94.1398 143.113 94.1456 143.189 94.1976C143.409 94.3997 143.669 94.5441 143.965 94.6366C144.26 94.729 144.573 94.7348 144.898 94.6597C145.147 94.6019 145.344 94.4979 145.5 94.3362C145.651 94.1802 145.749 94.0011 145.79 93.799C145.836 93.591 145.813 93.3715 145.709 93.1462C145.604 92.9209 145.431 92.7188 145.17 92.5397C144.776 92.2451 144.359 91.9678 143.913 91.7079C143.467 91.4479 143.015 91.1533 142.557 90.8241C142.337 90.6334 142.175 90.4255 142.076 90.1944C141.978 89.9634 141.926 89.7438 141.926 89.5243C141.926 89.3048 141.972 89.0796 142.071 88.8716C142.169 88.6694 142.302 88.4788 142.47 88.3113C142.644 88.1438 142.841 88.0109 143.073 87.9011C143.304 87.7972 143.554 87.7336 143.832 87.7163C144.214 87.699 144.585 87.7741 144.938 87.9531C145.292 88.1322 145.581 88.3459 145.801 88.6059C145.848 88.6636 145.871 88.733 145.865 88.8196C145.865 88.9063 145.83 88.9871 145.772 89.0622V89.0564Z" fill="#F79C80" stroke="#F79C80" stroke-width="0.54" stroke-miterlimit="10"/>
<path d="M152.197 90.9281C152.406 90.6797 152.609 90.4371 152.8 90.2003C152.991 89.9634 153.165 89.7324 153.333 89.5129C153.182 89.5129 152.968 89.5244 152.701 89.5533C152.435 89.5822 152.151 89.6226 151.85 89.6688C151.548 89.715 151.259 89.767 150.975 89.8132C150.691 89.8595 150.459 89.9057 150.28 89.9403C150.233 89.9519 150.17 89.9461 150.089 89.9346C150.007 89.9172 149.926 89.8999 149.851 89.871C149.776 89.8421 149.706 89.8017 149.648 89.7497C149.59 89.6977 149.561 89.6399 149.561 89.588C149.561 89.484 149.625 89.38 149.752 89.2818C149.88 89.1836 150.013 89.1085 150.146 89.0623C150.28 89.0161 150.459 88.9641 150.691 88.9063C150.923 88.8486 151.178 88.7966 151.467 88.7504C151.757 88.7042 152.058 88.6579 152.371 88.6233C152.684 88.5886 152.997 88.554 153.304 88.5366C153.425 88.5251 153.547 88.5482 153.669 88.5944C153.79 88.6406 153.895 88.7042 153.982 88.785C154.069 88.8659 154.15 88.9525 154.213 89.0507C154.277 89.1489 154.318 89.2414 154.335 89.3396C154.364 89.5706 154.289 89.7959 154.103 90.027C153.999 90.1598 153.883 90.2985 153.767 90.4429C153.646 90.5873 153.524 90.7375 153.385 90.8992C152.638 91.7657 151.207 93.6373 150.946 93.9897C151.299 93.9781 156.38 93.8395 156.426 93.9319C156.444 94.007 156.426 94.111 156.369 94.2438C156.311 94.3767 156.189 94.4749 156.009 94.5327C155.639 94.5789 155.216 94.6309 154.752 94.6771C154.289 94.7233 153.814 94.7695 153.327 94.8042C152.84 94.8446 152.354 94.8735 151.879 94.8966C151.404 94.9197 150.963 94.937 150.575 94.9486C150.326 94.937 150.141 94.9081 150.025 94.8619C149.903 94.8157 149.816 94.7464 149.758 94.6597C149.671 94.5442 149.642 94.4171 149.671 94.2727C149.7 94.1283 149.747 94.0128 149.816 93.9319C150.025 93.6257 150.257 93.3196 150.5 93.0019C150.743 92.6842 150.998 92.3722 151.265 92.0603C151.16 92.0776 152.018 91.1476 152.197 90.9454V90.9281Z" fill="#F79C80" stroke="#F79C80" stroke-width="0.54" stroke-miterlimit="10"/>
<path d="M159.902 95.1623C159.856 95.324 159.792 95.4685 159.717 95.5955C159.642 95.7226 159.561 95.7977 159.474 95.815C159.294 95.8612 159.155 95.8324 159.057 95.7284C158.958 95.6244 158.923 95.4916 158.941 95.3298C159.016 94.7579 159.144 94.1572 159.312 93.5218C159.485 92.8863 159.682 92.2509 159.914 91.6213C160.146 90.9859 160.395 90.3736 160.667 89.7786C160.939 89.1836 161.218 88.6406 161.507 88.1554C161.554 88.0803 161.611 88.0341 161.669 88.0225C161.733 88.0052 161.785 88.011 161.832 88.0283C161.878 87.9879 161.936 87.959 162.005 87.9301C162.075 87.9012 162.139 87.8896 162.208 87.8896C162.237 87.8896 162.266 87.8897 162.301 87.9012C162.336 87.9128 162.37 87.9416 162.411 87.9879C162.452 88.0341 162.492 88.1034 162.544 88.1958C162.596 88.2882 162.66 88.4153 162.735 88.5886C162.869 89.0738 163.025 89.5764 163.205 90.0905C163.378 90.6046 163.564 91.1187 163.755 91.6328C163.784 91.6213 163.813 91.6155 163.836 91.6097C163.859 91.604 163.888 91.5982 163.917 91.5866C164.022 91.5751 164.143 91.5866 164.276 91.5982C164.41 91.6155 164.502 91.6848 164.549 91.8004C164.607 91.9448 164.595 92.0661 164.52 92.1701C164.444 92.274 164.305 92.378 164.103 92.4878C164.224 92.7939 164.352 93.0885 164.473 93.3831C164.595 93.6777 164.728 93.955 164.862 94.2323C164.873 94.2785 164.885 94.3536 164.902 94.4518C164.92 94.55 164.931 94.654 164.937 94.7522C164.937 94.8504 164.937 94.9428 164.914 95.0294C164.896 95.1161 164.856 95.1738 164.798 95.2027C164.728 95.2316 164.659 95.2258 164.589 95.1912C164.52 95.1565 164.45 95.1045 164.381 95.041C164.311 94.9774 164.253 94.9139 164.201 94.8388C164.149 94.7637 164.108 94.7002 164.079 94.6482C163.917 94.3363 163.761 94.0185 163.616 93.6951C163.465 93.3773 163.326 93.0539 163.193 92.7304C162.793 92.8055 162.353 92.8748 161.878 92.9326C161.403 92.9903 160.939 93.0308 160.482 93.0481C160.378 93.412 160.273 93.7644 160.175 94.1167C160.076 94.4691 159.984 94.8157 159.897 95.1681L159.902 95.1623ZM161.936 89.1547C161.496 90.1367 161.113 91.1187 160.789 92.1007C161.432 92.0834 162.116 92.0025 162.84 91.8581C162.498 90.9916 162.197 90.0905 161.936 89.1547Z" fill="#F79C80" stroke="#F79C80" stroke-width="0.54" stroke-miterlimit="10"/>
<path d="M171.049 93.5159C171.02 93.8278 170.933 94.0993 170.782 94.3246C170.632 94.5498 170.452 94.7232 170.232 94.856C170.012 94.9889 169.769 95.064 169.502 95.0928C169.236 95.1217 168.969 95.0928 168.714 95.0235C168.598 94.9946 168.477 94.9484 168.349 94.8791C168.222 94.8098 168.1 94.7347 167.99 94.6481C167.88 94.5614 167.793 94.4632 167.723 94.3535C167.654 94.2437 167.625 94.1224 167.637 93.9895C167.637 93.8856 167.689 93.7816 167.787 93.6834C167.886 93.5852 167.978 93.4928 168.065 93.4177C168.164 93.3599 168.268 93.3079 168.378 93.2617C168.494 93.2155 168.604 93.2444 168.708 93.3483C168.772 93.4696 168.789 93.591 168.743 93.7065C168.703 93.822 168.662 93.9202 168.633 94.0069C168.592 94.1108 168.645 94.1859 168.778 94.2206C168.911 94.261 169.068 94.2668 169.253 94.2495C169.543 94.2321 169.757 94.1397 169.896 93.9838C170.041 93.8278 170.134 93.6256 170.174 93.3888C170.215 93.1519 170.226 92.892 170.197 92.6089C170.168 92.3259 170.128 92.0544 170.081 91.7887C169.977 91.3034 169.803 90.8471 169.572 90.4139C169.34 89.9864 169.068 89.6051 168.76 89.2701C168.662 89.1661 168.604 89.0564 168.581 88.9466C168.558 88.8369 168.598 88.7271 168.703 88.6231C168.853 88.5192 168.986 88.4787 169.091 88.5076C169.195 88.5365 169.305 88.6 169.421 88.6925C169.977 89.2181 170.4 89.8824 170.695 90.6854C170.991 91.4941 171.107 92.4299 171.043 93.5101L171.049 93.5159Z" fill="#F79C80" stroke="#F79C80" stroke-width="0.54" stroke-miterlimit="10"/>
<path d="M179.235 92.1295C179.177 92.3952 179.073 92.6494 178.928 92.892C178.777 93.1346 178.609 93.3599 178.418 93.5736C178.227 93.7816 178.018 93.9664 177.792 94.1166C177.566 94.2668 177.34 94.3881 177.109 94.4748C176.686 94.625 176.269 94.677 175.852 94.625C175.434 94.573 175.064 94.3824 174.739 94.0589C174.519 93.7931 174.363 93.4928 174.276 93.1577C174.183 92.8227 174.143 92.4819 174.148 92.1353C174.148 91.7887 174.2 91.4537 174.293 91.1244C174.386 90.8009 174.502 90.5121 174.647 90.2521C174.82 89.946 175.023 89.6918 175.261 89.4954C175.498 89.2932 175.765 89.1777 176.049 89.1373C176.124 89.1199 176.188 89.1373 176.234 89.195C176.28 89.2528 176.303 89.3163 176.303 89.3972C176.402 89.3048 176.547 89.2297 176.75 89.1835C176.952 89.1373 177.172 89.1315 177.422 89.1719C177.879 89.2297 178.244 89.3683 178.511 89.5878C178.777 89.8073 178.98 90.0615 179.107 90.3503C179.235 90.6392 179.304 90.9453 179.31 91.263C179.316 91.5807 179.287 91.8696 179.229 92.1295H179.235ZM176.112 90.1539C175.921 90.2406 175.759 90.3677 175.631 90.5352C175.504 90.7027 175.4 90.8933 175.313 91.1013C175.232 91.3092 175.18 91.5345 175.156 91.7829C175.133 92.0255 175.127 92.2624 175.151 92.4934C175.18 92.8285 175.278 93.1 175.452 93.3137C175.626 93.5274 175.892 93.6372 176.257 93.6372C176.466 93.6372 176.674 93.5967 176.883 93.5159C177.086 93.435 177.277 93.3252 177.451 93.1924C177.624 93.0595 177.781 92.8978 177.926 92.7129C178.07 92.5281 178.186 92.3317 178.267 92.1353C178.314 92.0313 178.354 91.8985 178.383 91.7425C178.412 91.5865 178.424 91.4248 178.412 91.2573C178.401 91.0897 178.366 90.9338 178.296 90.7778C178.227 90.6276 178.123 90.4948 177.978 90.3908C177.775 90.2464 177.537 90.1597 177.259 90.1308C176.981 90.1019 176.692 90.1655 176.385 90.3157C176.327 90.3561 176.263 90.3619 176.193 90.3388C176.124 90.3157 176.095 90.2579 176.112 90.1597V90.1539Z" fill="#F79C80" stroke="#F79C80" stroke-width="0.54" stroke-miterlimit="10"/>
<path d="M190.758 89.6283C190.48 90.3446 190.155 91.0897 189.79 91.8696C189.42 92.6494 188.985 93.4177 188.475 94.1802C188.33 94.3997 188.168 94.5094 187.989 94.5094C187.873 94.5094 187.78 94.4806 187.699 94.4286C187.624 94.3766 187.554 94.3073 187.496 94.2206C187.247 93.8394 187.021 93.435 186.824 93.0076C186.621 92.5801 186.43 92.0949 186.239 91.5461C185.961 92.0313 185.654 92.5223 185.312 93.0191C184.97 93.5159 184.6 93.978 184.2 94.4055C184.124 94.4921 184.043 94.5499 183.962 94.5788C183.881 94.6076 183.817 94.6192 183.771 94.6076C183.568 94.5788 183.412 94.4575 183.296 94.238C182.943 93.5794 182.705 92.8574 182.578 92.066C182.45 91.2746 182.386 90.4659 182.375 89.6341C182.375 89.559 182.404 89.4839 182.462 89.403C182.52 89.3279 182.607 89.2933 182.717 89.3048C182.891 89.3164 183.024 89.3799 183.116 89.4954C183.215 89.6167 183.267 89.7612 183.29 89.9344C183.308 90.1713 183.331 90.4428 183.36 90.7432C183.389 91.0435 183.429 91.3497 183.476 91.6674C183.522 91.9793 183.586 92.2855 183.661 92.5801C183.736 92.8747 183.835 93.1346 183.951 93.3541C184.096 93.1751 184.246 92.9729 184.408 92.7534C184.571 92.5339 184.733 92.3028 184.889 92.066C185.046 91.8291 185.196 91.5865 185.341 91.3439C185.486 91.1013 185.613 90.8587 185.729 90.6219C185.805 90.4601 185.903 90.3561 186.019 90.3099C186.135 90.2637 186.227 90.2406 186.291 90.2406C186.581 90.2406 186.772 90.3792 186.882 90.6565C187.044 91.0551 187.207 91.4826 187.375 91.9273C187.543 92.3779 187.728 92.7996 187.925 93.1982C188.099 92.9325 188.273 92.6321 188.458 92.297C188.643 91.962 188.817 91.6212 188.991 91.2746C189.165 90.928 189.327 90.5756 189.483 90.2233C189.64 89.8709 189.785 89.5359 189.906 89.2239C189.953 89.1084 190.034 89.016 190.15 88.9351C190.265 88.86 190.387 88.8658 190.52 88.9524C190.625 89.0218 190.7 89.1257 190.74 89.2759C190.781 89.4261 190.787 89.5474 190.746 89.6398L190.758 89.6283Z" fill="#F79C80" stroke="#F79C80" stroke-width="0.54" stroke-miterlimit="10"/>
<path d="M197.525 89.0564C197.484 89.1027 197.414 89.1431 197.316 89.1662C197.217 89.1893 197.113 89.1662 197.009 89.0853C196.934 89.0276 196.841 88.9698 196.737 88.9063C196.632 88.8427 196.516 88.785 196.395 88.7272C196.267 88.6694 196.146 88.6232 196.024 88.5828C195.902 88.5423 195.781 88.525 195.665 88.525C195.52 88.525 195.369 88.5597 195.213 88.6232C195.057 88.6867 194.918 88.7849 194.802 88.912C194.581 89.1489 194.5 89.3799 194.564 89.6052C194.628 89.8305 194.79 90.0385 195.057 90.2291C195.23 90.3562 195.416 90.4775 195.619 90.6103C195.821 90.7374 196.018 90.8645 196.215 90.9916C196.412 91.1187 196.598 91.2342 196.777 91.3497C196.951 91.4653 197.107 91.5635 197.241 91.6501C197.414 91.7656 197.577 91.8869 197.727 92.0198C197.878 92.1527 198.017 92.3029 198.127 92.4704C198.243 92.6379 198.336 92.8285 198.399 93.0365C198.469 93.2444 198.498 93.487 198.498 93.7528C198.428 94.2784 198.22 94.6943 197.872 95.0063C197.525 95.3182 197.119 95.5146 196.661 95.6012C196.262 95.6763 195.868 95.6648 195.479 95.5608C195.091 95.4568 194.767 95.2547 194.495 94.96C194.425 94.885 194.373 94.781 194.321 94.6423C194.274 94.5095 194.269 94.4113 194.309 94.3535C194.367 94.2669 194.466 94.2091 194.61 94.1744C194.755 94.1398 194.865 94.1456 194.941 94.1976C195.161 94.3997 195.422 94.5441 195.717 94.6366C196.012 94.729 196.325 94.7348 196.65 94.6597C196.899 94.6019 197.096 94.4979 197.252 94.3362C197.403 94.1802 197.501 94.0011 197.542 93.799C197.588 93.591 197.565 93.3715 197.461 93.1462C197.357 92.9209 197.183 92.7188 196.922 92.5397C196.528 92.2451 196.111 91.9678 195.665 91.7079C195.219 91.4479 194.767 91.1533 194.309 90.8241C194.089 90.6334 193.927 90.4255 193.828 90.1944C193.73 89.9634 193.678 89.7438 193.678 89.5243C193.678 89.3048 193.724 89.0796 193.823 88.8716C193.921 88.6694 194.054 88.4788 194.222 88.3113C194.396 88.1438 194.593 88.0109 194.825 87.9011C195.057 87.7972 195.306 87.7336 195.584 87.7163C195.966 87.699 196.337 87.7741 196.69 87.9531C197.044 88.1322 197.333 88.3459 197.553 88.6059C197.6 88.6636 197.623 88.733 197.617 88.8196C197.617 88.9063 197.582 88.9871 197.525 89.0622V89.0564Z" fill="#F79C80" stroke="#F79C80" stroke-width="0.54" stroke-miterlimit="10"/>
<path d="M202.275 89.0679C202.321 89.3914 202.374 89.7264 202.431 90.0788C202.489 90.4254 202.547 90.8009 202.605 91.1995C203.046 90.9222 203.509 90.6449 203.99 90.3619C204.471 90.0788 204.923 89.8535 205.346 89.6802C205.386 89.6687 205.432 89.6687 205.496 89.6745C205.56 89.6802 205.624 89.6918 205.687 89.7149C205.751 89.738 205.809 89.7727 205.861 89.8073C205.907 89.8477 205.942 89.894 205.96 89.9517C205.977 90.021 205.96 90.1077 205.919 90.2174C205.873 90.3272 205.821 90.3907 205.763 90.4081C205.647 90.4774 205.496 90.564 205.311 90.6738C205.125 90.7835 204.928 90.8991 204.72 91.0262C204.511 91.1532 204.314 91.2745 204.117 91.3959C203.92 91.5172 203.758 91.6269 203.625 91.7078C204.169 92.0024 204.702 92.2566 205.224 92.4645C205.745 92.6725 206.296 92.8458 206.881 92.9786C206.939 92.9902 206.997 93.0248 207.06 93.0884C207.124 93.1519 207.17 93.2212 207.211 93.3079C207.252 93.3945 207.269 93.4812 207.275 93.5678C207.275 93.6545 207.257 93.7296 207.211 93.7989C207.153 93.874 207.078 93.9202 206.973 93.9375C206.875 93.9548 206.771 93.9491 206.666 93.9317C205.942 93.7585 205.276 93.5505 204.674 93.2963C204.071 93.0422 203.44 92.736 202.779 92.3721C202.825 92.7822 202.872 93.2039 202.918 93.6429C202.959 94.0819 202.999 94.5441 203.04 95.0293C203.04 95.1333 202.999 95.191 202.912 95.2084C202.825 95.2257 202.733 95.2199 202.623 95.2026C202.518 95.1853 202.42 95.1506 202.333 95.1044C202.246 95.0582 202.194 95.0062 202.177 94.96C202.119 94.521 202.061 94.0588 201.997 93.5736C201.933 93.0884 201.864 92.5916 201.788 92.0948C201.713 91.5923 201.632 91.0955 201.545 90.6045C201.458 90.1135 201.371 89.6456 201.284 89.195C201.267 89.091 201.284 88.9697 201.354 88.8311C201.423 88.6924 201.545 88.6116 201.725 88.5942C201.794 88.5942 201.858 88.6116 201.916 88.6462C201.974 88.6809 202.038 88.7213 202.09 88.7733C202.142 88.8253 202.182 88.8773 202.211 88.9293C202.24 88.9813 202.258 89.0275 202.269 89.0679H202.275Z" fill="#F79C80" stroke="#F79C80" stroke-width="0.54" stroke-miterlimit="10"/>
<path d="M210.507 95.1623C210.461 95.324 210.397 95.4685 210.322 95.5955C210.247 95.7226 210.166 95.7977 210.079 95.815C209.899 95.8612 209.76 95.8324 209.662 95.7284C209.563 95.6244 209.528 95.4916 209.546 95.3298C209.621 94.7579 209.748 94.1572 209.917 93.5218C210.09 92.8863 210.287 92.2509 210.519 91.6213C210.751 90.9859 211 90.3736 211.272 89.7786C211.544 89.1836 211.823 88.6406 212.112 88.1554C212.159 88.0803 212.216 88.0341 212.274 88.0225C212.338 88.0052 212.39 88.011 212.437 88.0283C212.483 87.9879 212.541 87.959 212.61 87.9301C212.68 87.9012 212.744 87.8896 212.813 87.8896C212.842 87.8896 212.871 87.8897 212.906 87.9012C212.941 87.9128 212.975 87.9416 213.016 87.9879C213.057 88.0341 213.097 88.1034 213.149 88.1958C213.201 88.2882 213.265 88.4153 213.34 88.5886C213.474 89.0738 213.63 89.5764 213.81 90.0905C213.983 90.6046 214.169 91.1187 214.36 91.6328C214.389 91.6213 214.418 91.6155 214.441 91.6097C214.464 91.604 214.493 91.5982 214.522 91.5866C214.627 91.5751 214.748 91.5866 214.881 91.5982C215.015 91.6155 215.107 91.6848 215.154 91.8004C215.212 91.9448 215.2 92.0661 215.125 92.1701C215.049 92.274 214.91 92.378 214.708 92.4878C214.829 92.7939 214.957 93.0885 215.078 93.3831C215.2 93.6777 215.333 93.955 215.467 94.2323C215.478 94.2785 215.49 94.3536 215.507 94.4518C215.524 94.55 215.536 94.654 215.542 94.7522C215.542 94.8504 215.542 94.9428 215.519 95.0294C215.501 95.1161 215.461 95.1738 215.403 95.2027C215.333 95.2316 215.264 95.2258 215.194 95.1912C215.125 95.1565 215.055 95.1045 214.986 95.041C214.916 94.9774 214.858 94.9139 214.806 94.8388C214.754 94.7637 214.713 94.7002 214.684 94.6482C214.522 94.3363 214.366 94.0185 214.221 93.6951C214.07 93.3773 213.931 93.0539 213.798 92.7304C213.398 92.8055 212.958 92.8748 212.483 92.9326C212.008 92.9903 211.544 93.0308 211.087 93.0481C210.982 93.412 210.878 93.7644 210.78 94.1167C210.681 94.4691 210.589 94.8157 210.502 95.1681L210.507 95.1623ZM212.541 89.1547C212.101 90.1367 211.718 91.1187 211.394 92.1007C212.037 92.0834 212.72 92.0025 213.445 91.8581C213.103 90.9916 212.802 90.0905 212.541 89.1547Z" fill="#F79C80" stroke="#F79C80" stroke-width="0.54" stroke-miterlimit="10"/>
<path d="M222.697 92.2164C222.697 92.2626 222.645 92.3146 222.546 92.3608C222.448 92.407 222.355 92.4301 222.268 92.4301C221.636 92.4417 221.04 92.4648 220.478 92.4994C219.916 92.5399 219.365 92.5861 218.827 92.6438C218.722 92.6554 218.63 92.6207 218.549 92.5456C218.467 92.4705 218.415 92.3781 218.398 92.2741C218.381 92.1817 218.386 92.0835 218.421 91.9795C218.456 91.8813 218.52 91.8178 218.612 91.7889C219.157 91.6849 219.748 91.6041 220.374 91.5463C221.005 91.4885 221.636 91.5001 222.268 91.5752C222.308 91.5867 222.355 91.6041 222.413 91.6387C222.471 91.6734 222.523 91.7138 222.569 91.7658C222.616 91.8178 222.656 91.8813 222.685 91.9564C222.714 92.0315 222.72 92.1182 222.702 92.2164H222.697Z" fill="#F79C80" stroke="#F79C80" stroke-width="0.54" stroke-miterlimit="10"/>
<path d="M231.694 89.4552C230.709 89.409 229.765 89.4841 228.855 89.6863C227.945 89.8885 227.047 90.16 226.155 90.5008C225.924 90.5874 225.75 90.5759 225.634 90.4719C225.512 90.3679 225.454 90.264 225.454 90.16C225.524 89.9809 225.64 89.8307 225.813 89.7152C227.772 88.7621 229.736 88.4097 231.694 88.6581C231.786 88.687 231.868 88.7563 231.931 88.866C231.995 88.9758 232.012 89.0682 231.995 89.1433C231.978 89.2415 231.949 89.3166 231.908 89.3801C231.868 89.4437 231.798 89.4668 231.694 89.461V89.4552ZM229.654 94.4462C229.654 94.5501 229.62 94.6426 229.544 94.7234C229.475 94.8043 229.382 94.8563 229.278 94.8736C229.087 94.9025 228.965 94.8736 228.907 94.7754C228.849 94.6772 228.814 94.5675 228.809 94.4462C228.797 93.7761 228.785 93.1118 228.774 92.4533C228.757 91.789 228.728 91.1247 228.681 90.4604C228.681 90.4199 228.681 90.3795 228.664 90.3217C228.652 90.2697 228.652 90.2177 228.664 90.1658C228.675 90.1138 228.693 90.0676 228.728 90.0329C228.762 89.9982 228.814 89.9636 228.89 89.9462C229.11 89.9058 229.266 89.9462 229.365 90.056C229.463 90.1658 229.51 90.2755 229.51 90.3795C229.585 91.0669 229.631 91.7485 229.654 92.4244C229.672 93.1002 229.672 93.7761 229.654 94.4577V94.4462Z" fill="#F79C80" stroke="#F79C80" stroke-width="0.54" stroke-miterlimit="10"/>
<path d="M239.926 92.1295C239.868 92.3952 239.764 92.6494 239.619 92.892C239.468 93.1346 239.3 93.3599 239.109 93.5736C238.918 93.7816 238.709 93.9664 238.484 94.1166C238.258 94.2668 238.032 94.3881 237.8 94.4748C237.377 94.625 236.96 94.677 236.543 94.625C236.126 94.573 235.755 94.3824 235.43 94.0589C235.21 93.7931 235.054 93.4928 234.967 93.1577C234.874 92.8227 234.834 92.4819 234.84 92.1353C234.84 91.7887 234.892 91.4537 234.984 91.1244C235.077 90.8009 235.193 90.5121 235.338 90.2521C235.512 89.946 235.714 89.6918 235.952 89.4954C236.189 89.2932 236.456 89.1777 236.74 89.1373C236.815 89.1199 236.879 89.1373 236.925 89.195C236.971 89.2528 236.995 89.3163 236.995 89.3972C237.093 89.3048 237.238 89.2297 237.441 89.1835C237.644 89.1373 237.864 89.1315 238.113 89.1719C238.57 89.2297 238.935 89.3683 239.202 89.5878C239.468 89.8073 239.671 90.0615 239.799 90.3503C239.926 90.6392 239.996 90.9453 240.001 91.263C240.007 91.5807 239.978 91.8696 239.92 92.1295H239.926ZM236.798 90.1539C236.606 90.2406 236.444 90.3677 236.317 90.5352C236.189 90.7027 236.085 90.8933 235.998 91.1013C235.917 91.3092 235.865 91.5345 235.842 91.7829C235.819 92.0255 235.813 92.2624 235.836 92.4934C235.865 92.8285 235.963 93.1 236.137 93.3137C236.311 93.5274 236.578 93.6372 236.943 93.6372C237.151 93.6372 237.36 93.5967 237.568 93.5159C237.771 93.435 237.962 93.3252 238.136 93.1924C238.31 93.0595 238.466 92.8978 238.611 92.7129C238.756 92.5281 238.872 92.3317 238.953 92.1353C238.999 92.0313 239.04 91.8985 239.069 91.7425C239.098 91.5865 239.109 91.4248 239.098 91.2573C239.086 91.0897 239.051 90.9338 238.982 90.7778C238.912 90.6276 238.808 90.4948 238.663 90.3908C238.46 90.2464 238.223 90.1597 237.945 90.1308C237.667 90.1019 237.377 90.1655 237.07 90.3157C237.012 90.3561 236.948 90.3619 236.879 90.3388C236.809 90.3157 236.78 90.2579 236.798 90.1597V90.1539Z" fill="#F79C80" stroke="#F79C80" stroke-width="0.54" stroke-miterlimit="10"/>
<path d="M250.383 95.6761C250.279 95.6761 250.169 95.5952 250.059 95.4335C249.949 95.2717 249.891 95.1158 249.879 94.9598C249.804 94.4053 249.711 93.7583 249.601 93.0247C249.491 92.2853 249.346 91.413 249.167 90.4021C248.877 90.9451 248.599 91.4823 248.321 92.0196C248.043 92.5568 247.765 93.0882 247.486 93.6196C247.313 93.9547 247.139 94.1222 246.953 94.1222C246.687 94.1222 246.473 93.9836 246.322 93.7063C245.986 93.2211 245.638 92.7647 245.279 92.343C244.92 91.9213 244.549 91.4997 244.167 91.078C244.149 91.7192 244.155 92.343 244.19 92.9611C244.225 93.5792 244.283 94.1742 244.37 94.7576C244.387 94.8616 244.375 94.954 244.335 95.0349C244.294 95.1158 244.248 95.1678 244.196 95.1851C244.063 95.2313 243.929 95.2024 243.796 95.0984C243.663 94.9945 243.582 94.8789 243.553 94.7576C243.466 94.4168 243.402 94.0356 243.367 93.6139C243.327 93.1922 243.304 92.7705 243.286 92.343C243.275 91.9156 243.263 91.4881 243.263 91.0722C243.263 90.6563 243.263 90.2693 243.275 89.9284C243.275 89.5472 243.396 89.3566 243.645 89.3566C243.796 89.3566 243.929 89.4143 244.034 89.5183C244.138 89.6281 244.196 89.784 244.207 89.9804C244.688 90.4599 245.14 90.9451 245.563 91.4477C245.986 91.9502 246.403 92.4586 246.803 92.9727C247.139 92.3719 247.475 91.7538 247.822 91.1184C248.17 90.483 248.552 89.8649 248.987 89.2641C249.004 89.1602 249.056 89.0504 249.143 88.9407C249.23 88.8309 249.323 88.7558 249.433 88.7212C249.543 88.6865 249.647 88.7212 249.763 88.8482C249.879 88.9753 249.954 89.114 249.995 89.2757C250.157 90.2404 250.296 91.1993 250.418 92.164C250.54 93.1286 250.655 94.0875 250.771 95.0522C250.789 95.2313 250.754 95.3815 250.673 95.5028C250.586 95.6241 250.493 95.6819 250.383 95.6819V95.6761Z" fill="#F79C80" stroke="#F79C80" stroke-width="0.54" stroke-miterlimit="10"/>
<path d="M256.912 89.9113C256.953 89.9575 256.97 90.021 256.976 90.0903C256.976 90.1597 256.97 90.2232 256.941 90.2694C256.895 90.3734 256.814 90.4138 256.698 90.3849C256.495 90.3387 256.287 90.3214 256.066 90.3272C255.846 90.3387 255.626 90.4254 255.406 90.5871C255.186 90.7489 255.012 90.9857 254.89 91.2976C254.769 91.6096 254.705 91.9273 254.705 92.2623C254.705 92.5973 254.786 92.8631 254.942 93.0999C255.099 93.331 255.302 93.5043 255.551 93.6082C255.701 93.6776 255.875 93.7122 256.066 93.7238C256.258 93.7353 256.449 93.7238 256.646 93.7007C256.843 93.6776 257.034 93.6371 257.225 93.5851C257.416 93.5331 257.596 93.4754 257.77 93.4061C257.828 93.3887 257.88 93.3887 257.932 93.4176C257.984 93.4465 258.019 93.4869 258.042 93.5331C258.088 93.6544 258.065 93.7815 257.972 93.9028C257.857 94.0241 257.706 94.1339 257.515 94.2321C257.324 94.3303 257.115 94.4054 256.883 94.4632C256.652 94.5209 256.42 94.5498 256.182 94.5556C255.945 94.5556 255.719 94.5325 255.51 94.4747C255.215 94.3996 254.96 94.2841 254.757 94.1397C254.554 93.9953 254.381 93.822 254.247 93.6256C254.114 93.4292 254.016 93.2212 253.946 92.9959C253.877 92.7706 253.842 92.5396 253.83 92.3027C253.813 91.7309 253.923 91.2168 254.166 90.7604C254.41 90.3041 254.751 89.9633 255.192 89.7437C255.516 89.582 255.846 89.5185 256.176 89.5531C256.507 89.5878 256.75 89.7091 256.918 89.917L256.912 89.9113Z" fill="#F79C80" stroke="#F79C80" stroke-width="0.54" stroke-miterlimit="10"/>
<path d="M263.43 90.7719C263.638 90.5235 263.841 90.2809 264.032 90.044C264.223 89.8072 264.397 89.5761 264.565 89.3566C264.415 89.3566 264.2 89.3682 263.934 89.397C263.667 89.4259 263.383 89.4664 263.082 89.5126C262.781 89.5588 262.491 89.6108 262.207 89.657C261.923 89.7032 261.692 89.7494 261.512 89.7841C261.466 89.7956 261.402 89.7899 261.321 89.7783C261.24 89.761 261.159 89.7436 261.083 89.7148C261.008 89.6859 260.939 89.6454 260.881 89.5935C260.823 89.5415 260.794 89.4837 260.794 89.4317C260.794 89.3277 260.857 89.2238 260.985 89.1256C261.112 89.0274 261.246 88.9523 261.379 88.9061C261.512 88.8598 261.692 88.8078 261.923 88.7501C262.155 88.6923 262.41 88.6403 262.7 88.5941C262.989 88.5479 263.291 88.5017 263.604 88.467C263.916 88.4324 264.229 88.3977 264.536 88.3804C264.658 88.3688 264.78 88.3919 264.901 88.4382C265.023 88.4844 265.127 88.5479 265.214 88.6288C265.301 88.7096 265.382 88.7963 265.446 88.8945C265.51 88.9927 265.55 89.0851 265.567 89.1833C265.596 89.4144 265.521 89.6397 265.336 89.8707C265.231 90.0036 265.116 90.1422 265 90.2866C264.878 90.4311 264.756 90.5812 264.617 90.743C263.87 91.6095 262.439 93.4811 262.178 93.8334C262.532 93.8219 267.613 93.6832 267.659 93.7757C267.676 93.8507 267.659 93.9547 267.601 94.0876C267.543 94.2205 267.421 94.3187 267.242 94.3764C266.871 94.4226 266.448 94.4746 265.985 94.5208C265.521 94.567 265.046 94.6133 264.559 94.6479C264.073 94.6883 263.586 94.7172 263.111 94.7403C262.636 94.7634 262.196 94.7808 261.808 94.7923C261.559 94.7808 261.373 94.7519 261.257 94.7057C261.136 94.6595 261.049 94.5901 260.991 94.5035C260.904 94.388 260.875 94.2609 260.904 94.1165C260.933 93.9721 260.979 93.8565 261.049 93.7757C261.257 93.4695 261.489 93.1633 261.732 92.8456C261.976 92.5279 262.231 92.216 262.497 91.9041C262.393 91.9214 263.25 90.9914 263.43 90.7892V90.7719Z" fill="#F79C80" stroke="#F79C80" stroke-width="0.54" stroke-miterlimit="10"/>
<path d="M271.036 95.1623C270.99 95.324 270.926 95.4685 270.851 95.5955C270.776 95.7226 270.695 95.7977 270.608 95.815C270.428 95.8612 270.289 95.8324 270.191 95.7284C270.092 95.6244 270.057 95.4916 270.075 95.3298C270.15 94.7579 270.277 94.1572 270.445 93.5218C270.619 92.8863 270.816 92.2509 271.048 91.6213C271.28 90.9859 271.529 90.3736 271.801 89.7786C272.073 89.1836 272.351 88.6406 272.641 88.1554C272.688 88.0803 272.745 88.0341 272.803 88.0225C272.867 88.0052 272.919 88.011 272.966 88.0283C273.012 87.9879 273.07 87.959 273.139 87.9301C273.209 87.9012 273.273 87.8896 273.342 87.8896C273.371 87.8896 273.4 87.8897 273.435 87.9012C273.47 87.9128 273.504 87.9416 273.545 87.9879C273.585 88.0341 273.626 88.1034 273.678 88.1958C273.73 88.2882 273.794 88.4153 273.869 88.5886C274.003 89.0738 274.159 89.5764 274.339 90.0905C274.512 90.6046 274.698 91.1187 274.889 91.6328C274.918 91.6213 274.947 91.6155 274.97 91.6097C274.993 91.604 275.022 91.5982 275.051 91.5866C275.155 91.5751 275.277 91.5866 275.41 91.5982C275.544 91.6155 275.636 91.6848 275.683 91.8004C275.741 91.9448 275.729 92.0661 275.654 92.1701C275.578 92.274 275.439 92.378 275.237 92.4878C275.358 92.7939 275.486 93.0885 275.607 93.3831C275.729 93.6777 275.862 93.955 275.996 94.2323C276.007 94.2785 276.019 94.3536 276.036 94.4518C276.053 94.55 276.065 94.654 276.071 94.7522C276.071 94.8504 276.071 94.9428 276.048 95.0294C276.03 95.1161 275.99 95.1738 275.932 95.2027C275.862 95.2316 275.793 95.2258 275.723 95.1912C275.654 95.1565 275.584 95.1045 275.515 95.041C275.445 94.9774 275.387 94.9139 275.335 94.8388C275.283 94.7637 275.242 94.7002 275.213 94.6482C275.051 94.3363 274.895 94.0185 274.75 93.6951C274.599 93.3773 274.46 93.0539 274.327 92.7304C273.927 92.8055 273.487 92.8748 273.012 92.9326C272.537 92.9903 272.073 93.0308 271.616 93.0481C271.511 93.412 271.407 93.7644 271.309 94.1167C271.21 94.4691 271.118 94.8157 271.031 95.1681L271.036 95.1623ZM273.076 89.1547C272.635 90.1367 272.253 91.1187 271.929 92.1007C272.572 92.0834 273.255 92.0025 273.979 91.8581C273.638 90.9916 273.336 90.0905 273.076 89.1547Z" fill="#F79C80" stroke="#F79C80" stroke-width="0.54" stroke-miterlimit="10"/>
<path d="M279.79 89.0679C279.837 89.3914 279.889 89.7264 279.947 90.0788C280.005 90.4254 280.062 90.8009 280.12 91.1995C280.561 90.9222 281.024 90.6449 281.505 90.3619C281.986 90.0788 282.438 89.8535 282.861 89.6802C282.901 89.6687 282.948 89.6687 283.011 89.6745C283.075 89.6802 283.139 89.6918 283.202 89.7149C283.266 89.738 283.324 89.7727 283.376 89.8073C283.423 89.8477 283.457 89.894 283.475 89.9517C283.492 90.021 283.475 90.1077 283.434 90.2174C283.388 90.3272 283.336 90.3907 283.278 90.4081C283.162 90.4774 283.011 90.564 282.826 90.6738C282.641 90.7835 282.444 90.8991 282.235 91.0262C282.026 91.1532 281.829 91.2745 281.632 91.3959C281.435 91.5172 281.273 91.6269 281.14 91.7078C281.685 92.0024 282.218 92.2566 282.739 92.4645C283.26 92.6725 283.811 92.8458 284.396 92.9786C284.454 92.9902 284.512 93.0248 284.575 93.0884C284.639 93.1519 284.686 93.2212 284.726 93.3079C284.767 93.3945 284.784 93.4812 284.79 93.5678C284.79 93.6545 284.772 93.7296 284.726 93.7989C284.668 93.874 284.593 93.9202 284.489 93.9375C284.39 93.9548 284.286 93.9491 284.182 93.9317C283.457 93.7585 282.791 93.5505 282.189 93.2963C281.586 93.0422 280.955 92.736 280.294 92.3721C280.341 92.7822 280.387 93.2039 280.433 93.6429C280.474 94.0819 280.514 94.5441 280.555 95.0293C280.555 95.1333 280.514 95.191 280.427 95.2084C280.341 95.2257 280.248 95.2199 280.138 95.2026C280.033 95.1853 279.935 95.1506 279.848 95.1044C279.761 95.0582 279.709 95.0062 279.692 94.96C279.634 94.521 279.576 94.0588 279.512 93.5736C279.448 93.0884 279.379 92.5916 279.304 92.0948C279.228 91.5923 279.147 91.0955 279.06 90.6045C278.973 90.1135 278.886 89.6456 278.8 89.195C278.782 89.091 278.8 88.9697 278.869 88.8311C278.939 88.6924 279.06 88.6116 279.24 88.5942C279.309 88.5942 279.373 88.6116 279.431 88.6462C279.489 88.6809 279.553 88.7213 279.605 88.7733C279.657 88.8253 279.697 88.8773 279.726 88.9293C279.755 88.9813 279.773 89.0275 279.784 89.0679H279.79Z" fill="#F79C80" stroke="#F79C80" stroke-width="0.54" stroke-miterlimit="10"/>
<path d="M152.197 90.9281C152.406 90.6797 152.609 90.4371 152.8 90.2003C152.991 89.9634 153.165 89.7324 153.333 89.5129C153.182 89.5129 152.968 89.5244 152.701 89.5533C152.435 89.5822 152.151 89.6226 151.85 89.6688C151.548 89.715 151.259 89.767 150.975 89.8132C150.691 89.8595 150.459 89.9057 150.28 89.9403C150.233 89.9519 150.17 89.9461 150.089 89.9346C150.007 89.9172 149.926 89.8999 149.851 89.871C149.776 89.8421 149.706 89.8017 149.648 89.7497C149.59 89.6977 149.561 89.6399 149.561 89.588C149.561 89.484 149.625 89.38 149.752 89.2818C149.88 89.1836 150.013 89.1085 150.146 89.0623C150.28 89.0161 150.459 88.9641 150.691 88.9063C150.923 88.8486 151.178 88.7966 151.467 88.7504C151.757 88.7042 152.058 88.6579 152.371 88.6233C152.684 88.5886 152.997 88.554 153.304 88.5366C153.425 88.5251 153.547 88.5482 153.669 88.5944C153.79 88.6406 153.895 88.7042 153.982 88.785C154.069 88.8659 154.15 88.9525 154.213 89.0507C154.277 89.1489 154.318 89.2414 154.335 89.3396C154.364 89.5706 154.289 89.7959 154.103 90.027C153.999 90.1598 153.883 90.2985 153.767 90.4429C153.646 90.5873 153.524 90.7375 153.385 90.8992C152.638 91.7657 151.207 93.6373 150.946 93.9897C151.299 93.9781 156.38 93.8395 156.426 93.9319C156.444 94.007 156.426 94.111 156.369 94.2438C156.311 94.3767 156.189 94.4749 156.009 94.5327C155.639 94.5789 155.216 94.6309 154.752 94.6771C154.289 94.7233 153.814 94.7695 153.327 94.8042C152.84 94.8446 152.354 94.8735 151.879 94.8966C151.404 94.9197 150.963 94.937 150.575 94.9486C150.326 94.937 150.141 94.9081 150.025 94.8619C149.903 94.8157 149.816 94.7464 149.758 94.6597C149.671 94.5442 149.642 94.4171 149.671 94.2727C149.7 94.1283 149.747 94.0128 149.816 93.9319C150.025 93.6257 150.257 93.3196 150.5 93.0019C150.743 92.6842 150.998 92.3722 151.265 92.0603C151.16 92.0776 152.018 91.1476 152.197 90.9454V90.9281Z" fill="#F79C80" stroke="#F79C80" stroke-width="0.54" stroke-miterlimit="10"/>
</g>
<defs>
<clipPath id="clip0_126_1444">
<rect width="296" height="96" fill="white"/>
</clipPath>
</defs>
</svg>
