<svg width="198" height="52" viewBox="0 0 198 52" fill="none" xmlns="http://www.w3.org/2000/svg">
<g clip-path="url(#clip0_11_865)">
<path d="M60.0901 13.4019C61.2776 11.6866 62.7197 10.9731 64.4162 10.9731C67.894 10.9731 70.0995 14.0608 70.0995 18.8054C70.0995 23.5499 67.894 26.466 64.474 26.466C62.7505 26.466 61.2776 25.7526 60.0901 24.0372V28.4114C60.0901 29.3276 60.4294 30.4426 60.8805 31.386C61.3625 32.4425 61.135 33.0156 60.0901 33.0429H54.1793C53.1613 33.0156 52.9339 32.4425 53.3888 31.386C53.8708 30.4426 54.1793 29.3276 54.1793 28.4114V16.7742C54.1793 15.858 53.8669 14.7431 53.3888 13.7996C52.9377 12.7431 53.1922 12.3688 54.1793 12.1427L58.6172 11.2577C59.4924 11.0862 60.0862 11.8581 60.0862 12.7431V13.4019H60.0901ZM60.0901 21.2653C60.599 22.4076 61.4743 22.6961 62.0141 22.6961C63.2595 22.6961 64.0499 21.0938 64.0499 18.5208C64.0499 17.4915 63.9381 14.747 62.0719 14.747C61.4781 14.747 60.6029 15.0043 60.0939 16.1777V21.2653H60.0901Z" fill="white"/>
<path d="M87.7433 21.5497C87.7433 22.4658 88.0826 23.5808 88.5337 24.5243C89.0157 25.5808 88.7612 26.1811 87.7433 26.1811H83.3323C82.4262 26.1811 81.8633 25.5808 81.8633 24.6958V23.8654C80.5639 25.6938 78.8674 26.4657 77.0552 26.4657C74.0863 26.4657 72.2472 24.4931 72.2472 21.5185V16.7739C72.2472 15.8578 71.9348 14.7428 71.4567 13.7993C71.0056 12.7428 71.2292 12.1697 72.2472 12.1424L76.6851 11.2575C77.5603 11.0859 78.1541 11.8578 78.1541 12.7428V20.0331C78.1541 21.6042 78.8327 22.6919 79.9085 22.6919C80.4444 22.6919 81.3505 22.4073 81.8594 21.1754V16.7739C81.8594 15.8578 81.5201 14.7428 81.0382 13.7993C80.5871 12.7428 80.8107 12.1697 81.8594 12.1424L86.2704 11.2575C87.1456 11.0859 87.7394 11.8578 87.7394 12.7428V21.5497H87.7433Z" fill="white"/>
<path d="M96.9044 13.5462C98.2038 11.7451 99.9003 10.9731 101.713 10.9731C104.681 10.9731 106.49 12.9185 106.49 15.9204V21.5538C106.49 22.47 106.829 23.585 107.28 24.5284C107.762 25.5849 107.535 26.158 106.49 26.1853H100.61C99.5649 26.158 99.3374 25.5849 99.7885 24.5284C100.27 23.585 100.61 22.47 100.61 21.5538V17.4097C100.61 15.8385 99.9312 14.7508 98.8554 14.7508C98.3195 14.7508 97.4134 15.0082 96.9044 16.2362V21.5538C96.9044 22.47 97.2437 23.585 97.6948 24.5284C98.1768 25.5849 97.9493 26.158 96.9044 26.1853H90.9936C89.9757 26.158 89.7482 25.5849 90.2032 24.5284C90.6852 23.585 90.9936 22.47 90.9936 21.5538V16.7781C90.9936 15.8619 90.6813 14.747 90.2032 13.8035C89.7521 12.747 90.0066 12.3727 90.9936 12.1466L95.4315 11.2616C96.3068 11.0901 96.9006 11.862 96.9006 12.747V13.5462H96.9044Z" fill="white"/>
<path d="M115.454 18.2048L117.66 15.9164C118.566 14.9729 118.705 13.8579 119.129 12.8872C119.665 11.858 120.459 11.2849 121.504 11.2576H125.433C126.424 11.2849 126.281 11.971 124.754 13.0587C123.424 13.9749 122.634 14.0879 120.71 15.9164L119.804 16.774C120.906 16.7156 121.897 17.4017 122.491 18.6882L123.79 21.5459C124.214 22.462 125.036 23.577 125.969 24.5205C126.929 25.577 126.96 26.1501 125.942 26.1774H119.41C118.365 26.1501 117.883 25.577 117.856 24.5205C117.883 23.577 117.687 22.462 117.29 21.5459L116.526 19.9163L115.45 20.9182V21.5459C115.45 22.462 115.79 23.577 116.241 24.5205C116.723 25.577 116.495 26.1501 115.45 26.1774H109.54C108.522 26.1501 108.294 25.577 108.749 24.5205C109.231 23.577 109.54 22.462 109.54 21.5459V9.90868C109.54 8.99252 109.227 7.87753 108.749 6.93408C108.298 5.87757 108.553 5.50331 109.54 5.27719L113.978 4.39222C114.853 4.22068 115.447 4.9926 115.447 5.87757V18.2009L115.454 18.2048Z" fill="white"/>
<path d="M135.076 11.2577H137.621C138.072 11.2577 138.357 11.5423 138.357 12.1426C138.357 12.743 138.076 13.0588 137.621 13.0588H135.076V22.006C135.076 22.9767 135.473 23.5771 136.406 23.5771C136.857 23.5771 137.339 23.4641 137.679 23.0352C137.821 22.8637 137.991 22.7779 138.161 22.7779C138.245 22.7779 138.33 22.8052 138.442 22.8637C138.781 23.0937 138.893 23.5225 138.527 24.2633C137.763 25.8344 136.067 26.4659 134.031 26.4659C131.004 26.4659 129.169 25.0937 129.169 22.1191V13.0549H127.584C127.133 13.0549 126.848 12.7391 126.848 12.1387C126.848 11.5384 127.129 11.2538 127.584 11.2538H128.066C130.808 11.2538 131.29 9.39415 131.995 7.99457C132.616 6.76652 133.098 6.47803 133.888 6.47803C134.764 6.47803 135.076 6.79381 135.076 7.33571V11.2538V11.2577Z" fill="white"/>
<path d="M52.3131 37.2842C53.5007 35.5415 55.0275 34.7969 56.8667 34.7969C59.13 34.7969 60.5142 35.8846 61.0501 37.713C62.2955 35.6546 63.8764 34.7969 65.8582 34.7969C68.885 34.7969 70.327 36.7423 70.327 39.7441V45.3776C70.327 46.2937 70.6393 47.4087 71.1174 48.3522C71.5994 49.4087 71.3449 49.9818 70.327 50.0091H64.4162C63.3713 49.9818 63.1438 49.4087 63.6258 48.3522C64.1077 47.4087 64.4162 46.2937 64.4162 45.3776V41.2334C64.4162 39.6623 63.7376 38.5746 62.8893 38.5746C62.2377 38.5746 61.6748 39.175 61.3046 40.0599V45.3776C61.3046 46.2937 61.6439 47.4087 62.1259 48.3522C62.577 49.4087 62.3534 49.9818 61.3046 50.0091H55.4247C54.3798 49.9818 54.1523 49.4087 54.6342 48.3522C55.0854 47.4087 55.4247 46.2937 55.4247 45.3776V41.2334C55.4247 39.6623 54.7461 38.5746 53.8708 38.5746C53.25 38.5746 52.6833 39.175 52.317 40.0599V45.3776C52.317 46.2937 52.6563 47.4087 53.1074 48.3522C53.5893 49.4087 53.3619 49.9818 52.317 50.0091H46.4061C45.3882 49.9818 45.1608 49.4087 45.6157 48.3522C46.0977 47.4087 46.4061 46.2937 46.4061 45.3776V40.6018C46.4061 39.6857 46.0938 38.5707 45.6157 37.6272C45.1646 36.5707 45.4191 36.1965 46.4061 35.9703L50.8441 35.0854C51.7193 34.9138 52.3131 35.6857 52.3131 36.5707V37.2842Z" fill="white"/>
<path d="M79.091 37.3426C80.3634 35.5415 81.9751 34.7969 83.5868 34.7969C85.7074 34.7969 87.0647 36.0834 87.404 37.4557C87.8281 39.0268 86.9528 40.7422 85.3103 41.171C85.0558 41.2295 84.8014 41.2568 84.5199 41.2568C83.4172 41.2568 82.2566 40.8007 82.2026 39.713C82.1756 39.0268 81.6936 38.5707 81.015 38.5707C80.2516 38.5707 79.4612 39.1711 79.091 40.056V45.3737C79.091 46.2898 79.4303 47.4048 79.8815 48.3483C80.3634 49.4048 80.1359 49.9779 79.091 50.0052H73.1802C72.1623 49.9779 71.9348 49.4048 72.3898 48.3483C72.8718 47.4048 73.1802 46.2898 73.1802 45.3737V40.5979C73.1802 39.6818 72.8679 38.5668 72.3898 37.6233C71.9387 36.5668 72.1932 36.1926 73.1802 35.9664L77.6182 35.0815C78.4934 34.9099 79.0872 35.6818 79.0872 36.5668V37.3387L79.091 37.3426Z" fill="white"/>
<path d="M104.369 45.3739C104.369 46.29 104.708 47.405 105.16 48.3485C105.641 49.405 105.387 50.0054 104.369 50.0054H99.9582C99.0521 50.0054 98.4891 49.405 98.4891 48.52V47.6896C97.1898 49.518 95.4932 50.29 93.6811 50.29C90.7122 50.29 88.873 48.3173 88.873 45.3427V40.5981C88.873 39.682 88.5607 38.567 88.0826 37.6235C87.6314 36.567 87.8551 35.9939 88.873 35.9666L93.3109 35.0817C94.1862 34.9101 94.7799 35.6821 94.7799 36.567V43.8573C94.7799 45.4285 95.4585 46.5161 96.5343 46.5161C97.0702 46.5161 97.9763 46.2316 98.4853 44.9996V40.5981C98.4853 39.682 98.146 38.567 97.664 37.6235C97.2129 36.567 97.4365 35.9939 98.4853 35.9666L102.896 35.0817C103.771 34.9101 104.365 35.6821 104.365 36.567V45.3739H104.369Z" fill="white"/>
<path d="M120.459 43.8298C120.856 43.9156 121.053 44.2314 120.798 45.2879C120.062 48.1183 117.378 50.2898 113.927 50.2898C109.856 50.2898 106.123 47.2606 106.123 42.5433C106.123 37.8261 109.856 34.7969 114.664 34.7969C117.351 34.7969 120.066 35.7403 120.686 37.8261C121.195 39.5999 120.035 41.3153 118.311 41.5726C116.472 41.8884 115.485 40.286 115.709 38.2861C115.878 36.715 115.2 36.5707 114.776 36.5707C113.164 36.5707 112.173 38.4849 112.173 41.4868C112.173 44.4887 113.249 46.4341 115.763 46.4341C117.093 46.4341 118.589 45.9195 119.41 44.5472C119.75 43.9195 120.116 43.748 120.455 43.8337L120.459 43.8298Z" fill="white"/>
<path d="M129.053 36.8827H127.839C124.388 36.8827 124.361 40.0834 122.977 40.7695C122.834 40.828 122.695 40.8826 122.553 40.8826C122.128 40.8826 121.789 40.5122 121.789 39.7403V35.8807C121.789 35.3934 122.128 35.0815 122.58 35.0815H134.821C136.036 35.0815 136.491 35.795 136.036 36.5669L129.42 48.2041H130.607C134.058 48.2041 134.085 44.9722 135.469 44.286C135.612 44.2276 135.751 44.2003 135.893 44.2003C136.318 44.2003 136.657 44.5433 136.657 45.3426V49.2021C136.657 49.6583 136.344 50.0013 135.866 50.0013H123.651C122.464 50.0013 122.04 49.2021 122.491 48.399L129.049 36.8788L129.053 36.8827Z" fill="white"/>
<path d="M151.787 43.8298C152.184 43.9156 152.38 44.2314 152.126 45.2879C151.39 48.1183 148.706 50.2898 145.255 50.2898C141.183 50.2898 137.451 47.2606 137.451 42.5433C137.451 37.8261 141.183 34.7969 145.567 34.7969C148.679 34.7969 152.523 36.2822 152.523 39.3153C152.523 42.0326 149.527 44.5472 143.956 44.2314C144.465 45.6622 145.483 46.4341 147.094 46.4341C148.424 46.4341 149.92 45.9195 150.742 44.5472C151.081 43.9195 151.447 43.748 151.787 43.8337V43.8298ZM147.206 39.4011C147.206 37.4011 146.385 36.5707 145.537 36.5707C144.206 36.5707 143.501 38.4849 143.501 41.2295C143.501 41.8299 143.559 42.3718 143.613 42.8591C146.184 42.9449 147.202 41.6856 147.202 39.4011H147.206Z" fill="white"/>
<path d="M160.381 37.3699C161.68 35.5688 163.377 34.7969 165.189 34.7969C168.158 34.7969 169.966 36.7423 169.966 39.7441V45.3776C169.966 46.2937 170.306 47.4087 170.757 48.3522C171.239 49.4087 171.011 49.9818 169.966 50.0091H164.086C163.041 49.9818 162.814 49.4087 163.265 48.3522C163.747 47.4087 164.086 46.2937 164.086 45.3776V41.2334C164.086 39.6623 163.408 38.5746 162.332 38.5746C161.796 38.5746 160.89 38.8319 160.381 40.0599V45.3776C160.381 46.2937 160.72 47.4087 161.171 48.3522C161.653 49.4087 161.426 49.9818 160.381 50.0091H154.47C153.452 49.9818 153.225 49.4087 153.68 48.3522C154.162 47.4087 154.47 46.2937 154.47 45.3776V40.6018C154.47 39.6857 154.158 38.5707 153.68 37.6272C153.229 36.5707 153.483 36.1965 154.47 35.9703L158.908 35.0854C159.783 34.9138 160.377 35.6857 160.377 36.5707V37.3699H160.381Z" fill="white"/>
<path d="M178.703 45.3739C178.703 46.29 179.043 47.405 179.494 48.3485C179.976 49.405 179.748 49.9781 178.703 50.0054H172.793C171.775 49.9781 171.547 49.405 172.002 48.3485C172.484 47.405 172.793 46.29 172.793 45.3739V40.5981C172.793 39.682 172.48 38.567 172.002 37.6235C171.551 36.567 171.806 36.1928 172.793 35.9666L177.231 35.0817C178.106 34.9101 178.7 35.6821 178.7 36.567V45.3739H178.703Z" fill="white"/>
<path d="M186.199 38.598C186.311 39.8572 185.493 41.5726 183.596 41.2841C181.958 41.0268 180.967 39.5102 181.364 37.9391C182.1 35.0815 186.708 34.793 188.971 34.793C191.967 34.793 195.561 35.3076 195.561 39.3972V45.8298C195.561 46.8005 195.672 47.4009 196.239 47.4009C196.833 47.4009 196.945 46.6875 197.315 46.9136C197.627 47.1436 197.512 47.6582 197.257 48.2001C196.605 49.5139 195.391 50.2858 193.583 50.2858C191.998 50.2858 190.756 49.6582 190.132 48.3405C189.056 49.6543 187.614 50.2858 185.524 50.2858C182.443 50.2858 180.492 48.8863 180.492 46.5705C180.492 42.5667 186.176 41.0813 189.681 40.5083V39.249C189.681 37.6467 189.229 36.5629 188.212 36.5629C187.618 36.5629 186.118 36.9645 186.203 38.5941L186.199 38.598ZM186.507 45.7752C186.507 46.8902 187.101 47.6036 187.892 47.6036C188.852 47.6036 189.673 46.4886 189.673 45.9467V42.3445C187.722 42.8591 186.507 44.1183 186.507 45.7752Z" fill="white"/>
<path d="M26.9578 1.4687C13.6941 -1.14333 7.67533 4.16651 3.88517 10.3535C0.896987 15.2345 0.42659 20.8523 0.50756 24.2714C0.611664 28.6651 2.01129 32.4077 4.2129 36.2166C6.58802 40.3295 11.4694 45.6277 16.023 49.5224C17.6154 50.883 21.7641 52.1344 24.8217 50.2826C30.6245 46.7661 33.3274 44.3139 36.8901 40.6921C39.4117 38.1269 42.6505 33.1757 44.081 28.4039C47.7439 13.5932 42.3382 4.49398 26.9578 1.4687ZM35.2051 33.2147C32.2131 37.8228 25.3731 42.1658 19.497 41.3861C15.3096 40.8286 6.23329 31.9515 6.66128 24.7002C6.66513 19.0239 9.60705 13.9207 11.7084 8.87207C11.9051 8.40424 12.2212 7.9754 12.5374 7.57775C13.509 6.3458 14.5424 6.16647 15.5179 7.39451C16.7555 8.94614 16.771 10.5796 17.731 12.334C17.7812 12.4237 17.8351 12.5055 17.893 12.5835C17.5421 12.6342 17.1951 12.6927 16.8481 12.7667C16.5319 12.833 16.2967 13.0396 16.1965 13.3398C16.0846 13.6751 16.1733 14.0727 16.4162 14.3495C16.6399 14.603 16.9599 14.7121 17.2953 14.6419C21.421 13.7804 25.7548 14.6419 30.5551 17.2774C30.6978 17.3553 30.8482 17.3943 30.9947 17.3943C31.3224 17.3943 31.6386 17.2072 31.8198 16.8758C32.0743 16.4002 31.9239 15.8544 31.4689 15.601C31.1296 15.4139 30.7942 15.2384 30.4626 15.0708C30.7633 14.8953 31.0641 14.6263 31.4805 14.2716C32.7413 13.2073 33.6975 12.065 34.4648 11.5387C35.9994 10.4822 37.561 11.3788 37.7152 13.1995C38.2936 20.0687 39.1148 27.207 35.2013 33.2264L35.2051 33.2147Z" fill="white"/>
<path d="M31.2031 24.8598C30.6478 24.6961 30.0618 25.0235 29.9037 25.5849C29.5914 26.6765 27.8602 27.4757 26.1212 27.3276C24.3476 27.1755 22.5855 26.0995 21.9301 24.7623C21.7797 24.4543 21.4867 24.236 21.1512 24.1853C20.8119 24.1308 20.4726 24.2477 20.2336 24.4972C19.6244 25.1366 18.5023 25.4602 17.5037 25.2847C16.5012 25.1093 15.7879 24.3881 15.8149 24.006C15.8573 23.4212 15.4216 22.9105 14.8433 22.8676C14.2688 22.8247 13.7598 23.2653 13.7174 23.8501C13.6017 25.4446 15.1363 27.0274 17.1413 27.3783C18.3828 27.5966 19.6822 27.3588 20.7194 26.7623C21.9069 28.232 23.8656 29.2652 25.9362 29.4406C26.1367 29.4562 26.3333 29.464 26.5299 29.464C29.0631 29.464 31.365 28.0878 31.9125 26.1697C32.0745 25.6044 31.7506 25.0196 31.1954 24.8559L31.2031 24.8598Z" fill="white"/>
<path d="M177.593 31.2106C177.446 31.9591 176.421 33.1014 175.654 33.8733C175.164 34.3645 174.393 34.4074 173.853 33.9786C172.951 33.2651 171.678 32.2281 171.428 31.8694C171.034 31.3041 171.162 30.0878 172.388 29.62C173.614 29.1521 174.262 30.0371 174.262 30.0371C174.262 30.0371 174.983 29.1326 176.155 29.1716C177.327 29.2106 177.84 29.9864 177.597 31.2106H177.593Z" fill="white"/>
<path d="M24.2319 22.4698C23.9697 22.8987 23.1215 23.3626 22.4082 23.6979C21.799 23.9825 21.0741 23.7758 20.7039 23.2105C20.2451 22.5049 19.6899 21.6121 19.6051 21.3314C19.4624 20.8363 19.8518 20.0332 20.8582 20.0293C21.8606 20.0254 22.1113 20.8012 22.1113 20.8012C22.1113 20.8012 22.8554 20.3646 23.6921 20.696C24.5288 21.0273 24.7062 21.694 24.2281 22.4776L24.2319 22.4698Z" fill="white"/>
</g>
<defs>
<clipPath id="clip0_11_865">
<rect width="197" height="50.4279" fill="white" transform="translate(0.5 0.786133)"/>
</clipPath>
</defs>
</svg>
