<svg width="170" height="42" viewBox="0 0 170 42" fill="none" xmlns="http://www.w3.org/2000/svg">
<g clip-path="url(#clip0_44_306)">
<path d="M51.945 10.5075C52.9638 9.07881 54.2008 8.4846 55.6562 8.4846C58.6398 8.4846 60.5318 11.0562 60.5318 15.0078C60.5318 18.9594 58.6398 21.3882 55.7058 21.3882C54.2273 21.3882 52.9638 20.794 51.945 19.3653V23.0085C51.945 23.7715 52.2361 24.7001 52.6231 25.4859C53.0365 26.3659 52.8414 26.8432 51.945 26.8659H46.8743C46.0011 26.8432 45.8059 26.3659 46.1962 25.4859C46.6097 24.7001 46.8743 23.7715 46.8743 23.0085V13.3161C46.8743 12.5531 46.6064 11.6245 46.1962 10.8387C45.8092 9.95874 46.0275 9.64703 46.8743 9.45871L50.6814 8.72164C51.4323 8.57877 51.9417 9.22167 51.9417 9.95874V10.5075H51.945ZM51.945 17.0567C52.3816 18.0081 53.1324 18.2483 53.5955 18.2483C54.6639 18.2483 55.342 16.9138 55.342 14.7708C55.342 13.9136 55.2461 11.6277 53.6451 11.6277C53.1358 11.6277 52.3849 11.842 51.9483 12.8194V17.0567H51.945Z" fill="#B96645"/>
<path d="M75.6678 17.2937C75.6678 18.0568 75.9589 18.9854 76.3459 19.7712C76.7593 20.6511 76.541 21.1512 75.6678 21.1512H71.8838C71.1065 21.1512 70.6236 20.6511 70.6236 19.9141V19.2224C69.5089 20.7453 68.0535 21.3882 66.4989 21.3882C63.9519 21.3882 62.3742 19.7452 62.3742 17.2677V13.3161C62.3742 12.5531 62.1062 11.6245 61.6961 10.8387C61.3091 9.95874 61.5009 9.48143 62.3742 9.4587L66.1813 8.72163C66.9322 8.57877 67.4416 9.22167 67.4416 9.95874V16.0306C67.4416 17.3392 68.0237 18.2451 68.9466 18.2451C69.4063 18.2451 70.1836 18.0081 70.6202 16.982V13.3161C70.6202 12.5531 70.3292 11.6245 69.9157 10.8387C69.5287 9.95874 69.7206 9.48143 70.6202 9.4587L74.4042 8.72163C75.1551 8.57877 75.6645 9.22167 75.6645 9.95874V17.2937H75.6678Z" fill="#B96645"/>
<path d="M83.5269 10.6276C84.6416 9.12751 86.0969 8.4846 87.6516 8.4846C90.1985 8.4846 91.7498 10.1049 91.7498 12.6051V17.297C91.7498 18.06 92.0409 18.9887 92.4279 19.7744C92.8413 20.6544 92.6462 21.1317 91.7498 21.1544H86.7056C85.8092 21.1317 85.614 20.6544 86.001 19.7744C86.4145 18.9887 86.7056 18.06 86.7056 17.297V13.8454C86.7056 12.5369 86.1234 11.631 85.2006 11.631C84.7408 11.631 83.9635 11.8453 83.5269 12.8681V17.297C83.5269 18.06 83.8179 18.9887 84.2049 19.7744C84.6184 20.6544 84.4233 21.1317 83.5269 21.1544H78.4562C77.5829 21.1317 77.3878 20.6544 77.7781 19.7744C78.1916 18.9887 78.4562 18.06 78.4562 17.297V13.3194C78.4562 12.5563 78.1882 11.6277 77.7781 10.8419C77.3911 9.96199 77.6094 9.65028 78.4562 9.46195L82.2633 8.72488C83.0142 8.58201 83.5236 9.22492 83.5236 9.96199V10.6276H83.5269Z" fill="#B96645"/>
<path d="M99.4402 14.5078L101.332 12.6018C102.109 11.816 102.229 10.8874 102.592 10.0789C103.052 9.22168 103.734 8.74437 104.63 8.72164H108C108.851 8.74437 108.728 9.31584 107.418 10.2218C106.277 10.9848 105.599 11.079 103.949 12.6018L103.171 13.3161C104.117 13.2674 104.967 13.8389 105.477 14.9104L106.591 17.2905C106.955 18.0535 107.66 18.9822 108.46 19.7679C109.284 20.6479 109.31 21.1252 108.437 21.1479H102.834C101.937 21.1252 101.524 20.6479 101.501 19.7679C101.524 18.9822 101.355 18.0535 101.015 17.2905L100.36 15.9332L99.4369 16.7677V17.2905C99.4369 18.0535 99.7279 18.9822 100.115 19.7679C100.528 20.6479 100.333 21.1252 99.4369 21.1479H94.3662C93.4929 21.1252 93.2978 20.6479 93.6881 19.7679C94.1016 18.9822 94.3662 18.0535 94.3662 17.2905V7.59817C94.3662 6.83513 94.0983 5.90648 93.6881 5.12071C93.3011 4.24077 93.5194 3.92906 94.3662 3.74073L98.1733 3.00366C98.9242 2.86079 99.4336 3.5037 99.4336 4.24077V14.5046L99.4402 14.5078Z" fill="#B96645"/>
<path d="M116.273 8.72164H118.456C118.843 8.72164 119.088 8.95867 119.088 9.45871C119.088 9.95875 118.846 10.2218 118.456 10.2218H116.273V17.6736C116.273 18.4821 116.614 18.9822 117.414 18.9822C117.801 18.9822 118.215 18.888 118.506 18.5308C118.628 18.388 118.774 18.3165 118.919 18.3165C118.992 18.3165 119.065 18.3393 119.161 18.388C119.452 18.5795 119.548 18.9367 119.233 19.5536C118.578 20.8622 117.123 21.3882 115.377 21.3882C112.78 21.3882 111.206 20.2453 111.206 17.7678V10.2185H109.846C109.459 10.2185 109.214 9.9555 109.214 9.45546C109.214 8.95543 109.456 8.71839 109.846 8.71839H110.26C112.611 8.71839 113.025 7.16957 113.63 6.0039C114.163 4.98109 114.576 4.74081 115.254 4.74081C116.005 4.74081 116.273 5.00382 116.273 5.45515V8.71839V8.72164Z" fill="#B96645"/>
<path d="M45.2734 30.3986C46.2921 28.9472 47.602 28.327 49.1798 28.327C51.1214 28.327 52.3088 29.233 52.7686 30.7558C53.837 29.0414 55.1931 28.327 56.8933 28.327C59.4898 28.327 60.7269 29.9473 60.7269 32.4475V37.1394C60.7269 37.9025 60.9948 38.8311 61.405 39.6169C61.8185 40.4968 61.6002 40.9741 60.7269 40.9969H55.6562C54.7598 40.9741 54.5647 40.4968 54.9782 39.6169C55.3916 38.8311 55.6562 37.9025 55.6562 37.1394V33.6878C55.6562 32.3793 55.0741 31.4734 54.3464 31.4734C53.7874 31.4734 53.3045 31.9734 52.9869 32.7105V37.1394C52.9869 37.9025 53.278 38.8311 53.6915 39.6169C54.0785 40.4968 53.8866 40.9741 52.9869 40.9969H47.9427C47.0463 40.9741 46.8511 40.4968 47.2646 39.6169C47.6516 38.8311 47.9427 37.9025 47.9427 37.1394V33.6878C47.9427 32.3793 47.3605 31.4734 46.6097 31.4734C46.0771 31.4734 45.5909 31.9734 45.2767 32.7105V37.1394C45.2767 37.9025 45.5678 38.8311 45.9548 39.6169C46.3682 40.4968 46.1731 40.9741 45.2767 40.9969H40.206C39.3328 40.9741 39.1376 40.4968 39.5279 39.6169C39.9414 38.8311 40.206 37.9025 40.206 37.1394V33.1618C40.206 32.3988 39.9381 31.4701 39.5279 30.6844C39.1409 29.8044 39.3592 29.4927 40.206 29.3044L44.0131 28.5673C44.764 28.4245 45.2734 29.0674 45.2734 29.8044V30.3986Z" fill="#B96645"/>
<path d="M68.2453 30.4473C69.3369 28.9472 70.7195 28.327 72.1021 28.327C73.9213 28.327 75.0856 29.3986 75.3767 30.5415C75.7405 31.85 74.9897 33.2787 73.5806 33.6359C73.3623 33.6846 73.144 33.7073 72.9025 33.7073C71.9565 33.7073 70.9609 33.3274 70.9146 32.4215C70.8915 31.85 70.478 31.4701 69.8959 31.4701C69.2409 31.4701 68.5629 31.9702 68.2453 32.7073V37.1362C68.2453 37.8992 68.5364 38.8279 68.9234 39.6136C69.3369 40.4936 69.1417 40.9709 68.2453 40.9936H63.1746C62.3014 40.9709 62.1062 40.4936 62.4965 39.6136C62.91 38.8279 63.1746 37.8992 63.1746 37.1362V33.1586C63.1746 32.3955 62.9067 31.4669 62.4965 30.6811C62.1095 29.8012 62.3278 29.4895 63.1746 29.3011L66.9818 28.5641C67.7326 28.4212 68.242 29.0641 68.242 29.8012V30.4441L68.2453 30.4473Z" fill="#B96645"/>
<path d="M89.9306 37.1362C89.9306 37.8992 90.2216 38.8279 90.6086 39.6136C91.0221 40.4936 90.8038 40.9936 89.9306 40.9936H86.1465C85.3692 40.9936 84.8863 40.4936 84.8863 39.7565V39.0649C83.7716 40.5877 82.3162 41.2306 80.7616 41.2306C78.2147 41.2306 76.6369 39.5877 76.6369 37.1102V33.1586C76.6369 32.3955 76.369 31.4669 75.9588 30.6811C75.5718 29.8012 75.7637 29.3239 76.6369 29.3011L80.4441 28.5641C81.1949 28.4212 81.7043 29.0641 81.7043 29.8012V35.8731C81.7043 37.1816 82.2865 38.0875 83.2093 38.0875C83.6691 38.0875 84.4464 37.8505 84.883 36.8245V33.1586C84.883 32.3955 84.5919 31.4669 84.1785 30.6811C83.7915 29.8012 83.9833 29.3239 84.883 29.3011L88.667 28.5641C89.4179 28.4212 89.9272 29.0641 89.9272 29.8012V37.1362H89.9306Z" fill="#B96645"/>
<path d="M103.734 35.8504C104.074 35.9218 104.243 36.1848 104.025 37.0647C103.393 39.4221 101.091 41.2306 98.1303 41.2306C94.6374 41.2306 91.4355 38.7077 91.4355 34.7788C91.4355 30.85 94.6374 28.327 98.7621 28.327C101.068 28.327 103.396 29.1128 103.929 30.85C104.365 32.3274 103.37 33.756 101.891 33.9703C100.313 34.2333 99.4666 32.8988 99.6585 31.2331C99.804 29.9246 99.2219 29.8044 98.858 29.8044C97.4754 29.8044 96.6253 31.3987 96.6253 33.8989C96.6253 36.3991 97.5482 38.0193 99.7048 38.0193C100.846 38.0193 102.129 37.5907 102.834 36.4478C103.125 35.925 103.439 35.7822 103.73 35.8536L103.734 35.8504Z" fill="#B96645"/>
<path d="M111.106 30.0642H110.064C107.104 30.0642 107.081 32.73 105.893 33.3015C105.771 33.3502 105.652 33.3956 105.53 33.3956C105.166 33.3956 104.875 33.0872 104.875 32.4443V29.2297C104.875 28.8238 105.166 28.5641 105.553 28.5641H116.055C117.097 28.5641 117.487 29.1583 117.097 29.8012L111.421 39.4935H112.439C115.4 39.4935 115.423 36.8017 116.61 36.2303C116.733 36.1816 116.852 36.1588 116.974 36.1588C117.338 36.1588 117.629 36.4446 117.629 37.1102V40.3247C117.629 40.7046 117.361 40.9904 116.951 40.9904H106.472C105.454 40.9904 105.09 40.3247 105.477 39.6559L111.103 30.061L111.106 30.0642Z" fill="#B96645"/>
<path d="M130.609 35.8504C130.949 35.9218 131.118 36.1848 130.9 37.0647C130.268 39.4221 127.966 41.2306 125.005 41.2306C121.512 41.2306 118.311 38.7077 118.311 34.7788C118.311 30.85 121.512 28.327 125.273 28.327C127.943 28.327 131.24 29.5642 131.24 32.0903C131.24 34.3535 128.67 36.4478 123.891 36.1848C124.327 37.3764 125.2 38.0193 126.583 38.0193C127.724 38.0193 129.008 37.5907 129.712 36.4478C130.003 35.925 130.317 35.7822 130.609 35.8536V35.8504ZM126.679 32.1618C126.679 30.496 125.974 29.8044 125.247 29.8044C124.106 29.8044 123.5 31.3987 123.5 33.6846C123.5 34.1846 123.55 34.636 123.596 35.0418C125.802 35.1133 126.676 34.0645 126.676 32.1618H126.679Z" fill="#B96645"/>
<path d="M137.981 30.4701C139.096 28.9699 140.551 28.327 142.106 28.327C144.653 28.327 146.204 29.9473 146.204 32.4475V37.1394C146.204 37.9025 146.495 38.8311 146.882 39.6169C147.296 40.4968 147.101 40.9741 146.204 40.9969H141.16C140.264 40.9741 140.069 40.4968 140.456 39.6169C140.869 38.8311 141.16 37.9025 141.16 37.1394V33.6878C141.16 32.3793 140.578 31.4734 139.655 31.4734C139.195 31.4734 138.418 31.6877 137.981 32.7105V37.1394C137.981 37.9025 138.272 38.8311 138.659 39.6169C139.073 40.4968 138.878 40.9741 137.981 40.9969H132.911C132.037 40.9741 131.842 40.4968 132.233 39.6169C132.646 38.8311 132.911 37.9025 132.911 37.1394V33.1618C132.911 32.3988 132.643 31.4701 132.233 30.6844C131.846 29.8044 132.064 29.4927 132.911 29.3044L136.718 28.5673C137.469 28.4245 137.978 29.0674 137.978 29.8044V30.4701H137.981Z" fill="#B96645"/>
<path d="M153.7 37.1362C153.7 37.8992 153.991 38.8279 154.378 39.6136C154.791 40.4936 154.596 40.9709 153.7 40.9936H148.629C147.756 40.9709 147.561 40.4936 147.951 39.6136C148.364 38.8279 148.629 37.8992 148.629 37.1362V33.1586C148.629 32.3955 148.361 31.4669 147.951 30.6811C147.564 29.8012 147.782 29.4895 148.629 29.3011L152.436 28.5641C153.187 28.4212 153.696 29.0641 153.696 29.8012V37.1362H153.7Z" fill="#B96645"/>
<path d="M160.13 31.4929C160.226 32.5417 159.524 33.9703 157.897 33.7301C156.491 33.5158 155.641 32.2527 155.982 30.9441C156.614 28.5641 160.566 28.3238 162.508 28.3238C165.078 28.3238 168.161 28.7524 168.161 32.1585V37.5161C168.161 38.3246 168.257 38.8246 168.743 38.8246C169.252 38.8246 169.348 38.2304 169.666 38.4187C169.934 38.6103 169.835 39.0389 169.616 39.4903C169.057 40.5845 168.015 41.2274 166.464 41.2274C165.105 41.2274 164.039 40.7046 163.504 39.6071C162.581 40.7014 161.344 41.2274 159.551 41.2274C156.908 41.2274 155.234 40.0617 155.234 38.133C155.234 34.7983 160.11 33.5612 163.117 33.0839V32.0351C163.117 30.7006 162.73 29.7979 161.856 29.7979C161.347 29.7979 160.06 30.1324 160.133 31.4896L160.13 31.4929ZM160.394 37.4706C160.394 38.3993 160.904 38.9935 161.582 38.9935C162.405 38.9935 163.11 38.0648 163.11 37.6135V34.6133C161.436 35.0419 160.394 36.0906 160.394 37.4706Z" fill="#B96645"/>
<path d="M152.747 25.3398C152.621 25.9632 151.741 26.9146 151.083 27.5575C150.663 27.9666 150.002 28.0023 149.538 27.6452C148.764 27.051 147.673 26.1873 147.458 25.8885C147.121 25.4177 147.23 24.4047 148.282 24.015C149.333 23.6254 149.889 24.3625 149.889 24.3625C149.889 24.3625 150.508 23.6091 151.513 23.6416C152.519 23.6741 152.959 24.3202 152.75 25.3398H152.747Z" fill="#F79C80"/>
<path d="M23.5217 0.568748C12.1433 -1.60674 6.97994 2.81568 3.72848 7.96867C1.16502 12.0339 0.761478 16.7129 0.83094 19.5605C0.920248 23.2198 2.12094 26.337 4.00963 29.5093C6.04717 32.9349 10.2347 37.3476 14.1411 40.5913C15.5072 41.7245 19.0663 42.7668 21.6893 41.2245C26.6673 38.2957 28.986 36.2533 32.0423 33.2369C34.2056 31.1003 36.984 26.9766 38.2112 23.0023C41.3535 10.6669 36.7161 3.08842 23.5217 0.568748ZM30.5969 27.0091C28.0301 30.8471 22.1623 34.4642 17.1213 33.8148C13.5292 33.3505 5.74287 25.9571 6.11002 19.9176C6.11333 15.19 8.6371 10.9397 10.4398 6.73481C10.6085 6.34517 10.8797 5.988 11.1509 5.6568C11.9845 4.63075 12.8709 4.48139 13.7078 5.50419C14.7696 6.7965 14.7828 8.157 15.6064 9.61815C15.6494 9.69283 15.6957 9.76102 15.7453 9.82596C15.4443 9.86817 15.1466 9.91687 14.8489 9.97857C14.5777 10.0338 14.3759 10.2059 14.2899 10.4559C14.194 10.7351 14.2701 11.0663 14.4785 11.2968C14.6703 11.5079 14.9449 11.5988 15.2326 11.5404C18.7719 10.8228 22.4897 11.5404 26.6078 13.7353C26.7302 13.8003 26.8592 13.8328 26.9849 13.8328C27.266 13.8328 27.5373 13.6769 27.6927 13.4009C27.911 13.0048 27.782 12.5502 27.3917 12.3391C27.1006 12.1833 26.8129 12.0372 26.5284 11.8975C26.7864 11.7514 27.0444 11.5274 27.4016 11.2319C28.4833 10.3455 29.3036 9.39411 29.9618 8.95576C31.2783 8.07582 32.6179 8.82263 32.7502 10.339C33.2463 16.0602 33.9509 22.0055 30.5936 27.0188L30.5969 27.0091Z" fill="#B96645"/>
<path d="M27.1638 20.0504C26.6875 19.9141 26.1847 20.1868 26.0491 20.6544C25.7811 21.5635 24.296 22.2292 22.8042 22.1058C21.2827 21.9792 19.7711 21.083 19.2088 19.9693C19.0798 19.7127 18.8284 19.5309 18.5406 19.4887C18.2495 19.4432 17.9585 19.5407 17.7534 19.7485C17.2308 20.281 16.2682 20.5505 15.4115 20.4044C14.5515 20.2582 13.9396 19.6575 13.9628 19.3393C13.9991 18.8523 13.6254 18.4269 13.1292 18.3912C12.6364 18.3555 12.1998 18.7224 12.1634 19.2095C12.0641 20.5375 13.3806 21.8558 15.1006 22.148C16.1657 22.3298 17.2804 22.1318 18.1701 21.635C19.1889 22.8591 20.8692 23.7195 22.6455 23.8657C22.8175 23.8786 22.9861 23.8851 23.1548 23.8851C25.328 23.8851 27.3027 22.7389 27.7724 21.1414C27.9113 20.6706 27.6335 20.1836 27.1571 20.0472L27.1638 20.0504Z" fill="#B96645"/>
<path d="M21.1834 18.06C20.9585 18.4172 20.2308 18.8036 19.6189 19.0828C19.0963 19.3199 18.4744 19.1478 18.1569 18.677C17.7633 18.0892 17.287 17.3457 17.2142 17.1119C17.0918 16.6995 17.4259 16.0306 18.2892 16.0274C19.1492 16.0242 19.3642 16.6703 19.3642 16.6703C19.3642 16.6703 20.0026 16.3066 20.7204 16.5826C21.4381 16.8586 21.5903 17.4139 21.1801 18.0665L21.1834 18.06Z" fill="#F79C80"/>
</g>
<defs>
<clipPath id="clip0_44_306">
<rect width="169" height="42" fill="white" transform="translate(0.824585 0.000183105)"/>
</clipPath>
</defs>
</svg>
