<svg width="30" height="32" viewBox="0 0 30 32" fill="none" xmlns="http://www.w3.org/2000/svg">
<path d="M27.6281 9.54513C25.3515 2.78342 17.7044 0.587297 14.1654 0.334453C-0.501226 -0.965862 0.9216 9.54513 0.374338 15.1799C-0.172924 20.8147 3.65798 34.6849 18.1057 31.5424C32.5535 28.3999 30.4739 17.9973 27.6281 9.54513Z" fill="#FFF8EF"/>
<path d="M9.78904 9.43145C9.8463 10.2808 9.98946 11.1111 10.2185 11.9033L9.07326 13.0485C8.68196 11.9033 8.43383 10.6912 8.34793 9.43145H9.78904ZM19.1992 20.903C20.0104 21.1321 20.8407 21.2752 21.6805 21.3325V22.7545C20.4208 22.6686 19.2087 22.4205 18.0539 22.0387L19.1992 20.903ZM10.7052 7.5227H7.36493C6.84002 7.5227 6.41055 7.95217 6.41055 8.47707C6.41055 17.4386 13.6733 24.7014 22.6349 24.7014C23.1598 24.7014 23.5893 24.272 23.5893 23.7471V20.4163C23.5893 19.8914 23.1598 19.4619 22.6349 19.4619C21.4515 19.4619 20.2967 19.271 19.2278 18.9179C19.1324 18.8798 19.0274 18.8702 18.9319 18.8702C18.6838 18.8702 18.4452 18.9656 18.2543 19.147L16.1547 21.2466C13.4538 19.8628 11.2397 17.6582 9.86539 14.9573L11.965 12.8577C12.2322 12.5904 12.3086 12.2182 12.2036 11.8842C11.8505 10.8153 11.6596 9.67004 11.6596 8.47707C11.6596 7.95217 11.2301 7.5227 10.7052 7.5227Z" fill="#B96645"/>
</svg>
