<svg width="31" height="32" viewBox="0 0 31 32" fill="none" xmlns="http://www.w3.org/2000/svg">
<path d="M28.1282 9.54531C25.8516 2.78359 18.2045 0.587473 14.6655 0.334628C-0.00110435 -0.965687 1.42172 9.54531 0.87446 15.1801C0.327198 20.8148 4.1581 34.685 18.6058 31.5426C33.0536 28.4001 30.974 17.9975 28.1282 9.54531Z" fill="#F79C80"/>
<path d="M10.2893 9.43164C10.3465 10.281 10.4897 11.1113 10.7187 11.9035L9.57347 13.0487C9.18218 11.9035 8.93404 10.6914 8.84815 9.43164H10.2893ZM19.6994 20.9032C20.5106 21.1323 21.3409 21.2754 22.1808 21.3327V22.7547C20.921 22.6688 19.7089 22.4207 18.5541 22.0389L19.6994 20.9032ZM11.2055 7.52289H7.86514C7.34024 7.52289 6.91077 7.95236 6.91077 8.47726C6.91077 17.4388 14.1736 24.7016 23.1351 24.7016C23.66 24.7016 24.0895 24.2722 24.0895 23.7473V20.4165C24.0895 19.8916 23.66 19.4621 23.1351 19.4621C21.9517 19.4621 20.7969 19.2712 19.728 18.9181C19.6326 18.8799 19.5276 18.8704 19.4322 18.8704C19.184 18.8704 18.9454 18.9658 18.7546 19.1472L16.6549 21.2468C13.9541 19.863 11.7399 17.6583 10.3656 14.9575L12.4652 12.8578C12.7325 12.5906 12.8088 12.2184 12.7038 11.8844C12.3507 10.8155 12.1598 9.67023 12.1598 8.47726C12.1598 7.95236 11.7304 7.52289 11.2055 7.52289Z" fill="#FFF8EF"/>
</svg>
