<svg width="296" height="97" viewBox="0 0 296 97" fill="none" xmlns="http://www.w3.org/2000/svg">
<g clip-path="url(#clip0_126_1542)">
<path d="M89.5364 18.9069C91.3207 16.3652 93.4874 15.3081 96.0365 15.3081C101.262 15.3081 104.576 19.8831 104.576 26.9131C104.576 33.9432 101.262 38.264 96.1234 38.264C93.5338 38.264 91.3207 37.2069 89.5364 34.6652V41.1465C89.5364 42.504 90.0462 44.156 90.724 45.554C91.4482 47.1194 91.1064 47.9686 89.5364 48.009H80.6551C79.1257 47.9686 78.7839 47.1194 79.4675 45.554C80.1917 44.156 80.6551 42.504 80.6551 41.1465V23.9036C80.6551 22.5461 80.1859 20.894 79.4675 19.4961C78.7897 17.9306 79.172 17.3761 80.6551 17.0411L87.3233 15.7298C88.6384 15.4756 89.5306 16.6194 89.5306 17.9306V18.9069H89.5364ZM89.5364 30.5581C90.3011 32.2506 91.6162 32.6781 92.4272 32.6781C94.2985 32.6781 95.4861 30.304 95.4861 26.4915C95.4861 24.9664 95.3181 20.8998 92.5141 20.8998C91.622 20.8998 90.3069 21.281 89.5421 23.0198V30.5581H89.5364Z" fill="#B96645"/>
<path d="M131.086 30.9795C131.086 32.337 131.596 33.9891 132.274 35.387C132.998 36.9524 132.616 37.842 131.086 37.842H124.459C123.097 37.842 122.251 36.9524 122.251 35.6412V34.4108C120.299 37.1199 117.75 38.2637 115.027 38.2637C110.566 38.2637 107.803 35.3408 107.803 30.9333V23.9033C107.803 22.5458 107.334 20.8937 106.615 19.4958C105.937 17.9303 106.273 17.0812 107.803 17.0408L114.471 15.7295C115.786 15.4753 116.678 16.6191 116.678 17.9303V28.7324C116.678 31.0604 117.698 32.672 119.314 32.672C120.119 32.672 121.481 32.2503 122.246 30.425V23.9033C122.246 22.5458 121.736 20.8937 121.012 19.4958C120.334 17.9303 120.67 17.0812 122.246 17.0408L128.873 15.7295C130.188 15.4753 131.081 16.6191 131.081 17.9303V30.9795H131.086Z" fill="#B96645"/>
<path d="M144.851 19.1206C146.804 16.4519 149.353 15.3081 152.076 15.3081C156.537 15.3081 159.254 18.1906 159.254 22.6385V30.9856C159.254 32.3431 159.763 33.9952 160.441 35.3931C161.165 36.9585 160.824 37.8077 159.254 37.8481H150.419C148.849 37.8077 148.507 36.9585 149.185 35.3931C149.909 33.9952 150.419 32.3431 150.419 30.9856V24.8451C150.419 22.5172 149.399 20.9056 147.783 20.9056C146.977 20.9056 145.616 21.2868 144.851 23.1064V30.9856C144.851 32.3431 145.361 33.9952 146.039 35.3931C146.763 36.9585 146.421 37.8077 144.851 37.8481H135.97C134.441 37.8077 134.099 36.9585 134.782 35.3931C135.507 33.9952 135.97 32.3431 135.97 30.9856V23.9093C135.97 22.5519 135.501 20.8998 134.782 19.5019C134.105 17.9364 134.487 17.3819 135.97 17.0468L142.638 15.7356C143.953 15.4814 144.846 16.6252 144.846 17.9364V19.1206H144.851Z" fill="#B96645"/>
<path d="M172.723 26.0233L176.037 22.6325C177.398 21.2346 177.607 19.5825 178.244 18.1442C179.05 16.6192 180.243 15.77 181.813 15.7296H187.716C189.205 15.77 188.991 16.7867 186.697 18.3983C184.698 19.7558 183.51 19.9233 180.62 22.6325L179.258 23.9034C180.915 23.8167 182.404 24.8334 183.296 26.7396L185.248 30.9738C185.886 32.3313 187.12 33.9834 188.522 35.3813C189.964 36.9467 190.011 37.7959 188.481 37.8363H178.667C177.097 37.7959 176.373 36.9467 176.332 35.3813C176.373 33.9834 176.078 32.3313 175.481 30.9738L174.334 28.5592L172.717 30.0438V30.9738C172.717 32.3313 173.227 33.9834 173.905 35.3813C174.629 36.9467 174.287 37.7959 172.717 37.8363H163.836C162.307 37.7959 161.965 36.9467 162.649 35.3813C163.373 33.9834 163.836 32.3313 163.836 30.9738V13.7309C163.836 12.3734 163.367 10.7213 162.649 9.32342C161.971 7.75798 162.353 7.20344 163.836 6.8684L170.504 5.55713C171.819 5.30296 172.712 6.44671 172.712 7.75798V26.0176L172.723 26.0233Z" fill="#B96645"/>
<path d="M202.206 15.7295H206.029C206.707 15.7295 207.136 16.1512 207.136 17.0407C207.136 17.9303 206.713 18.3982 206.029 18.3982H202.206V31.6553C202.206 33.0937 202.802 33.9833 204.204 33.9833C204.882 33.9833 205.606 33.8158 206.116 33.1803C206.33 32.9262 206.585 32.7991 206.84 32.7991C206.968 32.7991 207.095 32.8395 207.263 32.9262C207.773 33.267 207.941 33.9024 207.391 35C206.244 37.3279 203.694 38.2637 200.636 38.2637C196.088 38.2637 193.33 36.2304 193.33 31.8229V18.3925H190.949C190.271 18.3925 189.843 17.9246 189.843 17.035C189.843 16.1454 190.265 15.7237 190.949 15.7237H191.673C195.792 15.7237 196.516 12.9683 197.577 10.8945C198.509 9.07492 199.234 8.64746 200.421 8.64746C201.736 8.64746 202.206 9.11536 202.206 9.91829V15.7237V15.7295Z" fill="#B96645"/>
<path d="M77.8511 54.2938C79.6355 51.7117 81.9297 50.6084 84.6931 50.6084C88.0938 50.6084 90.1736 52.22 90.9789 54.9292C92.8501 51.8792 95.2254 50.6084 98.2032 50.6084C102.751 50.6084 104.918 53.4909 104.918 57.9388V66.2859C104.918 67.6434 105.387 69.2954 106.105 70.6934C106.83 72.2588 106.447 73.108 104.918 73.1484H96.0365C94.4665 73.108 94.1247 72.2588 94.8489 70.6934C95.573 69.2954 96.0365 67.6434 96.0365 66.2859V60.1454C96.0365 57.8175 95.0169 56.2058 93.7423 56.2058C92.7632 56.2058 91.9174 57.0954 91.3612 58.4067V66.2859C91.3612 67.6434 91.8711 69.2954 92.5952 70.6934C93.2731 72.2588 92.937 73.108 91.3612 73.1484H82.5264C80.9564 73.108 80.6146 72.2588 81.3387 70.6934C82.0166 69.2954 82.5264 67.6434 82.5264 66.2859V60.1454C82.5264 57.8175 81.5068 56.2058 80.1917 56.2058C79.2589 56.2058 78.4073 57.0954 77.8569 58.4067V66.2859C77.8569 67.6434 78.3668 69.2954 79.0446 70.6934C79.7687 72.2588 79.4269 73.108 77.8569 73.1484H68.9757C67.4463 73.108 67.1045 72.2588 67.7881 70.6934C68.5123 69.2954 68.9757 67.6434 68.9757 66.2859V59.2096C68.9757 57.8522 68.5065 56.2001 67.7881 54.8022C67.1103 53.2367 67.4926 52.6822 68.9757 52.3471L75.6439 51.0359C76.959 50.7817 77.8511 51.9254 77.8511 53.2367V54.2938Z" fill="#B96645"/>
<path d="M118.086 54.3805C119.998 51.7117 122.419 50.6084 124.841 50.6084C128.027 50.6084 130.067 52.5147 130.576 54.548C131.214 56.8759 129.899 59.4176 127.431 60.053C127.048 60.1397 126.666 60.1801 126.243 60.1801C124.586 60.1801 122.842 59.5042 122.761 57.8926C122.721 56.8759 121.997 56.2001 120.977 56.2001C119.83 56.2001 118.642 57.0897 118.086 58.4009V66.2801C118.086 67.6376 118.596 69.2897 119.274 70.6876C119.998 72.253 119.656 73.1022 118.086 73.1426H109.205C107.675 73.1022 107.334 72.253 108.017 70.6876C108.741 69.2897 109.205 67.6376 109.205 66.2801V59.2039C109.205 57.8464 108.736 56.1943 108.017 54.7964C107.339 53.2309 107.722 52.6764 109.205 52.3414L115.873 51.0301C117.188 50.7759 118.08 51.9197 118.08 53.2309V54.3747L118.086 54.3805Z" fill="#B96645"/>
<path d="M156.067 66.2798C156.067 67.6373 156.577 69.2894 157.255 70.6873C157.979 72.2527 157.597 73.1423 156.067 73.1423H149.44C148.078 73.1423 147.232 72.2527 147.232 70.9415V69.7111C145.28 72.4202 142.731 73.564 140.008 73.564C135.547 73.564 132.784 70.6411 132.784 66.2336V59.2036C132.784 57.8461 132.314 56.194 131.596 54.7961C130.918 53.2306 131.254 52.3815 132.784 52.3411L139.452 51.0298C140.767 50.7756 141.659 51.9194 141.659 53.2306V64.0327C141.659 66.3607 142.679 67.9723 144.295 67.9723C145.1 67.9723 146.462 67.5506 147.227 65.7253V59.2036C147.227 57.8461 146.717 56.194 145.993 54.7961C145.315 53.2306 145.651 52.3815 147.227 52.3411L153.854 51.0298C155.169 50.7756 156.061 51.9194 156.061 53.2306V66.2798H156.067Z" fill="#B96645"/>
<path d="M180.243 63.9926C180.84 64.1197 181.135 64.5876 180.753 66.153C179.646 70.3468 175.614 73.5643 170.429 73.5643C164.311 73.5643 158.703 69.0759 158.703 62.0863C158.703 55.0968 164.311 50.6084 171.536 50.6084C175.573 50.6084 179.652 52.0063 180.585 55.0968C181.349 57.7251 179.606 60.2667 177.016 60.648C174.253 61.1159 172.77 58.7417 173.106 55.7784C173.36 53.4504 172.341 53.2367 171.704 53.2367C169.282 53.2367 167.793 56.073 167.793 60.5209C167.793 64.9688 169.409 67.8513 173.187 67.8513C175.185 67.8513 177.433 67.0888 178.667 65.0555C179.177 64.1255 179.727 63.8713 180.237 63.9984L180.243 63.9926Z" fill="#B96645"/>
<path d="M193.156 53.6985H191.331C186.146 53.6985 186.106 58.4411 184.026 59.4577C183.812 59.5444 183.603 59.6252 183.389 59.6252C182.751 59.6252 182.242 59.0765 182.242 57.9327V52.214C182.242 51.4919 182.751 51.0298 183.429 51.0298H201.823C203.648 51.0298 204.332 52.0869 203.648 53.2306L193.707 70.4736H195.491C200.676 70.4736 200.717 65.6848 202.796 64.6682C203.011 64.5815 203.219 64.5411 203.434 64.5411C204.071 64.5411 204.581 65.0494 204.581 66.2336V71.9523C204.581 72.6282 204.112 73.1365 203.393 73.1365H185.04C183.255 73.1365 182.618 71.9523 183.296 70.7624L193.151 53.6928L193.156 53.6985Z" fill="#B96645"/>
<path d="M227.314 63.9926C227.911 64.1197 228.206 64.5876 227.824 66.153C226.717 70.3468 222.685 73.5643 217.5 73.5643C211.382 73.5643 205.774 69.0759 205.774 62.0863C205.774 55.0968 211.382 50.6084 217.969 50.6084C222.645 50.6084 228.42 52.8093 228.42 57.3034C228.42 61.3296 223.919 65.0555 215.548 64.5876C216.312 66.7076 217.842 67.8513 220.263 67.8513C222.262 67.8513 224.51 67.0888 225.744 65.0555C226.254 64.1255 226.804 63.8713 227.314 63.9984V63.9926ZM220.431 57.4305C220.431 54.4671 219.197 53.2367 217.923 53.2367C215.924 53.2367 214.864 56.073 214.864 60.1397C214.864 61.0292 214.951 61.8322 215.032 62.5542C218.896 62.6813 220.426 60.8155 220.426 57.4305H220.431Z" fill="#B96645"/>
<path d="M240.227 54.4209C242.18 51.7521 244.729 50.6084 247.452 50.6084C251.913 50.6084 254.63 53.4909 254.63 57.9388V66.2859C254.63 67.6434 255.139 69.2954 255.817 70.6934C256.541 72.2588 256.2 73.108 254.63 73.1484H245.795C244.225 73.108 243.883 72.2588 244.561 70.6934C245.285 69.2954 245.795 67.6434 245.795 66.2859V60.1454C245.795 57.8175 244.775 56.2058 243.159 56.2058C242.354 56.2058 240.992 56.5871 240.227 58.4067V66.2859C240.227 67.6434 240.737 69.2954 241.415 70.6934C242.139 72.2588 241.797 73.108 240.227 73.1484H231.346C229.817 73.108 229.475 72.2588 230.159 70.6934C230.883 69.2954 231.346 67.6434 231.346 66.2859V59.2096C231.346 57.8522 230.877 56.2001 230.159 54.8022C229.481 53.2367 229.863 52.6822 231.346 52.3471L238.014 51.0359C239.329 50.7817 240.222 51.9254 240.222 53.2367V54.4209H240.227Z" fill="#B96645"/>
<path d="M267.757 66.2798C267.757 67.6373 268.267 69.2894 268.945 70.6873C269.669 72.2527 269.327 73.1019 267.757 73.1423H258.876C257.347 73.1019 257.005 72.2527 257.689 70.6873C258.413 69.2894 258.876 67.6373 258.876 66.2798V59.2036C258.876 57.8461 258.407 56.194 257.689 54.7961C257.011 53.2306 257.393 52.6761 258.876 52.3411L265.544 51.0298C266.859 50.7756 267.752 51.9194 267.752 53.2306V66.2798H267.757Z" fill="#B96645"/>
<path d="M279.02 56.2404C279.188 58.1062 277.959 60.6479 275.109 60.2204C272.647 59.8392 271.158 57.5921 271.755 55.2642C272.861 51.03 279.784 50.6025 283.185 50.6025C287.687 50.6025 293.086 51.365 293.086 57.4246V66.9559C293.086 68.3942 293.254 69.2838 294.106 69.2838C294.998 69.2838 295.166 68.2267 295.722 68.5617C296.191 68.9026 296.017 69.6651 295.635 70.468C294.656 72.4147 292.831 73.5584 290.114 73.5584C287.733 73.5584 285.867 72.6284 284.929 70.6759C283.313 72.6226 281.146 73.5584 278.006 73.5584C273.377 73.5584 270.445 71.4847 270.445 68.0534C270.445 62.1209 278.985 59.9201 284.251 59.0709V57.2051C284.251 54.831 283.573 53.2251 282.044 53.2251C281.152 53.2251 278.898 53.8201 279.025 56.2346L279.02 56.2404ZM279.483 66.875C279.483 68.5271 280.375 69.5842 281.563 69.5842C283.005 69.5842 284.239 67.9321 284.239 67.1292V61.7917C281.308 62.5542 279.483 64.42 279.483 66.875Z" fill="#B96645"/>
<path d="M266.089 45.2939C265.869 46.403 264.328 48.0955 263.175 49.2393C262.439 49.9671 261.28 50.0307 260.469 49.3953C259.114 48.3382 257.202 46.8016 256.825 46.2702C256.234 45.4326 256.426 43.6303 258.268 42.9371C260.11 42.2439 261.083 43.5552 261.083 43.5552C261.083 43.5552 262.167 42.215 263.928 42.2728C265.689 42.3306 266.46 43.4801 266.095 45.2939H266.089Z" fill="#F79C80"/>
<path d="M39.7539 1.22476C19.8248 -2.6455 10.7813 5.22212 5.08645 14.3895C0.596596 21.6217 -0.110193 29.9456 0.0114673 35.0116C0.167888 41.5218 2.27088 47.0672 5.57888 52.7109C9.14759 58.8051 16.482 66.6554 23.3239 72.4262C25.7166 74.4422 31.9502 76.2964 36.5444 73.5526C45.2634 68.3422 49.3245 64.7087 54.6776 59.3423C58.4664 55.5414 63.3329 48.2052 65.4822 41.1347C70.9859 19.1897 62.8636 5.70734 39.7539 1.22476ZM52.1459 48.263C47.6502 55.0908 37.3728 61.5259 28.5438 60.3706C22.2522 59.5445 8.6146 46.3914 9.25767 35.647C9.26346 27.2364 13.6838 19.675 16.8412 12.1944C17.1366 11.5012 17.6117 10.8658 18.0867 10.2766C19.5467 8.45119 21.0993 8.18547 22.565 10.0051C24.4247 12.3041 24.4478 14.7245 25.8904 17.3239C25.9657 17.4568 26.0468 17.5781 26.1337 17.6936C25.6065 17.7687 25.0851 17.8554 24.5637 17.9651C24.0887 18.0633 23.7353 18.3695 23.5846 18.8143C23.4166 19.311 23.5499 19.9003 23.9149 20.3104C24.2509 20.6859 24.7317 20.8476 25.2357 20.7436C31.4346 19.467 37.9464 20.7436 45.1591 24.6486C45.3735 24.7641 45.5994 24.8218 45.8195 24.8218C46.312 24.8218 46.787 24.5446 47.0593 24.0536C47.4417 23.3488 47.2157 22.5401 46.5321 22.1646C46.0223 21.8874 45.5183 21.6274 45.0201 21.379C45.4719 21.1191 45.9238 20.7205 46.5495 20.1949C48.4439 18.6179 49.8807 16.9253 51.0336 16.1455C53.3393 14.5801 55.6856 15.9087 55.9174 18.6063C56.7864 28.7845 58.0204 39.3614 52.1401 48.2803L52.1459 48.263Z" fill="#B96645"/>
<path d="M46.1325 35.8838C45.2983 35.6412 44.4177 36.1264 44.1802 36.9582C43.7109 38.5757 41.1097 39.7599 38.4969 39.5403C35.8319 39.3151 33.1844 37.7207 32.1995 35.7394C31.9736 35.2831 31.5333 34.9596 31.0292 34.8845C30.5194 34.8036 30.0096 34.9769 29.6504 35.3466C28.7351 36.2939 27.0492 36.7734 25.5487 36.5135C24.0425 36.2535 22.9707 35.1849 23.0112 34.6188C23.075 33.7523 22.4203 32.9955 21.5513 32.932C20.6881 32.8685 19.9234 33.5212 19.8596 34.3877C19.6858 36.7503 21.9916 39.0956 25.0041 39.6154C26.8696 39.9389 28.822 39.5866 30.3804 38.7028C32.1647 40.8805 35.1078 42.4113 38.2188 42.6712C38.5201 42.6943 38.8155 42.7059 39.111 42.7059C42.9172 42.7059 46.3758 40.6668 47.1985 37.8247C47.4418 36.9871 46.9552 36.1206 46.1209 35.878L46.1325 35.8838Z" fill="#B96645"/>
<path d="M35.6581 32.3427C35.2642 32.9781 33.9896 33.6655 32.9178 34.1623C32.0025 34.584 30.9133 34.2778 30.3572 33.4402C29.6678 32.3947 28.8335 31.0719 28.7061 30.6559C28.4917 29.9223 29.0768 28.7324 30.5889 28.7266C32.0952 28.7208 32.4718 29.8703 32.4718 29.8703C32.4718 29.8703 33.5899 29.2234 34.847 29.7144C36.1042 30.2054 36.3707 31.1932 35.6523 32.3542L35.6581 32.3427Z" fill="#F79C80"/>
<path d="M84.6641 89.5131C84.5946 90.3218 84.5193 91.1537 84.4266 91.997C84.3339 92.8404 84.2122 93.6318 84.0616 94.377C84.0211 94.556 83.9689 94.6889 83.9052 94.764C83.8357 94.8391 83.743 94.8911 83.6155 94.92C83.5112 94.9373 83.3664 94.9084 83.181 94.8218C82.9956 94.7351 82.8392 94.6138 82.7175 94.4521C82.5553 94.2325 82.3815 93.9899 82.1961 93.73C82.0108 93.47 81.808 93.1986 81.5936 92.9271C81.3793 92.6556 81.1533 92.3841 80.9216 92.1183C80.6899 91.8526 80.4408 91.6042 80.1801 91.3732C80.1511 92.0028 80.1279 92.6267 80.1105 93.239C80.0932 93.8513 80.0932 94.4694 80.1105 95.0932C80.1105 95.1799 80.0352 95.2203 79.8788 95.2203C79.6992 95.2203 79.5486 95.1279 79.4327 94.9431C79.3168 94.7582 79.2531 94.5676 79.2299 94.377C79.201 94.1863 79.1894 93.9148 79.1894 93.5567C79.1894 93.1985 79.1952 92.8231 79.2126 92.436C79.2299 92.0432 79.2415 91.6678 79.2647 91.3039C79.2821 90.9399 79.3053 90.6569 79.3226 90.4431C79.34 90.2121 79.3979 90.0503 79.4849 89.9406C79.5775 89.8366 79.6644 89.7904 79.7513 89.7962C79.9425 89.8135 80.07 89.8713 80.1337 89.9579C80.1974 90.0503 80.2322 90.1601 80.2438 90.293C80.5856 90.5414 80.9042 90.8071 81.1997 91.0959C81.4951 91.3847 81.7616 91.6735 82.005 91.9681C82.2483 92.2628 82.4742 92.5574 82.677 92.8462C82.8798 93.135 83.0767 93.4007 83.2563 93.6376C83.3722 93.0657 83.4649 92.4245 83.5344 91.7198C83.6039 91.015 83.6792 90.2756 83.7546 89.5016C83.743 89.4092 83.8009 89.3167 83.9284 89.2243C84.05 89.1319 84.1659 89.0914 84.2702 89.103C84.5367 89.1203 84.6699 89.2532 84.6699 89.5016L84.6641 89.5131Z" fill="#F79C80" stroke="#F79C80" stroke-width="0.54" stroke-miterlimit="10"/>
<path d="M88.4124 95.3762C88.3661 95.5379 88.3023 95.6823 88.227 95.8094C88.1517 95.9365 88.0706 96.0116 87.9837 96.0289C87.8041 96.0751 87.6651 96.0462 87.5666 95.9423C87.4681 95.8383 87.4333 95.7054 87.4507 95.5437C87.526 94.9718 87.6535 94.371 87.8215 93.7356C87.9953 93.1002 88.1923 92.4648 88.424 91.8352C88.6557 91.1997 88.9048 90.5874 89.1771 89.9924C89.4494 89.3975 89.7275 88.8545 90.0172 88.3692C90.0635 88.2941 90.1214 88.2479 90.1794 88.2364C90.2431 88.2191 90.2952 88.2248 90.3416 88.2422C90.3879 88.2017 90.4459 88.1728 90.5154 88.144C90.5849 88.1151 90.6486 88.1035 90.7182 88.1035C90.7471 88.1035 90.7761 88.1035 90.8109 88.1151C90.8456 88.1266 90.8804 88.1555 90.9209 88.2017C90.9615 88.2479 91.002 88.3172 91.0542 88.4097C91.1063 88.5021 91.17 88.6292 91.2454 88.8025C91.3786 89.2877 91.535 89.7903 91.7146 90.3044C91.8884 90.8185 92.0738 91.3326 92.265 91.8467C92.2939 91.8352 92.3229 91.8294 92.3461 91.8236C92.3693 91.8178 92.3982 91.812 92.4272 91.8005C92.5315 91.7889 92.6531 91.8005 92.7864 91.812C92.9196 91.8294 93.0123 91.8987 93.0587 92.0142C93.1166 92.1586 93.105 92.2799 93.0297 92.3839C92.9544 92.4879 92.8154 92.5919 92.6126 92.7016C92.7342 93.0078 92.8617 93.3024 92.9834 93.597C93.105 93.8916 93.2383 94.1689 93.3715 94.4461C93.3831 94.4924 93.3947 94.5674 93.4121 94.6656C93.4295 94.7638 93.441 94.8678 93.4468 94.966C93.4468 95.0642 93.4468 95.1566 93.4237 95.2433C93.4063 95.3299 93.3657 95.3877 93.3078 95.4166C93.2383 95.4455 93.1687 95.4397 93.0992 95.405C93.0297 95.3704 92.9602 95.3184 92.8907 95.2549C92.8211 95.1913 92.7632 95.1278 92.7111 95.0527C92.6589 94.9776 92.6184 94.914 92.5894 94.8621C92.4272 94.5501 92.2708 94.2324 92.1259 93.9089C91.9753 93.5912 91.8363 93.2677 91.703 92.9442C91.3033 93.0193 90.863 93.0887 90.3879 93.1464C89.9129 93.2042 89.4494 93.2446 88.9917 93.262C88.8875 93.6259 88.7832 93.9782 88.6847 94.3306C88.5862 94.683 88.4935 95.0296 88.4066 95.3819L88.4124 95.3762ZM90.4459 89.3686C90.0056 90.3506 89.6232 91.3326 89.2988 92.3146C89.9418 92.2973 90.6255 92.2164 91.3496 92.072C91.0078 91.2055 90.7066 90.3044 90.4459 89.3686Z" fill="#F79C80" stroke="#F79C80" stroke-width="0.54" stroke-miterlimit="10"/>
<path d="M102.282 89.6691C101.297 89.6229 100.353 89.698 99.443 89.9002C98.5334 90.1023 97.6354 90.3738 96.7433 90.7147C96.5115 90.8013 96.3377 90.7898 96.2219 90.6858C96.1002 90.5818 96.0423 90.4778 96.0423 90.3738C96.1118 90.1948 96.2277 90.0446 96.4015 89.9291C98.3596 88.9759 100.324 88.6236 102.282 88.8719C102.374 88.9008 102.456 88.9701 102.519 89.0799C102.583 89.1897 102.6 89.2821 102.583 89.3572C102.566 89.4554 102.537 89.5305 102.496 89.594C102.456 89.6576 102.386 89.6807 102.282 89.6749V89.6691ZM100.242 94.66C100.242 94.764 100.208 94.8564 100.132 94.9373C100.063 95.0182 99.9702 95.0702 99.8659 95.0875C99.6747 95.1164 99.553 95.0875 99.4951 94.9893C99.4372 94.8911 99.4024 94.7813 99.3966 94.66C99.385 93.9899 99.3734 93.3256 99.3619 92.6671C99.3445 92.0028 99.3155 91.3385 99.2692 90.6742C99.2692 90.6338 99.2692 90.5934 99.2518 90.5356C99.2402 90.4836 99.2402 90.4316 99.2518 90.3796C99.2634 90.3276 99.2808 90.2814 99.3155 90.2468C99.3503 90.2121 99.4024 90.1774 99.4777 90.1601C99.6979 90.1197 99.8543 90.1601 99.9528 90.2699C100.051 90.3796 100.098 90.4894 100.098 90.5934C100.173 91.2808 100.219 91.9624 100.242 92.6382C100.26 93.3141 100.26 93.9899 100.242 94.6716V94.66Z" fill="#F79C80" stroke="#F79C80" stroke-width="0.54" stroke-miterlimit="10"/>
<path d="M106.1 95.3762C106.053 95.5379 105.989 95.6823 105.914 95.8094C105.839 95.9365 105.758 96.0116 105.671 96.0289C105.491 96.0751 105.352 96.0462 105.254 95.9423C105.155 95.8383 105.12 95.7054 105.138 95.5437C105.213 94.9718 105.341 94.371 105.509 93.7356C105.682 93.1002 105.879 92.4648 106.111 91.8352C106.343 91.1997 106.592 90.5874 106.864 89.9924C107.137 89.3975 107.415 88.8545 107.704 88.3692C107.751 88.2941 107.809 88.2479 107.867 88.2364C107.93 88.2191 107.982 88.2248 108.029 88.2422C108.075 88.2017 108.133 88.1728 108.203 88.144C108.272 88.1151 108.336 88.1035 108.405 88.1035C108.434 88.1035 108.463 88.1035 108.498 88.1151C108.533 88.1266 108.568 88.1555 108.608 88.2017C108.649 88.2479 108.689 88.3172 108.741 88.4097C108.793 88.5021 108.857 88.6292 108.932 88.8025C109.066 89.2877 109.222 89.7903 109.402 90.3044C109.576 90.8185 109.761 91.3326 109.952 91.8467C109.981 91.8352 110.01 91.8294 110.033 91.8236C110.056 91.8178 110.085 91.812 110.114 91.8005C110.219 91.7889 110.34 91.8005 110.474 91.812C110.607 91.8294 110.699 91.8987 110.746 92.0142C110.804 92.1586 110.792 92.2799 110.717 92.3839C110.642 92.4879 110.502 92.5919 110.3 92.7016C110.421 93.0078 110.549 93.3024 110.67 93.597C110.792 93.8916 110.925 94.1689 111.059 94.4461C111.07 94.4924 111.082 94.5674 111.099 94.6656C111.117 94.7638 111.128 94.8678 111.134 94.966C111.134 95.0642 111.134 95.1566 111.111 95.2433C111.093 95.3299 111.053 95.3877 110.995 95.4166C110.925 95.4455 110.856 95.4397 110.786 95.405C110.717 95.3704 110.647 95.3184 110.578 95.2549C110.508 95.1913 110.45 95.1278 110.398 95.0527C110.346 94.9776 110.306 94.914 110.277 94.8621C110.114 94.5501 109.958 94.2324 109.813 93.9089C109.662 93.5912 109.523 93.2677 109.39 92.9442C108.99 93.0193 108.55 93.0887 108.075 93.1464C107.6 93.2042 107.137 93.2446 106.679 93.262C106.575 93.6259 106.47 93.9782 106.372 94.3306C106.273 94.683 106.181 95.0296 106.094 95.3819L106.1 95.3762ZM108.133 89.3686C107.693 90.3506 107.31 91.3326 106.986 92.3146C107.629 92.2973 108.313 92.2164 109.037 92.072C108.695 91.2055 108.394 90.3044 108.133 89.3686Z" fill="#F79C80" stroke="#F79C80" stroke-width="0.54" stroke-miterlimit="10"/>
<path d="M115.433 89.611C115.386 89.946 115.34 90.3157 115.305 90.7201C115.265 91.1244 115.23 91.5345 115.189 91.9505C115.149 92.3664 115.114 92.7707 115.079 93.1577C115.044 93.5505 115.021 93.8914 114.998 94.186C115.323 94.1282 115.682 94.0647 116.081 93.9838C116.475 93.9087 116.881 93.8278 117.292 93.747C117.704 93.6661 118.109 93.5968 118.503 93.5332C118.897 93.4697 119.262 93.4235 119.586 93.4004C119.615 93.4004 119.65 93.4119 119.685 93.4292C119.76 93.4697 119.801 93.5274 119.801 93.6141C119.801 93.7354 119.778 93.8336 119.731 93.8914C119.685 93.9549 119.627 94.0011 119.558 94.0358C119.488 94.0704 119.418 94.0993 119.349 94.1282C119.279 94.1571 119.21 94.1975 119.158 94.2553C118.862 94.3304 118.538 94.4113 118.184 94.4979C117.831 94.5845 117.466 94.6712 117.095 94.7578C116.725 94.8445 116.348 94.9311 115.977 95.0178C115.606 95.1044 115.253 95.1911 114.929 95.2777C114.633 95.3528 114.407 95.3008 114.257 95.1218C114.106 94.9427 114.042 94.6423 114.071 94.238C114.118 93.4639 114.175 92.6898 114.245 91.9158C114.315 91.1417 114.396 90.3619 114.488 89.5936C114.506 89.4319 114.564 89.299 114.651 89.195C114.743 89.0911 114.853 89.0275 114.987 89.0102C115.207 88.9813 115.34 89.0391 115.381 89.1719C115.421 89.3106 115.438 89.4608 115.433 89.6225V89.611Z" fill="#F79C80" stroke="#F79C80" stroke-width="0.54" stroke-miterlimit="10"/>
<path d="M124.013 94.1457C124.024 94.1862 124.03 94.2382 124.03 94.3075C124.03 94.3768 124.013 94.4519 123.989 94.5212C123.96 94.5905 123.92 94.6541 123.868 94.7061C123.816 94.7581 123.74 94.7869 123.648 94.7869C123.439 94.6541 123.259 94.475 123.115 94.2555C123.039 93.9667 122.97 93.6432 122.906 93.2677C122.842 92.898 122.796 92.5052 122.755 92.1009C122.715 91.6965 122.692 91.2806 122.674 90.8647C122.657 90.4488 122.657 90.0386 122.669 89.6516C122.669 89.5823 122.674 89.5014 122.692 89.3917C122.703 89.2877 122.732 89.1837 122.773 89.0855C122.813 88.9873 122.86 88.9007 122.918 88.8256C122.976 88.7562 123.057 88.7158 123.161 88.7158C123.283 88.7158 123.387 88.7563 123.462 88.8313C123.538 88.9064 123.578 89.0335 123.578 89.201C123.567 89.5823 123.572 89.9924 123.584 90.4257C123.595 90.8589 123.624 91.2979 123.665 91.7369C123.706 92.176 123.752 92.6034 123.816 93.0193C123.879 93.4352 123.949 93.8107 124.024 94.14L124.013 94.1457Z" fill="#F79C80" stroke="#F79C80" stroke-width="0.54" stroke-miterlimit="10"/>
<path d="M128.016 95.3762C127.969 95.5379 127.906 95.6823 127.83 95.8094C127.755 95.9365 127.674 96.0116 127.587 96.0289C127.407 96.0751 127.268 96.0462 127.17 95.9423C127.071 95.8383 127.037 95.7054 127.054 95.5437C127.129 94.9718 127.257 94.371 127.425 93.7356C127.599 93.1002 127.796 92.4648 128.027 91.8352C128.259 91.1997 128.508 90.5874 128.781 89.9924C129.053 89.3975 129.331 88.8545 129.621 88.3692C129.667 88.2941 129.725 88.2479 129.783 88.2364C129.846 88.2191 129.899 88.2248 129.945 88.2422C129.991 88.2017 130.049 88.1728 130.119 88.144C130.188 88.1151 130.252 88.1035 130.322 88.1035C130.351 88.1035 130.379 88.1035 130.414 88.1151C130.449 88.1266 130.484 88.1555 130.524 88.2017C130.565 88.2479 130.605 88.3172 130.658 88.4097C130.71 88.5021 130.773 88.6292 130.849 88.8025C130.982 89.2877 131.138 89.7903 131.318 90.3044C131.492 90.8185 131.677 91.3326 131.868 91.8467C131.897 91.8352 131.926 91.8294 131.949 91.8236C131.973 91.8178 132.002 91.812 132.031 91.8005C132.135 91.7889 132.257 91.8005 132.39 91.812C132.523 91.8294 132.616 91.8987 132.662 92.0142C132.72 92.1586 132.708 92.2799 132.633 92.3839C132.558 92.4879 132.419 92.5919 132.216 92.7016C132.338 93.0078 132.465 93.3024 132.587 93.597C132.708 93.8916 132.842 94.1689 132.975 94.4461C132.986 94.4924 132.998 94.5674 133.015 94.6656C133.033 94.7638 133.044 94.8678 133.05 94.966C133.05 95.0642 133.05 95.1566 133.027 95.2433C133.01 95.3299 132.969 95.3877 132.911 95.4166C132.842 95.4455 132.772 95.4397 132.703 95.405C132.633 95.3704 132.564 95.3184 132.494 95.2549C132.425 95.1913 132.367 95.1278 132.314 95.0527C132.262 94.9776 132.222 94.914 132.193 94.8621C132.031 94.5501 131.874 94.2324 131.729 93.9089C131.579 93.5912 131.44 93.2677 131.306 92.9442C130.907 93.0193 130.466 93.0887 129.991 93.1464C129.516 93.2042 129.053 93.2446 128.595 93.262C128.491 93.6259 128.387 93.9782 128.288 94.3306C128.19 94.683 128.097 95.0296 128.01 95.3819L128.016 95.3762ZM130.049 89.3686C129.609 90.3506 129.227 91.3326 128.902 92.3146C129.545 92.2973 130.229 92.2164 130.953 92.072C130.611 91.2055 130.31 90.3044 130.049 89.3686Z" fill="#F79C80" stroke="#F79C80" stroke-width="0.54" stroke-miterlimit="10"/>
<path d="M145.772 89.2703C145.732 89.3165 145.662 89.357 145.564 89.3801C145.465 89.4032 145.361 89.3801 145.257 89.2992C145.182 89.2414 145.089 89.1837 144.985 89.1201C144.88 89.0566 144.764 88.9988 144.643 88.9411C144.515 88.8833 144.394 88.8371 144.272 88.7966C144.15 88.7562 144.029 88.7389 143.913 88.7389C143.768 88.7389 143.617 88.7735 143.461 88.8371C143.304 88.9006 143.165 88.9988 143.05 89.1259C142.829 89.3627 142.748 89.5938 142.812 89.8191C142.876 90.0444 143.038 90.2523 143.304 90.4429C143.478 90.57 143.664 90.6913 143.866 90.8242C144.069 90.9513 144.266 91.0784 144.463 91.2054C144.66 91.3325 144.846 91.4481 145.025 91.5636C145.199 91.6791 145.355 91.7773 145.489 91.864C145.662 91.9795 145.825 92.1008 145.975 92.2337C146.126 92.3665 146.265 92.5167 146.375 92.6842C146.491 92.8518 146.584 93.0424 146.647 93.2503C146.717 93.4583 146.746 93.7009 146.746 93.9666C146.676 94.4923 146.468 94.9082 146.12 95.2201C145.772 95.5321 145.367 95.7285 144.909 95.8151C144.51 95.8902 144.116 95.8786 143.727 95.7747C143.339 95.6707 143.015 95.4685 142.743 95.1739C142.673 95.0988 142.621 94.9948 142.569 94.8562C142.522 94.7233 142.517 94.6251 142.557 94.5674C142.615 94.4807 142.714 94.423 142.858 94.3883C143.003 94.3536 143.113 94.3594 143.189 94.4114C143.409 94.6136 143.669 94.758 143.965 94.8504C144.26 94.9429 144.573 94.9486 144.898 94.8735C145.147 94.8158 145.344 94.7118 145.5 94.5501C145.651 94.3941 145.749 94.215 145.79 94.0128C145.836 93.8049 145.813 93.5854 145.709 93.3601C145.604 93.1348 145.431 92.9326 145.17 92.7536C144.776 92.4589 144.359 92.1817 143.913 91.9217C143.467 91.6618 143.015 91.3672 142.557 91.0379C142.337 90.8473 142.175 90.6393 142.076 90.4083C141.978 90.1772 141.926 89.9577 141.926 89.7382C141.926 89.5187 141.972 89.2934 142.07 89.0855C142.169 88.8833 142.302 88.6927 142.47 88.5251C142.644 88.3576 142.841 88.2248 143.073 88.115C143.304 88.011 143.554 87.9475 143.832 87.9302C144.214 87.9128 144.585 87.9879 144.938 88.167C145.292 88.3461 145.581 88.5598 145.801 88.8197C145.848 88.8775 145.871 88.9468 145.865 89.0335C145.865 89.1201 145.83 89.201 145.772 89.2761V89.2703Z" fill="#F79C80" stroke="#F79C80" stroke-width="0.54" stroke-miterlimit="10"/>
<path d="M152.197 91.142C152.406 90.8936 152.609 90.651 152.8 90.4141C152.991 90.1773 153.165 89.9462 153.333 89.7267C153.182 89.7267 152.968 89.7383 152.701 89.7672C152.435 89.7961 152.151 89.8365 151.85 89.8827C151.548 89.9289 151.259 89.9809 150.975 90.0271C150.691 90.0733 150.459 90.1195 150.28 90.1542C150.233 90.1657 150.17 90.16 150.088 90.1484C150.007 90.1311 149.926 90.1138 149.851 90.0849C149.776 90.056 149.706 90.0156 149.648 89.9636C149.59 89.9116 149.561 89.8538 149.561 89.8018C149.561 89.6978 149.625 89.5939 149.752 89.4957C149.88 89.3975 150.013 89.3224 150.146 89.2762C150.28 89.2299 150.459 89.178 150.691 89.1202C150.923 89.0624 151.178 89.0104 151.467 88.9642C151.757 88.918 152.058 88.8718 152.371 88.8371C152.684 88.8025 152.997 88.7678 153.304 88.7505C153.425 88.739 153.547 88.7621 153.669 88.8083C153.79 88.8545 153.895 88.918 153.982 88.9989C154.069 89.0798 154.15 89.1664 154.213 89.2646C154.277 89.3628 154.318 89.4552 154.335 89.5534C154.364 89.7845 154.289 90.0098 154.103 90.2408C153.999 90.3737 153.883 90.5123 153.767 90.6568C153.646 90.8012 153.524 90.9514 153.385 91.1131C152.638 91.9796 151.207 93.8512 150.946 94.2035C151.299 94.192 156.38 94.0533 156.426 94.1458C156.444 94.2209 156.426 94.3248 156.368 94.4577C156.311 94.5906 156.189 94.6888 156.009 94.7465C155.639 94.7927 155.216 94.8447 154.752 94.8909C154.289 94.9372 153.814 94.9834 153.327 95.018C152.84 95.0585 152.354 95.0873 151.879 95.1104C151.404 95.1336 150.963 95.1509 150.575 95.1624C150.326 95.1509 150.141 95.122 150.025 95.0758C149.903 95.0296 149.816 94.9603 149.758 94.8736C149.671 94.7581 149.642 94.631 149.671 94.4866C149.7 94.3422 149.747 94.2266 149.816 94.1458C150.025 93.8396 150.256 93.5335 150.5 93.2158C150.743 92.898 150.998 92.5861 151.265 92.2742C151.16 92.2915 152.018 91.3615 152.197 91.1593V91.142Z" fill="#F79C80" stroke="#F79C80" stroke-width="0.54" stroke-miterlimit="10"/>
<path d="M159.902 95.3762C159.856 95.5379 159.792 95.6823 159.717 95.8094C159.642 95.9365 159.561 96.0116 159.474 96.0289C159.294 96.0751 159.155 96.0462 159.057 95.9423C158.958 95.8383 158.923 95.7054 158.941 95.5437C159.016 94.9718 159.144 94.371 159.312 93.7356C159.485 93.1002 159.682 92.4648 159.914 91.8352C160.146 91.1997 160.395 90.5874 160.667 89.9924C160.939 89.3975 161.218 88.8545 161.507 88.3692C161.554 88.2941 161.611 88.2479 161.669 88.2364C161.733 88.2191 161.785 88.2248 161.832 88.2422C161.878 88.2017 161.936 88.1728 162.005 88.144C162.075 88.1151 162.139 88.1035 162.208 88.1035C162.237 88.1035 162.266 88.1035 162.301 88.1151C162.336 88.1266 162.37 88.1555 162.411 88.2017C162.452 88.2479 162.492 88.3172 162.544 88.4097C162.596 88.5021 162.66 88.6292 162.735 88.8025C162.869 89.2877 163.025 89.7903 163.205 90.3044C163.378 90.8185 163.564 91.3326 163.755 91.8467C163.784 91.8352 163.813 91.8294 163.836 91.8236C163.859 91.8178 163.888 91.812 163.917 91.8005C164.022 91.7889 164.143 91.8005 164.276 91.812C164.41 91.8294 164.502 91.8987 164.549 92.0142C164.607 92.1586 164.595 92.2799 164.52 92.3839C164.444 92.4879 164.305 92.5919 164.103 92.7016C164.224 93.0078 164.352 93.3024 164.473 93.597C164.595 93.8916 164.728 94.1689 164.862 94.4461C164.873 94.4924 164.885 94.5674 164.902 94.6656C164.92 94.7638 164.931 94.8678 164.937 94.966C164.937 95.0642 164.937 95.1566 164.914 95.2433C164.896 95.3299 164.856 95.3877 164.798 95.4166C164.728 95.4455 164.659 95.4397 164.589 95.405C164.52 95.3704 164.45 95.3184 164.381 95.2549C164.311 95.1913 164.253 95.1278 164.201 95.0527C164.149 94.9776 164.108 94.914 164.079 94.8621C163.917 94.5501 163.761 94.2324 163.616 93.9089C163.465 93.5912 163.326 93.2677 163.193 92.9442C162.793 93.0193 162.353 93.0887 161.878 93.1464C161.403 93.2042 160.939 93.2446 160.482 93.262C160.378 93.6259 160.273 93.9782 160.175 94.3306C160.076 94.683 159.984 95.0296 159.897 95.3819L159.902 95.3762ZM161.936 89.3686C161.496 90.3506 161.113 91.3326 160.789 92.3146C161.432 92.2973 162.116 92.2164 162.84 92.072C162.498 91.2055 162.197 90.3044 161.936 89.3686Z" fill="#F79C80" stroke="#F79C80" stroke-width="0.54" stroke-miterlimit="10"/>
<path d="M171.049 93.7297C171.02 94.0417 170.933 94.3131 170.782 94.5384C170.632 94.7637 170.452 94.937 170.232 95.0699C170.012 95.2027 169.769 95.2778 169.502 95.3067C169.236 95.3356 168.969 95.3067 168.714 95.2374C168.598 95.2085 168.477 95.1623 168.349 95.093C168.222 95.0237 168.1 94.9486 167.99 94.8619C167.88 94.7753 167.793 94.6771 167.723 94.5673C167.654 94.4576 167.625 94.3363 167.637 94.2034C167.637 94.0994 167.689 93.9954 167.787 93.8972C167.886 93.799 167.978 93.7066 168.065 93.6315C168.164 93.5738 168.268 93.5218 168.378 93.4756C168.494 93.4293 168.604 93.4582 168.708 93.5622C168.772 93.6835 168.789 93.8048 168.743 93.9204C168.703 94.0359 168.662 94.1341 168.633 94.2207C168.592 94.3247 168.645 94.3998 168.778 94.4345C168.911 94.4749 169.068 94.4807 169.253 94.4633C169.543 94.446 169.757 94.3536 169.896 94.1976C170.041 94.0417 170.134 93.8395 170.174 93.6026C170.215 93.3658 170.226 93.1059 170.197 92.8228C170.168 92.5398 170.128 92.2683 170.081 92.0025C169.977 91.5173 169.803 91.061 169.572 90.6277C169.34 90.2003 169.068 89.819 168.76 89.484C168.662 89.38 168.604 89.2702 168.581 89.1605C168.558 89.0507 168.598 88.941 168.703 88.837C168.853 88.733 168.986 88.6926 169.091 88.7215C169.195 88.7504 169.305 88.8139 169.421 88.9063C169.977 89.432 170.4 90.0963 170.695 90.8992C170.991 91.7079 171.107 92.6437 171.043 93.724L171.049 93.7297Z" fill="#F79C80" stroke="#F79C80" stroke-width="0.54" stroke-miterlimit="10"/>
<path d="M179.235 92.3434C179.177 92.6091 179.073 92.8633 178.928 93.1059C178.777 93.3485 178.609 93.5738 178.418 93.7875C178.227 93.9955 178.018 94.1803 177.792 94.3305C177.566 94.4807 177.34 94.602 177.109 94.6886C176.686 94.8388 176.269 94.8908 175.852 94.8388C175.434 94.7868 175.064 94.5962 174.739 94.2727C174.519 94.007 174.363 93.7066 174.276 93.3716C174.183 93.0366 174.143 92.6957 174.148 92.3492C174.148 92.0026 174.2 91.6675 174.293 91.3383C174.386 91.0148 174.502 90.726 174.647 90.466C174.82 90.1599 175.023 89.9057 175.261 89.7093C175.498 89.5071 175.765 89.3916 176.049 89.3511C176.124 89.3338 176.188 89.3511 176.234 89.4089C176.28 89.4667 176.303 89.5302 176.303 89.6111C176.402 89.5187 176.547 89.4436 176.75 89.3974C176.952 89.3511 177.172 89.3454 177.422 89.3858C177.879 89.4436 178.244 89.5822 178.511 89.8017C178.777 90.0212 178.98 90.2754 179.107 90.5642C179.235 90.853 179.304 91.1592 179.31 91.4769C179.316 91.7946 179.287 92.0834 179.229 92.3434H179.235ZM176.112 90.3678C175.921 90.4545 175.759 90.5815 175.631 90.7491C175.504 90.9166 175.4 91.1072 175.313 91.3152C175.232 91.5231 175.18 91.7484 175.156 91.9968C175.133 92.2394 175.127 92.4762 175.151 92.7073C175.18 93.0423 175.278 93.3138 175.452 93.5276C175.626 93.7413 175.892 93.8511 176.257 93.8511C176.466 93.8511 176.674 93.8106 176.883 93.7297C177.086 93.6489 177.277 93.5391 177.451 93.4063C177.624 93.2734 177.781 93.1117 177.926 92.9268C178.07 92.742 178.186 92.5456 178.267 92.3492C178.314 92.2452 178.354 92.1123 178.383 91.9564C178.412 91.8004 178.424 91.6386 178.412 91.4711C178.401 91.3036 178.366 91.1476 178.296 90.9917C178.227 90.8415 178.123 90.7086 177.978 90.6046C177.775 90.4602 177.537 90.3736 177.259 90.3447C176.981 90.3158 176.692 90.3794 176.385 90.5296C176.327 90.57 176.263 90.5758 176.193 90.5527C176.124 90.5295 176.095 90.4718 176.112 90.3736V90.3678Z" fill="#F79C80" stroke="#F79C80" stroke-width="0.54" stroke-miterlimit="10"/>
<path d="M190.758 89.8422C190.48 90.5584 190.155 91.3036 189.79 92.0834C189.42 92.8633 188.985 93.6316 188.475 94.3941C188.33 94.6136 188.168 94.7233 187.989 94.7233C187.873 94.7233 187.78 94.6944 187.699 94.6424C187.624 94.5905 187.554 94.5211 187.496 94.4345C187.247 94.0532 187.021 93.6489 186.824 93.2214C186.621 92.794 186.43 92.3087 186.239 91.76C185.961 92.2452 185.654 92.7362 185.312 93.233C184.97 93.7298 184.6 94.1919 184.2 94.6193C184.124 94.706 184.043 94.7637 183.962 94.7926C183.881 94.8215 183.817 94.8331 183.771 94.8215C183.568 94.7926 183.412 94.6713 183.296 94.4518C182.943 93.7933 182.705 93.0712 182.578 92.2799C182.45 91.4885 182.386 90.6798 182.375 89.8479C182.375 89.7728 182.404 89.6977 182.462 89.6169C182.52 89.5418 182.607 89.5071 182.717 89.5187C182.891 89.5302 183.024 89.5938 183.116 89.7093C183.215 89.8306 183.267 89.975 183.29 90.1483C183.308 90.3852 183.331 90.6566 183.36 90.957C183.389 91.2574 183.429 91.5636 183.476 91.8813C183.522 92.1932 183.586 92.4994 183.661 92.794C183.736 93.0886 183.835 93.3485 183.951 93.568C184.096 93.3889 184.246 93.1868 184.408 92.9673C184.571 92.7478 184.733 92.5167 184.889 92.2799C185.046 92.043 185.196 91.8004 185.341 91.5578C185.486 91.3152 185.613 91.0726 185.729 90.8357C185.805 90.674 185.903 90.57 186.019 90.5238C186.135 90.4776 186.227 90.4545 186.291 90.4545C186.581 90.4545 186.772 90.5931 186.882 90.8704C187.044 91.269 187.207 91.6964 187.375 92.1412C187.543 92.5918 187.728 93.0135 187.925 93.412C188.099 93.1463 188.273 92.8459 188.458 92.5109C188.643 92.1759 188.817 91.8351 188.991 91.4885C189.165 91.1419 189.327 90.7895 189.483 90.4371C189.64 90.0848 189.785 89.7497 189.906 89.4378C189.953 89.3223 190.034 89.2298 190.15 89.149C190.265 89.0739 190.387 89.0797 190.52 89.1663C190.625 89.2356 190.7 89.3396 190.74 89.4898C190.781 89.64 190.787 89.7613 190.746 89.8537L190.758 89.8422Z" fill="#F79C80" stroke="#F79C80" stroke-width="0.54" stroke-miterlimit="10"/>
<path d="M197.525 89.2703C197.484 89.3165 197.414 89.357 197.316 89.3801C197.217 89.4032 197.113 89.3801 197.009 89.2992C196.934 89.2414 196.841 89.1837 196.737 89.1201C196.632 89.0566 196.516 88.9988 196.395 88.9411C196.267 88.8833 196.146 88.8371 196.024 88.7966C195.902 88.7562 195.781 88.7389 195.665 88.7389C195.52 88.7389 195.369 88.7735 195.213 88.8371C195.057 88.9006 194.917 88.9988 194.802 89.1259C194.581 89.3627 194.5 89.5938 194.564 89.8191C194.628 90.0444 194.79 90.2523 195.057 90.4429C195.23 90.57 195.416 90.6913 195.618 90.8242C195.821 90.9513 196.018 91.0784 196.215 91.2054C196.412 91.3325 196.598 91.4481 196.777 91.5636C196.951 91.6791 197.107 91.7773 197.241 91.864C197.414 91.9795 197.577 92.1008 197.727 92.2337C197.878 92.3665 198.017 92.5167 198.127 92.6842C198.243 92.8518 198.336 93.0424 198.399 93.2503C198.469 93.4583 198.498 93.7009 198.498 93.9666C198.428 94.4923 198.22 94.9082 197.872 95.2201C197.524 95.5321 197.119 95.7285 196.661 95.8151C196.262 95.8902 195.868 95.8786 195.479 95.7747C195.091 95.6707 194.767 95.4685 194.495 95.1739C194.425 95.0988 194.373 94.9948 194.321 94.8562C194.274 94.7233 194.269 94.6251 194.309 94.5674C194.367 94.4807 194.466 94.423 194.61 94.3883C194.755 94.3536 194.865 94.3594 194.941 94.4114C195.161 94.6136 195.421 94.758 195.717 94.8504C196.012 94.9429 196.325 94.9486 196.65 94.8735C196.899 94.8158 197.096 94.7118 197.252 94.5501C197.403 94.3941 197.501 94.215 197.542 94.0128C197.588 93.8049 197.565 93.5854 197.461 93.3601C197.356 93.1348 197.183 92.9326 196.922 92.7536C196.528 92.4589 196.111 92.1817 195.665 91.9217C195.219 91.6618 194.767 91.3672 194.309 91.0379C194.089 90.8473 193.927 90.6393 193.828 90.4083C193.73 90.1772 193.678 89.9577 193.678 89.7382C193.678 89.5187 193.724 89.2934 193.823 89.0855C193.921 88.8833 194.054 88.6927 194.222 88.5251C194.396 88.3576 194.593 88.2248 194.825 88.115C195.057 88.011 195.306 87.9475 195.584 87.9302C195.966 87.9128 196.337 87.9879 196.69 88.167C197.044 88.3461 197.333 88.5598 197.553 88.8197C197.6 88.8775 197.623 88.9468 197.617 89.0335C197.617 89.1201 197.582 89.201 197.525 89.2761V89.2703Z" fill="#F79C80" stroke="#F79C80" stroke-width="0.54" stroke-miterlimit="10"/>
<path d="M202.275 89.2818C202.321 89.6053 202.374 89.9403 202.431 90.2927C202.489 90.6393 202.547 91.0147 202.605 91.4133C203.046 91.136 203.509 90.8588 203.99 90.5757C204.471 90.2927 204.923 90.0674 205.346 89.8941C205.386 89.8825 205.432 89.8825 205.496 89.8883C205.56 89.8941 205.624 89.9056 205.687 89.9288C205.751 89.9519 205.809 89.9865 205.861 90.0212C205.907 90.0616 205.942 90.1078 205.96 90.1656C205.977 90.2349 205.96 90.3216 205.919 90.4313C205.873 90.5411 205.821 90.6046 205.763 90.6219C205.647 90.6913 205.496 90.7779 205.311 90.8877C205.125 90.9974 204.928 91.1129 204.72 91.24C204.511 91.3671 204.314 91.4884 204.117 91.6097C203.92 91.731 203.758 91.8408 203.625 91.9216C204.169 92.2163 204.702 92.4704 205.224 92.6784C205.745 92.8863 206.296 93.0596 206.881 93.1925C206.939 93.204 206.997 93.2387 207.06 93.3022C207.124 93.3658 207.17 93.4351 207.211 93.5217C207.252 93.6084 207.269 93.695 207.275 93.7817C207.275 93.8683 207.257 93.9434 207.211 94.0128C207.153 94.0879 207.078 94.1341 206.973 94.1514C206.875 94.1687 206.771 94.1629 206.666 94.1456C205.942 93.9723 205.276 93.7644 204.673 93.5102C204.071 93.256 203.439 92.9499 202.779 92.586C202.825 92.9961 202.872 93.4178 202.918 93.8568C202.959 94.2958 202.999 94.7579 203.04 95.2431C203.04 95.3471 202.999 95.4049 202.912 95.4222C202.825 95.4396 202.733 95.4338 202.623 95.4164C202.518 95.3991 202.42 95.3645 202.333 95.3182C202.246 95.272 202.194 95.22 202.177 95.1738C202.119 94.7348 202.061 94.2727 201.997 93.7875C201.933 93.3022 201.864 92.8055 201.788 92.3087C201.713 91.8061 201.632 91.3093 201.545 90.8183C201.458 90.3273 201.371 89.8594 201.284 89.4089C201.267 89.3049 201.284 89.1836 201.354 89.0449C201.423 88.9063 201.545 88.8254 201.725 88.8081C201.794 88.8081 201.858 88.8254 201.916 88.8601C201.974 88.8948 202.038 88.9352 202.09 88.9872C202.142 89.0392 202.182 89.0912 202.211 89.1431C202.24 89.1951 202.258 89.2413 202.269 89.2818H202.275Z" fill="#F79C80" stroke="#F79C80" stroke-width="0.54" stroke-miterlimit="10"/>
<path d="M210.507 95.3762C210.461 95.5379 210.397 95.6823 210.322 95.8094C210.247 95.9365 210.166 96.0116 210.079 96.0289C209.899 96.0751 209.76 96.0462 209.662 95.9423C209.563 95.8383 209.528 95.7054 209.546 95.5437C209.621 94.9718 209.748 94.371 209.917 93.7356C210.09 93.1002 210.287 92.4648 210.519 91.8352C210.751 91.1997 211 90.5874 211.272 89.9924C211.544 89.3975 211.823 88.8545 212.112 88.3692C212.159 88.2941 212.216 88.2479 212.274 88.2364C212.338 88.2191 212.39 88.2248 212.437 88.2422C212.483 88.2017 212.541 88.1728 212.61 88.144C212.68 88.1151 212.744 88.1035 212.813 88.1035C212.842 88.1035 212.871 88.1035 212.906 88.1151C212.941 88.1266 212.975 88.1555 213.016 88.2017C213.057 88.2479 213.097 88.3172 213.149 88.4097C213.201 88.5021 213.265 88.6292 213.34 88.8025C213.474 89.2877 213.63 89.7903 213.81 90.3044C213.983 90.8185 214.169 91.3326 214.36 91.8467C214.389 91.8352 214.418 91.8294 214.441 91.8236C214.464 91.8178 214.493 91.812 214.522 91.8005C214.627 91.7889 214.748 91.8005 214.881 91.812C215.015 91.8294 215.107 91.8987 215.154 92.0142C215.212 92.1586 215.2 92.2799 215.125 92.3839C215.049 92.4879 214.91 92.5919 214.708 92.7016C214.829 93.0078 214.957 93.3024 215.078 93.597C215.2 93.8916 215.333 94.1689 215.467 94.4461C215.478 94.4924 215.49 94.5674 215.507 94.6656C215.524 94.7638 215.536 94.8678 215.542 94.966C215.542 95.0642 215.542 95.1566 215.519 95.2433C215.501 95.3299 215.461 95.3877 215.403 95.4166C215.333 95.4455 215.264 95.4397 215.194 95.405C215.125 95.3704 215.055 95.3184 214.986 95.2549C214.916 95.1913 214.858 95.1278 214.806 95.0527C214.754 94.9776 214.713 94.914 214.684 94.8621C214.522 94.5501 214.366 94.2324 214.221 93.9089C214.07 93.5912 213.931 93.2677 213.798 92.9442C213.398 93.0193 212.958 93.0887 212.483 93.1464C212.008 93.2042 211.544 93.2446 211.087 93.262C210.982 93.6259 210.878 93.9782 210.78 94.3306C210.681 94.683 210.589 95.0296 210.502 95.3819L210.507 95.3762ZM212.541 89.3686C212.101 90.3506 211.718 91.3326 211.394 92.3146C212.037 92.2973 212.72 92.2164 213.445 92.072C213.103 91.2055 212.802 90.3044 212.541 89.3686Z" fill="#F79C80" stroke="#F79C80" stroke-width="0.54" stroke-miterlimit="10"/>
<path d="M222.697 92.4302C222.697 92.4765 222.645 92.5284 222.546 92.5747C222.448 92.6209 222.355 92.644 222.268 92.644C221.636 92.6555 221.04 92.6786 220.478 92.7133C219.916 92.7537 219.365 92.7999 218.827 92.8577C218.722 92.8693 218.63 92.8346 218.549 92.7595C218.467 92.6844 218.415 92.592 218.398 92.488C218.381 92.3956 218.386 92.2974 218.421 92.1934C218.456 92.0952 218.52 92.0317 218.612 92.0028C219.157 91.8988 219.748 91.8179 220.374 91.7602C221.005 91.7024 221.636 91.714 222.268 91.789C222.308 91.8006 222.355 91.8179 222.413 91.8526C222.471 91.8873 222.523 91.9277 222.569 91.9797C222.616 92.0317 222.656 92.0952 222.685 92.1703C222.714 92.2454 222.72 92.332 222.702 92.4302H222.697Z" fill="#F79C80" stroke="#F79C80" stroke-width="0.54" stroke-miterlimit="10"/>
<path d="M231.694 89.6691C230.709 89.6229 229.765 89.698 228.855 89.9002C227.945 90.1023 227.047 90.3738 226.155 90.7147C225.924 90.8013 225.75 90.7898 225.634 90.6858C225.512 90.5818 225.454 90.4778 225.454 90.3738C225.524 90.1948 225.64 90.0446 225.813 89.9291C227.772 88.9759 229.736 88.6236 231.694 88.8719C231.786 88.9008 231.868 88.9701 231.931 89.0799C231.995 89.1897 232.012 89.2821 231.995 89.3572C231.978 89.4554 231.949 89.5305 231.908 89.594C231.868 89.6576 231.798 89.6807 231.694 89.6749V89.6691ZM229.654 94.66C229.654 94.764 229.62 94.8564 229.544 94.9373C229.475 95.0182 229.382 95.0702 229.278 95.0875C229.087 95.1164 228.965 95.0875 228.907 94.9893C228.849 94.8911 228.814 94.7813 228.809 94.66C228.797 93.9899 228.785 93.3256 228.774 92.6671C228.757 92.0028 228.728 91.3385 228.681 90.6742C228.681 90.6338 228.681 90.5934 228.664 90.5356C228.652 90.4836 228.652 90.4316 228.664 90.3796C228.675 90.3276 228.693 90.2814 228.728 90.2468C228.762 90.2121 228.814 90.1774 228.89 90.1601C229.11 90.1197 229.266 90.1601 229.365 90.2699C229.463 90.3796 229.51 90.4894 229.51 90.5934C229.585 91.2808 229.631 91.9624 229.654 92.6382C229.672 93.3141 229.672 93.9899 229.654 94.6716V94.66Z" fill="#F79C80" stroke="#F79C80" stroke-width="0.54" stroke-miterlimit="10"/>
<path d="M239.926 92.3434C239.868 92.6091 239.764 92.8633 239.619 93.1059C239.468 93.3485 239.3 93.5738 239.109 93.7875C238.918 93.9955 238.709 94.1803 238.484 94.3305C238.258 94.4807 238.032 94.602 237.8 94.6886C237.377 94.8388 236.96 94.8908 236.543 94.8388C236.126 94.7868 235.755 94.5962 235.43 94.2727C235.21 94.007 235.054 93.7066 234.967 93.3716C234.874 93.0366 234.834 92.6957 234.84 92.3492C234.84 92.0026 234.892 91.6675 234.984 91.3383C235.077 91.0148 235.193 90.726 235.338 90.466C235.512 90.1599 235.714 89.9057 235.952 89.7093C236.189 89.5071 236.456 89.3916 236.74 89.3511C236.815 89.3338 236.879 89.3511 236.925 89.4089C236.971 89.4667 236.995 89.5302 236.995 89.6111C237.093 89.5187 237.238 89.4436 237.441 89.3974C237.643 89.3511 237.864 89.3454 238.113 89.3858C238.57 89.4436 238.935 89.5822 239.202 89.8017C239.468 90.0212 239.671 90.2754 239.799 90.5642C239.926 90.853 239.996 91.1592 240.001 91.4769C240.007 91.7946 239.978 92.0834 239.92 92.3434H239.926ZM236.798 90.3678C236.606 90.4545 236.444 90.5815 236.317 90.7491C236.189 90.9166 236.085 91.1072 235.998 91.3152C235.917 91.5231 235.865 91.7484 235.842 91.9968C235.819 92.2394 235.813 92.4762 235.836 92.7073C235.865 93.0423 235.963 93.3138 236.137 93.5276C236.311 93.7413 236.578 93.8511 236.942 93.8511C237.151 93.8511 237.36 93.8106 237.568 93.7297C237.771 93.6489 237.962 93.5391 238.136 93.4063C238.31 93.2734 238.466 93.1117 238.611 92.9268C238.756 92.742 238.872 92.5456 238.953 92.3492C238.999 92.2452 239.04 92.1123 239.069 91.9564C239.098 91.8004 239.109 91.6386 239.098 91.4711C239.086 91.3036 239.051 91.1476 238.982 90.9917C238.912 90.8415 238.808 90.7086 238.663 90.6046C238.46 90.4602 238.223 90.3736 237.945 90.3447C237.667 90.3158 237.377 90.3794 237.07 90.5296C237.012 90.57 236.948 90.5758 236.879 90.5527C236.809 90.5295 236.78 90.4718 236.798 90.3736V90.3678Z" fill="#F79C80" stroke="#F79C80" stroke-width="0.54" stroke-miterlimit="10"/>
<path d="M250.383 95.89C250.279 95.89 250.169 95.8091 250.059 95.6473C249.949 95.4856 249.891 95.3296 249.879 95.1737C249.804 94.6191 249.711 93.9721 249.601 93.2385C249.491 92.4991 249.346 91.6269 249.166 90.616C248.877 91.159 248.599 91.6962 248.321 92.2334C248.043 92.7706 247.765 93.3021 247.486 93.8335C247.313 94.1686 247.139 94.3361 246.953 94.3361C246.687 94.3361 246.473 94.1974 246.322 93.9202C245.986 93.4349 245.638 92.9786 245.279 92.5569C244.92 92.1352 244.549 91.7135 244.167 91.2918C244.149 91.933 244.155 92.5569 244.19 93.175C244.225 93.7931 244.283 94.3881 244.37 94.9715C244.387 95.0755 244.375 95.1679 244.335 95.2488C244.294 95.3296 244.248 95.3816 244.196 95.3989C244.063 95.4452 243.929 95.4163 243.796 95.3123C243.663 95.2083 243.582 95.0928 243.553 94.9715C243.466 94.6307 243.402 94.2494 243.367 93.8277C243.327 93.406 243.304 92.9844 243.286 92.5569C243.275 92.1294 243.263 91.702 243.263 91.2861C243.263 90.8702 243.263 90.4831 243.275 90.1423C243.275 89.7611 243.396 89.5704 243.645 89.5704C243.796 89.5704 243.929 89.6282 244.034 89.7322C244.138 89.8419 244.196 89.9979 244.207 90.1943C244.688 90.6738 245.14 91.159 245.563 91.6615C245.986 92.1641 246.403 92.6724 246.803 93.1865C247.139 92.5858 247.475 91.9677 247.822 91.3323C248.17 90.6969 248.552 90.0788 248.987 89.478C249.004 89.374 249.056 89.2643 249.143 89.1545C249.23 89.0448 249.323 88.9697 249.433 88.935C249.543 88.9004 249.647 88.935 249.763 89.0621C249.879 89.1892 249.954 89.3278 249.995 89.4896C250.157 90.4542 250.296 91.4132 250.418 92.3778C250.54 93.3425 250.655 94.3014 250.771 95.2661C250.789 95.4452 250.754 95.5954 250.673 95.7167C250.586 95.838 250.493 95.8957 250.383 95.8957V95.89Z" fill="#F79C80" stroke="#F79C80" stroke-width="0.54" stroke-miterlimit="10"/>
<path d="M256.912 90.1251C256.953 90.1713 256.97 90.2349 256.976 90.3042C256.976 90.3735 256.97 90.4371 256.941 90.4833C256.895 90.5873 256.814 90.6277 256.698 90.5988C256.495 90.5526 256.287 90.5353 256.066 90.541C255.846 90.5526 255.626 90.6392 255.406 90.801C255.186 90.9627 255.012 91.1996 254.89 91.5115C254.769 91.8234 254.705 92.1411 254.705 92.4762C254.705 92.8112 254.786 93.0769 254.942 93.3138C255.099 93.5448 255.302 93.7181 255.551 93.8221C255.701 93.8914 255.875 93.9261 256.066 93.9376C256.258 93.9492 256.449 93.9376 256.646 93.9145C256.843 93.8914 257.034 93.851 257.225 93.799C257.416 93.747 257.596 93.6892 257.77 93.6199C257.828 93.6026 257.88 93.6026 257.932 93.6315C257.984 93.6604 258.019 93.7008 258.042 93.747C258.088 93.8683 258.065 93.9954 257.972 94.1167C257.857 94.238 257.706 94.3478 257.515 94.446C257.324 94.5442 257.115 94.6193 256.883 94.677C256.652 94.7348 256.42 94.7637 256.182 94.7695C255.945 94.7695 255.719 94.7464 255.51 94.6886C255.215 94.6135 254.96 94.498 254.757 94.3535C254.554 94.2091 254.38 94.0358 254.247 93.8394C254.114 93.643 254.016 93.4351 253.946 93.2098C253.876 92.9845 253.842 92.7534 253.83 92.5166C253.813 91.9447 253.923 91.4306 254.166 90.9743C254.409 90.5179 254.751 90.1771 255.192 89.9576C255.516 89.7959 255.846 89.7323 256.176 89.767C256.507 89.8016 256.75 89.923 256.918 90.1309L256.912 90.1251Z" fill="#F79C80" stroke="#F79C80" stroke-width="0.54" stroke-miterlimit="10"/>
<path d="M263.43 90.9857C263.638 90.7373 263.841 90.4947 264.032 90.2579C264.223 90.0211 264.397 89.79 264.565 89.5705C264.415 89.5705 264.2 89.582 263.934 89.6109C263.667 89.6398 263.383 89.6802 263.082 89.7265C262.781 89.7727 262.491 89.8247 262.207 89.8709C261.923 89.9171 261.692 89.9633 261.512 89.9979C261.466 90.0095 261.402 90.0037 261.321 89.9922C261.24 89.9748 261.159 89.9575 261.083 89.9286C261.008 89.8997 260.939 89.8593 260.881 89.8073C260.823 89.7553 260.794 89.6976 260.794 89.6456C260.794 89.5416 260.857 89.4376 260.985 89.3394C261.112 89.2412 261.246 89.1661 261.379 89.1199C261.512 89.0737 261.692 89.0217 261.923 88.9639C262.155 88.9062 262.41 88.8542 262.7 88.808C262.989 88.7618 263.291 88.7156 263.604 88.6809C263.916 88.6462 264.229 88.6116 264.536 88.5943C264.658 88.5827 264.78 88.6058 264.901 88.652C265.023 88.6982 265.127 88.7618 265.214 88.8426C265.301 88.9235 265.382 89.0102 265.446 89.1084C265.51 89.2066 265.55 89.299 265.567 89.3972C265.596 89.6282 265.521 89.8535 265.336 90.0846C265.231 90.2175 265.116 90.3561 265 90.5005C264.878 90.6449 264.756 90.7951 264.617 90.9568C263.87 91.8233 262.439 93.6949 262.178 94.0473C262.532 94.0357 267.613 93.8971 267.659 93.9895C267.676 94.0646 267.659 94.1686 267.601 94.3015C267.543 94.4343 267.421 94.5325 267.242 94.5903C266.871 94.6365 266.448 94.6885 265.985 94.7347C265.521 94.7809 265.046 94.8271 264.559 94.8618C264.073 94.9022 263.586 94.9311 263.111 94.9542C262.636 94.9773 262.196 94.9946 261.808 95.0062C261.558 94.9946 261.373 94.9658 261.257 94.9195C261.136 94.8733 261.049 94.804 260.991 94.7174C260.904 94.6018 260.875 94.4747 260.904 94.3303C260.933 94.1859 260.979 94.0704 261.049 93.9895C261.257 93.6834 261.489 93.3772 261.732 93.0595C261.976 92.7418 262.231 92.4299 262.497 92.1179C262.393 92.1353 263.25 91.2052 263.43 91.0031V90.9857Z" fill="#F79C80" stroke="#F79C80" stroke-width="0.54" stroke-miterlimit="10"/>
<path d="M271.036 95.3762C270.99 95.5379 270.926 95.6823 270.851 95.8094C270.776 95.9365 270.695 96.0116 270.608 96.0289C270.428 96.0751 270.289 96.0462 270.191 95.9423C270.092 95.8383 270.057 95.7054 270.075 95.5437C270.15 94.9718 270.278 94.371 270.446 93.7356C270.619 93.1002 270.816 92.4648 271.048 91.8352C271.28 91.1997 271.529 90.5874 271.801 89.9924C272.073 89.3975 272.352 88.8545 272.641 88.3692C272.688 88.2941 272.745 88.2479 272.803 88.2364C272.867 88.2191 272.919 88.2248 272.966 88.2422C273.012 88.2017 273.07 88.1728 273.139 88.144C273.209 88.1151 273.273 88.1035 273.342 88.1035C273.371 88.1035 273.4 88.1035 273.435 88.1151C273.47 88.1266 273.504 88.1555 273.545 88.2017C273.586 88.2479 273.626 88.3172 273.678 88.4097C273.73 88.5021 273.794 88.6292 273.869 88.8025C274.003 89.2877 274.159 89.7903 274.339 90.3044C274.512 90.8185 274.698 91.3326 274.889 91.8467C274.918 91.8352 274.947 91.8294 274.97 91.8236C274.993 91.8178 275.022 91.812 275.051 91.8005C275.155 91.7889 275.277 91.8005 275.41 91.812C275.544 91.8294 275.636 91.8987 275.683 92.0142C275.741 92.1586 275.729 92.2799 275.654 92.3839C275.578 92.4879 275.439 92.5919 275.237 92.7016C275.358 93.0078 275.486 93.3024 275.607 93.597C275.729 93.8916 275.862 94.1689 275.996 94.4461C276.007 94.4924 276.019 94.5674 276.036 94.6656C276.053 94.7638 276.065 94.8678 276.071 94.966C276.071 95.0642 276.071 95.1566 276.048 95.2433C276.03 95.3299 275.99 95.3877 275.932 95.4166C275.862 95.4455 275.793 95.4397 275.723 95.405C275.654 95.3704 275.584 95.3184 275.515 95.2549C275.445 95.1913 275.387 95.1278 275.335 95.0527C275.283 94.9776 275.242 94.914 275.213 94.8621C275.051 94.5501 274.895 94.2324 274.75 93.9089C274.599 93.5912 274.46 93.2677 274.327 92.9442C273.927 93.0193 273.487 93.0887 273.012 93.1464C272.537 93.2042 272.073 93.2446 271.616 93.262C271.511 93.6259 271.407 93.9782 271.309 94.3306C271.21 94.683 271.118 95.0296 271.031 95.3819L271.036 95.3762ZM273.076 89.3686C272.635 90.3506 272.253 91.3326 271.929 92.3146C272.572 92.2973 273.255 92.2164 273.979 92.072C273.638 91.2055 273.336 90.3044 273.076 89.3686Z" fill="#F79C80" stroke="#F79C80" stroke-width="0.54" stroke-miterlimit="10"/>
<path d="M279.79 89.2818C279.837 89.6053 279.889 89.9403 279.947 90.2927C280.005 90.6393 280.062 91.0147 280.12 91.4133C280.561 91.136 281.024 90.8588 281.505 90.5757C281.986 90.2927 282.438 90.0674 282.861 89.8941C282.901 89.8825 282.948 89.8825 283.011 89.8883C283.075 89.8941 283.139 89.9056 283.202 89.9288C283.266 89.9519 283.324 89.9865 283.376 90.0212C283.423 90.0616 283.457 90.1078 283.475 90.1656C283.492 90.2349 283.475 90.3216 283.434 90.4313C283.388 90.5411 283.336 90.6046 283.278 90.6219C283.162 90.6913 283.011 90.7779 282.826 90.8877C282.64 90.9974 282.444 91.1129 282.235 91.24C282.026 91.3671 281.829 91.4884 281.632 91.6097C281.435 91.731 281.273 91.8408 281.14 91.9216C281.685 92.2163 282.218 92.4704 282.739 92.6784C283.26 92.8863 283.811 93.0596 284.396 93.1925C284.454 93.204 284.512 93.2387 284.575 93.3022C284.639 93.3658 284.686 93.4351 284.726 93.5217C284.767 93.6084 284.784 93.695 284.79 93.7817C284.79 93.8683 284.772 93.9434 284.726 94.0128C284.668 94.0879 284.593 94.1341 284.489 94.1514C284.39 94.1687 284.286 94.1629 284.182 94.1456C283.457 93.9723 282.791 93.7644 282.189 93.5102C281.586 93.256 280.955 92.9499 280.294 92.586C280.341 92.9961 280.387 93.4178 280.433 93.8568C280.474 94.2958 280.514 94.7579 280.555 95.2431C280.555 95.3471 280.514 95.4049 280.427 95.4222C280.341 95.4396 280.248 95.4338 280.138 95.4164C280.033 95.3991 279.935 95.3645 279.848 95.3182C279.761 95.272 279.709 95.22 279.692 95.1738C279.634 94.7348 279.576 94.2727 279.512 93.7875C279.448 93.3022 279.379 92.8055 279.304 92.3087C279.228 91.8061 279.147 91.3093 279.06 90.8183C278.973 90.3273 278.886 89.8594 278.799 89.4089C278.782 89.3049 278.799 89.1836 278.869 89.0449C278.939 88.9063 279.06 88.8254 279.24 88.8081C279.309 88.8081 279.373 88.8254 279.431 88.8601C279.489 88.8948 279.553 88.9352 279.605 88.9872C279.657 89.0392 279.697 89.0912 279.726 89.1431C279.755 89.1951 279.773 89.2413 279.784 89.2818H279.79Z" fill="#F79C80" stroke="#F79C80" stroke-width="0.54" stroke-miterlimit="10"/>
<path d="M152.197 91.142C152.406 90.8936 152.609 90.651 152.8 90.4141C152.991 90.1773 153.165 89.9462 153.333 89.7267C153.182 89.7267 152.968 89.7383 152.701 89.7672C152.435 89.7961 152.151 89.8365 151.85 89.8827C151.548 89.9289 151.259 89.9809 150.975 90.0271C150.691 90.0733 150.459 90.1195 150.28 90.1542C150.233 90.1657 150.17 90.16 150.088 90.1484C150.007 90.1311 149.926 90.1138 149.851 90.0849C149.776 90.056 149.706 90.0156 149.648 89.9636C149.59 89.9116 149.561 89.8538 149.561 89.8018C149.561 89.6978 149.625 89.5939 149.752 89.4957C149.88 89.3975 150.013 89.3224 150.146 89.2762C150.28 89.2299 150.459 89.178 150.691 89.1202C150.923 89.0624 151.178 89.0104 151.467 88.9642C151.757 88.918 152.058 88.8718 152.371 88.8371C152.684 88.8025 152.997 88.7678 153.304 88.7505C153.425 88.739 153.547 88.7621 153.669 88.8083C153.79 88.8545 153.895 88.918 153.982 88.9989C154.069 89.0798 154.15 89.1664 154.213 89.2646C154.277 89.3628 154.318 89.4552 154.335 89.5534C154.364 89.7845 154.289 90.0098 154.103 90.2408C153.999 90.3737 153.883 90.5123 153.767 90.6568C153.646 90.8012 153.524 90.9514 153.385 91.1131C152.638 91.9796 151.207 93.8512 150.946 94.2035C151.299 94.192 156.38 94.0533 156.426 94.1458C156.444 94.2209 156.426 94.3248 156.368 94.4577C156.311 94.5906 156.189 94.6888 156.009 94.7465C155.639 94.7927 155.216 94.8447 154.752 94.8909C154.289 94.9372 153.814 94.9834 153.327 95.018C152.84 95.0585 152.354 95.0873 151.879 95.1104C151.404 95.1336 150.963 95.1509 150.575 95.1624C150.326 95.1509 150.141 95.122 150.025 95.0758C149.903 95.0296 149.816 94.9603 149.758 94.8736C149.671 94.7581 149.642 94.631 149.671 94.4866C149.7 94.3422 149.747 94.2266 149.816 94.1458C150.025 93.8396 150.256 93.5335 150.5 93.2158C150.743 92.898 150.998 92.5861 151.265 92.2742C151.16 92.2915 152.018 91.3615 152.197 91.1593V91.142Z" fill="#F79C80" stroke="#F79C80" stroke-width="0.54" stroke-miterlimit="10"/>
</g>
<defs>
<clipPath id="clip0_126_1542">
<rect width="296" height="96" fill="white" transform="translate(0 0.213867)"/>
</clipPath>
</defs>
</svg>
