<svg width="213" height="234" viewBox="0 0 213 234" fill="none" xmlns="http://www.w3.org/2000/svg">
<path d="M126.095 3.67907C62.8836 -8.40663 34.1995 16.1616 16.1363 44.7885C1.8953 67.3725 -0.346513 93.3658 0.0393731 109.185C0.535512 129.515 7.20582 146.832 17.6982 164.455C29.0176 183.485 52.281 208 73.9824 226.02C81.5715 232.315 101.344 238.106 115.915 229.537C143.571 213.267 156.452 201.921 173.431 185.163C185.448 173.294 200.884 150.385 207.701 128.306C225.158 59.7784 199.395 17.6768 126.095 3.67907ZM165.401 150.565C151.141 171.887 118.543 191.982 90.5388 188.374C70.583 185.794 27.327 144.721 29.3667 111.17C29.3851 84.9058 43.4056 61.2936 53.4202 37.9339C54.3574 35.7693 55.8642 33.7851 57.371 31.9452C62.0016 26.2451 66.9263 25.4153 71.5753 31.0974C77.4738 38.2767 77.5473 45.8347 82.1228 53.952C82.3617 54.3669 82.6189 54.7457 82.8946 55.1064C81.2224 55.3409 79.5686 55.6115 77.9148 55.9542C76.408 56.2609 75.2871 57.2169 74.8093 58.6059C74.2765 60.1572 74.6991 61.9971 75.8568 63.2778C76.9225 64.4503 78.4477 64.9554 80.0464 64.6307C99.7082 60.6442 120.362 64.6307 143.24 76.8246C143.92 77.1854 144.636 77.3658 145.335 77.3658C146.896 77.3658 148.403 76.4999 149.267 74.9667C150.48 72.766 149.763 70.2406 147.595 69.0681C145.978 68.2023 144.379 67.3906 142.799 66.6149C144.232 65.8032 145.665 64.5585 147.65 62.9171C153.659 57.9926 158.216 52.7073 161.873 50.2722C169.186 45.3838 176.628 49.5326 177.363 57.9565C180.119 89.7401 184.033 122.768 165.382 150.62L165.401 150.565Z" fill="#B96645"/>
<path d="M146.328 111.907C143.682 111.149 140.889 112.664 140.136 115.262C138.647 120.313 130.397 124.01 122.109 123.325C113.657 122.622 105.259 117.643 102.135 111.456C101.419 110.031 100.022 109.021 98.4234 108.786C96.8064 108.534 95.1893 109.075 94.05 110.229C91.1467 113.187 85.7994 114.685 81.0402 113.873C76.2625 113.061 72.8631 109.724 72.9917 107.956C73.1938 105.251 71.1174 102.888 68.3611 102.689C65.6231 102.491 63.1975 104.529 62.9954 107.235C62.4441 114.612 69.7576 121.936 79.3129 123.56C85.2298 124.57 91.4223 123.469 96.3653 120.709C102.025 127.51 111.36 132.29 121.227 133.102C122.183 133.174 123.12 133.21 124.057 133.21C136.13 133.21 147.1 126.842 149.709 117.968C150.481 115.352 148.938 112.646 146.292 111.889L146.328 111.907Z" fill="#B96645"/>
<path d="M113.106 100.85C111.856 102.834 107.813 104.981 104.414 106.532C101.511 107.849 98.0561 106.893 96.292 104.277C94.1053 101.013 91.4593 96.8817 91.055 95.583C90.3751 93.2921 92.231 89.5762 97.0271 89.5582C101.805 89.5401 102.999 93.1298 102.999 93.1298C102.999 93.1298 106.546 91.1095 110.533 92.6427C114.521 94.176 115.366 97.2606 113.087 100.886L113.106 100.85Z" fill="#F79C80"/>
</svg>
