<svg width="25" height="25" viewBox="0 0 25 25" fill="none" xmlns="http://www.w3.org/2000/svg">
<mask id="mask0_111_1084" style="mask-type:alpha" maskUnits="userSpaceOnUse" x="0" y="0" width="25" height="25">
<rect x="0.185699" y="0.245117" width="24" height="24" fill="#D9D9D9"/>
</mask>
<g mask="url(#mask0_111_1084)">
<path d="M11.1857 9.04502L8.2857 11.945C8.10237 12.1284 7.86904 12.22 7.5857 12.22C7.30237 12.22 7.06904 12.1284 6.8857 11.945C6.70237 11.7617 6.6107 11.5284 6.6107 11.245C6.6107 10.9617 6.70237 10.7284 6.8857 10.545L11.4857 5.94502C11.6857 5.74502 11.919 5.64502 12.1857 5.64502C12.4524 5.64502 12.6857 5.74502 12.8857 5.94502L17.4857 10.545C17.669 10.7284 17.7607 10.9617 17.7607 11.245C17.7607 11.5284 17.669 11.7617 17.4857 11.945C17.3024 12.1284 17.069 12.22 16.7857 12.22C16.5024 12.22 16.269 12.1284 16.0857 11.945L13.1857 9.04502V17.245C13.1857 17.5284 13.0899 17.7659 12.8982 17.9575C12.7065 18.1492 12.469 18.245 12.1857 18.245C11.9024 18.245 11.6649 18.1492 11.4732 17.9575C11.2815 17.7659 11.1857 17.5284 11.1857 17.245V9.04502Z" fill="#FFF8EF"/>
</g>
</svg>
