<svg width="40" height="40" viewBox="0 0 40 40" fill="none" xmlns="http://www.w3.org/2000/svg">
<mask id="mask0_108_467" style="mask-type:alpha" maskUnits="userSpaceOnUse" x="4" y="4" width="32" height="32">
<rect x="4" y="4" width="32" height="32" fill="#D9D9D9"/>
</mask>
<g mask="url(#mask0_108_467)">
<path d="M9.33333 28C8.95556 28 8.63889 27.8722 8.38333 27.6167C8.12778 27.3611 8 27.0444 8 26.6667C8 26.2889 8.12778 25.9722 8.38333 25.7167C8.63889 25.4611 8.95556 25.3333 9.33333 25.3333H30.6667C31.0444 25.3333 31.3611 25.4611 31.6167 25.7167C31.8722 25.9722 32 26.2889 32 26.6667C32 27.0444 31.8722 27.3611 31.6167 27.6167C31.3611 27.8722 31.0444 28 30.6667 28H9.33333ZM9.33333 21.3333C8.95556 21.3333 8.63889 21.2056 8.38333 20.95C8.12778 20.6944 8 20.3778 8 20C8 19.6222 8.12778 19.3056 8.38333 19.05C8.63889 18.7944 8.95556 18.6667 9.33333 18.6667H30.6667C31.0444 18.6667 31.3611 18.7944 31.6167 19.05C31.8722 19.3056 32 19.6222 32 20C32 20.3778 31.8722 20.6944 31.6167 20.95C31.3611 21.2056 31.0444 21.3333 30.6667 21.3333H9.33333ZM9.33333 14.6667C8.95556 14.6667 8.63889 14.5389 8.38333 14.2833C8.12778 14.0278 8 13.7111 8 13.3333C8 12.9556 8.12778 12.6389 8.38333 12.3833C8.63889 12.1278 8.95556 12 9.33333 12H30.6667C31.0444 12 31.3611 12.1278 31.6167 12.3833C31.8722 12.6389 32 12.9556 32 13.3333C32 13.7111 31.8722 14.0278 31.6167 14.2833C31.3611 14.5389 31.0444 14.6667 30.6667 14.6667H9.33333Z" fill="#B96645"/>
</g>
</svg>
