<svg width="38" height="41" viewBox="0 0 38 41" fill="none" xmlns="http://www.w3.org/2000/svg">
<path d="M34.4648 12.2823C31.599 3.7705 21.9726 1.00599 17.5177 0.687706C-0.944881 -0.949152 0.846191 12.2823 0.157291 19.3754C-0.531612 26.4685 4.29079 43.9286 22.4778 39.9728C40.6649 36.017 38.0471 22.922 34.4648 12.2823Z" fill="#B96645"/>
<g clip-path="url(#clip0_89_165)">
<path d="M24.2353 19.7613L24.079 21.5013H20.5079V32.5532H15.6827V21.5013H12.6149V17.0797H15.6567V13.4998C15.6567 11.673 16.5853 8.54883 20.7292 8.54883H24.4565V12.9748H21.7489C21.302 12.9748 20.6901 13.1787 20.6901 14.0292V17.0753H24.5216L24.2353 19.7613Z" fill="white"/>
</g>
<defs>
<clipPath id="clip0_89_165">
<rect width="11.9067" height="24" fill="white" transform="translate(12.6149 8.54883)"/>
</clipPath>
</defs>
</svg>
