<svg width="37" height="41" viewBox="0 0 37 41" fill="none" xmlns="http://www.w3.org/2000/svg">
<path d="M34.4124 12.2823C31.5466 3.7705 21.9203 1.00599 17.4653 0.687706C-0.99725 -0.949152 0.793823 12.2823 0.104923 19.3754C-0.583981 26.4685 4.23842 43.9286 22.4255 39.9728C40.6125 36.017 37.9947 22.922 34.4124 12.2823Z" fill="#B96645"/>
<g clip-path="url(#clip0_89_176)">
<path d="M23.4834 10.5488H13.5484C10.7735 10.5488 8.51593 12.8064 8.51593 15.5819V25.5163C8.51593 28.2912 10.7735 30.5488 13.5484 30.5488H23.4828C26.2577 30.5488 28.5154 28.2912 28.5154 25.5157V15.5813C28.5154 12.8059 26.2577 10.5488 23.4823 10.5488H23.4834ZM27.3397 25.5163C27.3397 27.6427 25.6098 29.3726 23.4834 29.3726H13.5484C11.422 29.3726 9.69213 27.6427 9.69213 25.5163V15.5819C9.69213 13.4555 11.422 11.7256 13.5484 11.7256H23.4828C25.6092 11.7256 27.3392 13.4555 27.3392 15.5819V25.5163H27.3397Z" fill="white"/>
<path d="M18.5162 15.7056C15.8453 15.7056 13.6733 17.8782 13.6733 20.5491C13.6733 23.2199 15.8459 25.392 18.5162 25.392C21.1865 25.392 23.3591 23.2194 23.3591 20.5491C23.3591 17.8788 21.1865 15.7061 18.5162 15.7061V15.7056ZM18.5162 24.2158C16.4944 24.2158 14.8495 22.5714 14.8495 20.5491C14.8495 18.5267 16.4938 16.8823 18.5162 16.8823C20.5386 16.8823 22.1829 18.5267 22.1829 20.5491C22.1829 22.5714 20.5386 24.2158 18.5162 24.2158Z" fill="white"/>
<path d="M24.066 13.208C23.1002 13.208 22.3153 13.9935 22.3153 14.9581C22.3153 15.9228 23.1008 16.7083 24.066 16.7083C25.0313 16.7083 25.8162 15.9228 25.8162 14.9581C25.8162 13.9935 25.0307 13.208 24.066 13.208ZM24.066 15.5321C23.7493 15.5321 23.4915 15.2749 23.4915 14.9581C23.4915 14.6414 23.7493 14.3842 24.066 14.3842C24.3828 14.3842 24.64 14.6414 24.64 14.9581C24.64 15.2749 24.3828 15.5321 24.066 15.5321Z" fill="white"/>
</g>
<defs>
<clipPath id="clip0_89_176">
<rect width="20" height="20" fill="white" transform="translate(8.51593 10.5488)"/>
</clipPath>
</defs>
</svg>
