<svg width="37" height="40" viewBox="0 0 37 40" fill="none" xmlns="http://www.w3.org/2000/svg">
<path d="M34.3703 11.7334C31.5044 3.22167 21.8781 0.457162 17.4232 0.138878C-1.03939 -1.49798 0.751678 11.7334 0.0627785 18.8266C-0.626125 25.9197 4.19627 43.3797 22.3833 39.424C40.5704 35.4682 37.9525 22.3731 34.3703 11.7334Z" fill="#FFF8EF"/>
<g clip-path="url(#clip0_108_647)">
<path d="M23.4413 10H13.5063C10.7314 10 8.47382 12.2576 8.47382 15.0331V24.9675C8.47382 27.7424 10.7314 30 13.5063 30H23.4407C26.2156 30 28.4732 27.7424 28.4732 24.9669V15.0325C28.4732 12.257 26.2156 10 23.4401 10H23.4413ZM27.2976 24.9675C27.2976 27.0939 25.5677 28.8238 23.4413 28.8238H13.5063C11.3799 28.8238 9.65001 27.0939 9.65001 24.9675V15.0331C9.65001 12.9067 11.3799 11.1768 13.5063 11.1768H23.4407C25.5671 11.1768 27.297 12.9067 27.297 15.0331V24.9675H27.2976Z" fill="#B96645"/>
<path d="M18.4741 15.1568C15.8032 15.1568 13.6312 17.3294 13.6312 20.0003C13.6312 22.6711 15.8038 24.8432 18.4741 24.8432C21.1444 24.8432 23.317 22.6706 23.317 20.0003C23.317 17.33 21.1444 15.1573 18.4741 15.1573V15.1568ZM18.4741 23.667C16.4523 23.667 14.8074 22.0226 14.8074 20.0003C14.8074 17.9779 16.4517 16.3335 18.4741 16.3335C20.4965 16.3335 22.1408 17.9779 22.1408 20.0003C22.1408 22.0226 20.4965 23.667 18.4741 23.667Z" fill="#B96645"/>
<path d="M24.0239 12.6593C23.0581 12.6593 22.2732 13.4448 22.2732 14.4094C22.2732 15.3741 23.0587 16.1596 24.0239 16.1596C24.9891 16.1596 25.774 15.3741 25.774 14.4094C25.774 13.4448 24.9886 12.6593 24.0239 12.6593ZM24.0239 14.9834C23.7072 14.9834 23.4494 14.7262 23.4494 14.4094C23.4494 14.0927 23.7072 13.8355 24.0239 13.8355C24.3406 13.8355 24.5978 14.0927 24.5978 14.4094C24.5978 14.7262 24.3406 14.9834 24.0239 14.9834Z" fill="#B96645"/>
</g>
<defs>
<clipPath id="clip0_108_647">
<rect width="20" height="20" fill="white" transform="translate(8.47382 10)"/>
</clipPath>
</defs>
</svg>
